<?xml version="1.0" encoding="UTF-8" standalone="no"?>
<svg
   xmlns:dc="http://purl.org/dc/elements/1.1/"
   xmlns:cc="http://creativecommons.org/ns#"
   xmlns:rdf="http://www.w3.org/1999/02/22-rdf-syntax-ns#"
   xmlns:svg="http://www.w3.org/2000/svg"
   xmlns="http://www.w3.org/2000/svg"
   xmlns:sodipodi="http://sodipodi.sourceforge.net/DTD/sodipodi-0.dtd"
   xmlns:inkscape="http://www.inkscape.org/namespaces/inkscape"
   width="475.0444"
   height="475.04611"
   version="1.1"
   id="svg38"
   sodipodi:docname="east.svg"
   inkscape:version="1.0.2-2 (e86c870879, 2021-01-15)">
  <defs
     id="defs42" />
  <sodipodi:namedview
     pagecolor="#ffffff"
     bordercolor="#666666"
     borderopacity="1"
     objecttolerance="10"
     gridtolerance="10"
     guidetolerance="10"
     inkscape:pageopacity="0"
     inkscape:pageshadow="2"
     inkscape:window-width="2467"
     inkscape:window-height="1406"
     id="namedview40"
     showgrid="false"
     fit-margin-top="0"
     fit-margin-left="44.4"
     fit-margin-right="44.4"
     fit-margin-bottom="0"
     inkscape:zoom="2.1"
     inkscape:cx="202.54463"
     inkscape:cy="237.53061"
     inkscape:window-x="-11"
     inkscape:window-y="-11"
     inkscape:window-maximized="1"
     inkscape:current-layer="svg38" />
  <title
     id="title2">Turquoise U.S. Map</title>
  <metadata
     id="metadata7">image/svg+xml<rdf:RDF>
  <cc:Work
     rdf:about="">
    <dc:format>image/svg+xml</dc:format>
    <dc:type
       rdf:resource="http://purl.org/dc/dcmitype/StillImage" />
    <dc:title>Turquoise U.S. Map</dc:title>
  </cc:Work>
</rdf:RDF>
</metadata>
  <g
     id="g36"
     transform="translate(-208.06037,-2.4693867)">
    <title
       id="title5">Layer 1</title>
    <g
       id="layer1" />
    <path
       d="M 528,65.603363 534.78949,54.55574 532.52631,37.984314 V 23.254154 L 539.3158,8.52399 h 6.78943 l 4.52636,1.841274 11.31574,-7.365082 9.05267,1.84127 6.78949,11.047615 4.52631,16.571434 4.5263,5.523811 9.05268,1.84127 4.52624,7.365074 9.05267,1.841278 L 614,54.555738 600.42102,65.603361 582.3158,78.492246 580.05267,85.857313 571,95.063658 559.6842,104.27 555.1579,119.00018 541.57892,102.42876 534.78949,87.698592 528,65.603362 Z"
       id="path2833"
       stroke-width="1px"
       stroke="#000000"
       fill="#ffffff" />
    <path
       d="m 521,71.07711 8,-7.076927 6,21.230759 6,14.153862 12,15.923046 -1.99994,7.07692 -12.00006,3.53851 -18,7.0769 -4,-15.92308 1.99994,-22.999982 4.00006,-7.07692 -2,-5.307693 z"
       id="path3607"
       stroke-width="1px"
       stroke="#000000"
       fill="#ffffff" />
    <path
       d="m 506.52942,135.00018 14.41174,-1.81819 -4.11761,-16.36363 2.05877,-23.636361 L 523,85.909279 520.94116,80.454727 V 75.000183 L 504.47058,76.818375 488,82.272911 v 9.090912 l 4.11764,9.090907 2.05884,14.54545 h 4.11765 l 4.11764,16.36362 z"
       id="path3609"
       stroke-width="1px"
       stroke="#000000"
       fill="#ffffff" />
    <path
       d="m 505,151.5265 v -17.36842 l 13.43243,-1.73685 28.78382,-10.42105 5.75671,1.73685 -1.91894,6.94736 5.75683,5.21054 7.6756,5.21052 h 5.75684 l -3.83789,-5.21052 h 5.75677 l 3.83783,5.21052 -1.91888,3.47368 -7.67572,5.21053 1.91888,5.21053 h -7.6756 l -1.91894,-5.21053 h -5.75678 L 543.37842,142.84229 505,151.52651 Z"
       id="path3611"
       stroke-width="1px"
       stroke="#000000"
       fill="#ffffff" />
    <path
       d="m 545.66669,174.00018 -2.66669,-13.5 4,-1.5 4,4.5 v 7.5 z"
       id="path3613"
       stroke-width="1px"
       stroke="#000000"
       fill="#ffffff" />
    <path
       d="m 510.47369,173.00018 25.89472,-12.21052 H 545 v -3.05263 L 540.6842,144.00018 504,150.10545 v 6.10526 z"
       id="path3615"
       stroke-width="1px"
       stroke="#000000"
       fill="#ffffff" />
    <path
       d="m 405,174.01714 v -8.30509 l 11.34177,-9.96611 -4.86075,-14.94916 25.92407,-1.66101 14.58225,-11.62712 v -11.6271 l -4.86078,-3.32204 21.06332,-24.915261 21.06329,-6.644066 v 8.305084 l 3.24051,8.305069 1.62024,13.288144 h 3.24048 l 3.24051,14.94916 3.24051,3.32202 v 16.61019 6.64405 l 4.86075,18.2712 h 6.48101 l 14.58228,-8.30509 3.24054,1.66102 -19.44305,14.94915 -6.48102,-1.66102 v -4.98307 l -11.34174,-3.32202 -14.58227,-3.32202 -1.62027,-6.64407 -6.48102,-1.66103 h -9.72153 l -19.44299,8.3051 h -6.48102 z"
       id="path3617"
       stroke-width="1px"
       stroke="#000000"
       fill="#ffffff" />
    <path
       d="m 489.71429,169.00018 -3.14288,7.5 1.57141,7.5 6.28574,5 -9.42856,10 3.14282,6.25 1.57147,-1.25 9.42853,5 6.28574,-8.75 1.57144,-6.25 v -6.25 l -1.57144,-5 -3.14288,-2.5 1.57144,-2.5 3.14288,-1.25 v -3.75 z"
       id="path3619"
       stroke-width="1px"
       stroke="#000000"
       fill="#ffffff" />
    <path
       d="m 499,224.00018 -8,-9 v -1 l -2,-4 1,6 c 0,0 2,10 2,10 h 7 z"
       id="path3642"
       stroke-width="1px"
       stroke="#000000"
       fill="#ffffff" />
    <path
       d="m 438,215.16685 c 2.5,0 48.75,-14.16667 48.75,-14.16667 v 2.83333 l 3.75,21.25002 h 7.5 v 7.08331 l -6.25,2.83334 -1.25,-1.41665 -6.25,-5.66669 -6.25,-15.58333 1.25,14.16667 2.5,5.66666 h -6.25 l -5,-1.41666 v -2.83334 l 1.25,-2.83331 -1.25,-4.25002 -6.25,-1.41665 -3.75,-2.83335 -2.5,-4.25 h -5 l -1.25,2.83335 -5,1.41665 -6.25,8.50002 z"
       id="path3644"
       stroke-width="1px"
       stroke="#000000"
       fill="#ffffff" />
    <path
       d="M 405.07935,165.43922 392,177.34166 l 4.90478,8.92682 3.26981,20.82928 3.26987,11.90242 17.98413,-1.48779 63.76187,-14.87805 9.80954,-11.90245 -6.53967,-5.95121 -1.63492,-8.92684 3.2698,-8.92682 -8.17456,-1.4878 -1.63491,-5.95124 -6.53971,-1.4878 h -9.80954 l -19.61902,7.43904 h -6.5397 l -32.69842,7.439 z"
       id="path3646"
       stroke-width="1px"
       stroke="#000000"
       fill="#ffffff" />
    <path
       d="m 343.84784,244.00018 -6.84784,-51 4.1087,-1.5 16.43476,-3 5.4783,3 h 8.21738 l 8.2174,-3 13.69562,-10.5 4.1087,9 2.73914,19.5 -1.36957,16.5 -2.73913,6 -8.21738,5.99999 v 6.00001 l -4.1087,1.50002 -1.36957,6 -1.36957,4.49998 h -5.47824 l -4.10871,-4.49998 -2.73913,3 h -8.21738 l -1.36957,-1.50002 h -5.47827 l -2.73913,-4.49998 z"
       id="path3648"
       stroke-width="1px"
       stroke="#000000"
       fill="#ffffff" />
    <path
       d="m 379,254.04565 v 6.27271 l 3.97958,6.27273 11.93879,9.40909 7.95919,-1.56817 3.97959,-3.13636 6.63266,-4.70456 v -9.40908 l 2.65304,-4.70456 1.32654,-6.27271 6.63266,-4.70456 3.97959,-6.27273 5.30612,-7.84091 -1.32654,-4.70453 5.30612,-1.56818 3.97959,3.13635 2.65307,-3.13635 -2.65307,-1.56821 -2.65305,-4.70453 h -5.30612 l -1.32654,3.13636 -5.30612,1.56817 -6.63266,9.40912 -2.65305,-10.97729 -14.59183,1.56817 -2.65307,-12.54544 -1.32654,15.68183 -2.65305,6.27273 -7.95919,6.27271 v 6.27273 l -3.97959,1.56818 -2.65304,10.97729 z"
       id="path3650"
       stroke-width="1px"
       stroke="#000000"
       fill="#ffffff" />
    <path
       d="m 367,295.90491 c 2.74698,1.59372 30.21686,-4.78116 30.21686,-4.78116 L 464.51813,276.78027 481,270.4054 l -2.74701,-6.37482 h -6.86749 l -4.12039,-4.78119 2.74691,-4.78116 -4.12045,-6.37488 4.12045,-1.59369 -5.49389,-4.78118 -6.86746,-3.18741 -4.12058,-3.18741 v -3.18744 l 1.37354,-3.18747 -1.37354,-4.78114 -6.8674,-1.59372 -1.37353,-1.5937 -2.74704,3.18742 -4.12036,-3.18742 -5.49408,1.5937 1.37347,4.78117 -9.61441,14.34342 -6.86746,4.78119 -1.37348,6.37484 -2.74694,4.78116 v 9.56232 l -10.98801,7.9686 -8.24094,1.59368 -5.49399,-4.78115 -13.73498,17.53091 z"
       id="path3652"
       stroke-width="1px"
       stroke="#000000"
       fill="#ffffff" />
    <path
       d="m 490,234.00018 -2,7.5 v 7.5 l 6,-6 v -7.5 z"
       id="path3654"
       stroke-width="1px"
       stroke="#000000"
       fill="#ffffff" />
    <path
       d="m 397.45163,291.35733 67.96774,-14.78571 16.64515,-6.57144 1.38708,4.92859 -2.77417,4.92853 -5.5484,3.28573 v 1.64286 h 8.32257 l 4.16128,1.64285 1.38712,4.92859 -2.7742,3.28574 -11.09677,3.28567 1.38708,3.28574 4.16132,4.92855 v 4.92859 l -6.93549,3.28568 -2.77423,3.28573 -8.32254,9.85718 v 6.57138 l -4.16128,1.64289 -6.93552,3.2857 h -2.77417 l -12.48389,-13.14285 -5.54837,-1.64285 -9.70968,1.64285 -2.77417,3.28574 h -4.16132 v -4.92859 l -2.7742,-3.28574 -4.16128,1.64288 h -13.87094 l -6.93549,3.28571 -8.3226,6.57141 H 360 v -4.92853 l 5.5484,-6.57147 6.93549,-3.28571 9.70969,-9.85711 4.16128,-1.64289 8.32254,-6.57144 2.77423,-3.2857 z"
       id="path3656"
       stroke-width="1px"
       stroke="#000000"
       fill="#ffffff" />
    <path
       d="m 379,331.39041 v 5.36591 l 2.74075,2.68286 h 4.11109 l 6.8518,8.0488 16.44452,13.41464 4.11109,4.02438 1.37039,4.02439 4.11111,4.02441 2.7407,4.02438 h 2.74081 l 1.3703,-6.70733 1.37045,-2.68289 h 5.48145 l 4.11108,-4.02439 v -4.02438 l 4.11112,-4.02442 4.11108,-2.68292 v -5.36587 l 4.11118,-5.36585 L 453,336.75632 h -4.11108 l -12.33338,-10.73175 -5.48144,-1.34143 -9.59265,1.34143 -2.7407,2.68295 h -4.11111 v -4.02438 l -2.74072,-2.68296 -4.11118,1.34143 H 394.0741 l -6.85184,2.68296 z"
       id="path3658"
       stroke-width="1px"
       stroke="#000000"
       fill="#ffffff" />
    <path
       d="m 355,334.55948 3.10345,-1.18643 11.37934,-2.37287 h 13.44824 v 4.74576 L 385,338.11883 h 3.10345 l 5.1724,7.11863 15.51727,15.42373 1.03446,3.55933 3.10345,3.55933 2.06897,3.55935 -1.03448,3.5593 -2.06897,3.5593 v 15.42373 h -6.20688 l -1.03449,5.93219 h -9.31036 l -23.79312,1.18646 -3.1034,-3.55929 -2.06897,-13.05088 2.06897,-7.11868 -8.27591,-22.5423 z"
       id="path3660"
       stroke-width="1px"
       stroke="#000000"
       fill="#ffffff" />
    <path
       d="M 337.2121,411.05496 334,401.95908 l 13.91919,-2.27396 18.20202,-2.27399 3.21216,3.41098 24.62625,-1.13699 h 9.63636 l 1.07064,-5.68494 h 6.42432 l 4.28281,14.78083 9.63635,13.64382 1.07071,6.82193 10.70709,15.91779 2.14139,3.41098 1.07071,22.73972 -2.14139,4.54794 -6.42426,1.13699 -3.21215,-1.13699 -5.35352,-6.8219 -5.35348,-1.13699 -2.14145,-7.95893 -2.14142,-1.13696 -1.07071,-4.54794 h -3.2121 l -3.21219,-5.68494 v -6.82193 l -1.07071,-2.27395 h -3.21209 l -2.14139,1.13696 -1.07071,-3.41095 2.14139,-3.41095 v -9.09589 l -8.56561,-5.68493 -7.495,-6.82193 -6.42425,-1.137 -8.56559,9.09592 -4.28289,-1.13699 -4.28284,-7.95893 -7.49491,-1.13696 -3.21212,-1.13699 z"
       id="path3662"
       stroke-width="1px"
       stroke="#000000"
       fill="#ffffff" />
    <path
       d="m 322,338.76489 c 2.29269,0 18.34146,-2.38235 18.34146,-2.38235 l 13.7561,-2.38236 5.73169,20.25 9.17075,22.63236 -2.29269,7.14706 2.29269,13.10294 -34.39023,4.76471 3.439,9.52938 -5.73169,3.57355 h -6.87805 l -2.2927,-29.77942 z"
       id="path3664"
       stroke-width="1px"
       stroke="#000000"
       fill="#ffffff" />
    <path
       d="m 312.89474,422.00018 1.21051,-2.37683 h 8.4737 L 325,416.05814 l -2.42105,-29.71015 -1.21054,-46.34781 -26.63156,1.18842 -4.8421,3.56522 v 7.13043 l -7.26319,10.69565 1.21054,17.82607 3.63159,4.75364 -1.21054,3.56521 -4.8421,4.75363 L 279,402.98569 v 4.7536 l 18.1579,-1.18839 6.05264,-1.18838 1.21051,7.13043 2.42105,1.18839 2.42105,5.94201 z"
       id="path3666"
       stroke-width="1px"
       stroke="#000000"
       fill="#ffffff" />
    <path
       d="M 274,345.00018 V 333.1214 l 2.72522,-5.09091 2.72531,-8.48487 1.36264,-6.78787 2.72528,-3.39392 h 17.71436 l 9.53839,-3.39395 19.0769,-3.39392 21.80222,-3.39398 12.26376,-1.69693 4.08792,-3.39392 h 1.36258 L 398,289.00018 v 5.09095 l -10.9011,10.18182 -4.08792,1.69693 -9.53845,10.18182 -6.8132,3.39393 -5.45053,6.7879 v 5.09088 l -14.98902,3.39398 -4.08795,1.69696 -38.15384,6.78784 z"
       id="path3672"
       stroke-width="1px"
       stroke="#000000"
       fill="#ffffff" />
    <path
       d="m 283,308.00018 2.71796,-4.60977 v -7.68289 l 1.35894,-3.07318 h 6.7949 l 6.79486,-12.29267 1.35898,-3.07318 12.23077,-1.53662 8.15384,-1.53656 v -4.60974 h 2.71796 l 2.71795,3.07312 2.71796,-1.53656 1.35895,-6.14636 4.07693,-6.1463 v -3.0732 h 5.43589 l 2.71795,-3.07316 v -7.68293 l 6.79486,1.53656 2.71796,4.60981 h 5.43588 l 1.35898,1.53656 h 8.15387 l 2.71796,-3.07318 4.07693,4.60975 h 2.71793 v 6.14635 l 4.07693,6.14636 6.79487,4.60974 -13.58973,16.90247 -12.23077,9.21948 -53,7.68295 -9.51285,3.07315 h -17.66665 z"
       id="path3674"
       stroke-width="1px"
       stroke="#000000"
       fill="#ffffff" />
    <path
       d="m 300,281.00018 v -10.807 l 4.125,-7.71933 1.375,-6.17542 -1.375,-3.08774 v -6.17543 l 1.375,-4.63157 -1.375,-1.54387 v -10.80701 l -1.375,-4.63156 -1.375,-9.26317 v -16.98245 h 6.875 l 2.75,-3.08772 12.375,-3.08773 h 13.75 L 344,245.49142 v 7.71927 l -2.75,3.08774 h -5.5 v 3.08771 l -4.125,6.17544 -1.375,6.17545 -2.75,1.54388 -2.75,-3.08773 H 322 v 4.63153 l -8.25,1.54388 -12.375,1.54389 z"
       id="path3676"
       stroke-width="1px"
       stroke="#000000"
       fill="#ffffff" />
    <path
       d="m 315.44321,195.06052 10.2641,-2.60198 h 11.70733 l 3.51218,-1.26286 14.04877,-2.52577 v -7.57729 L 362,172.25247 v -7.57728 l -2.34149,-5.05152 -2.34143,-10.10302 -2.3415,-2.52576 -2.34146,2.52576 -7.02435,8.84014 -2.34146,-1.26287 -1.17072,-3.78865 4.6829,-7.57726 1.17074,-1.26289 v -7.57729 l -2.34146,-2.52576 v -5.05149 l -3.51218,-1.26288 -4.68295,-1.26288 -5.85364,-3.78864 h -2.34149 l -3.51221,2.52578 v 5.05151 l -1.17071,1.26286 -1.17071,5.0515 -1.17078,3.78865 h -4.68292 l -1.17069,2.52576 v 6.31441 L 314,154.57216 v 8.84016 l 2.34149,5.0515 2.34143,3.78865 v 3.78864 8.84015 l -2.34143,5.05153 z"
       id="path3678"
       stroke-width="1px"
       stroke="#000000"
       fill="#ffffff" />
    <path
       d="m 291.17242,141.00018 -1.27588,-5.6 -1.27584,-4.2 -6.37931,-5.6 h -7.65518 l -1.27588,-1.4 -10.20688,-1.39999 -5.10345,-7 11.48276,-5.60001 11.48275,-11.199997 2.55173,1.399997 -3.82757,5.6 v 4.2 l 7.65515,-1.39999 6.37933,5.59999 h 8.93103 l 3.82758,-4.2 11.48275,-4.2 1.27588,4.2 h 3.82758 l 7.65518,-1.4 1.27585,5.6 -1.27585,4.2 -10.20691,1.4 -3.82757,-1.4 -6.37934,4.2 h -5.10342 l -2.55173,4.2 -3.8276,1.4 z"
       id="path3680"
       stroke-width="1px"
       stroke="#000000"
       fill="#ffffff" />
    <path
       d="m 293.53076,194.23976 c -0.23987,-0.17059 -33.62167,2.76044 -33.62167,2.76044 l -6.18184,-4.39655 -2.4727,-2.93104 V 179.414 l -1.23636,-8.79311 -11.12729,-11.72415 -7.41817,-2.93101 -1.23636,-16.1207 -1.23637,-1.46551 1.23637,-5.86208 4.94545,-2.93105 v -11.72411 l 3.70908,-2.93105 7.41818,-2.93105 3.70911,1.46552 8.65454,1.46553 4.94543,7.3276 9.89093,1.46552 1.23636,1.46551 h 7.41818 l 6.1818,5.86206 2.47278,14.65517 -2.47278,2.93105 v 5.86206 l 4.94546,-5.86206 3.70911,-5.86209 -1.23636,7.3276 -1.23639,10.25861 -2.47272,5.86209 z"
       id="path3682"
       stroke-width="1px"
       stroke="#000000"
       fill="#ffffff" />
    <path
       d="m 293.86047,195.00017 8.09302,14.81334 v 14.81334 l 1.34885,8.08 1.34881,4.04001 v 9.42666 l 1.34885,1.34667 -1.34885,4.04001 v 5.38664 L 306,259.6402 l -1.34885,5.38665 -4.04651,6.73334 v 8.08002 l -6.74417,12.11996 h -6.7442 l -1.34881,2.69333 -1.34885,1.34668 h -2.69769 l -4.04651,-12.11999 -2.69766,-4.03998 -6.74421,-1.34668 -2.69766,-4.04001 1.34885,-2.69333 v -8.08002 l -5.39536,-1.34664 -1.34884,-4.04001 -10.7907,-9.42667 L 248,236.74686 l 1.34883,-4.04001 4.04651,-5.38666 1.34885,-4.04003 -2.69768,-1.34666 1.34883,-2.69333 6.74419,-4.04001 4.04651,-6.73332 v -2.69334 l -6.74418,-8.07999 z"
       id="path3684"
       stroke-width="1px"
       stroke="#000000"
       fill="#ffffff" />
  </g>
  <text
     xml:space="preserve"
     style="font-size:40px;line-height:1.25;font-family:Barlow;-inkscape-font-specification:Barlow;text-align:center;text-anchor:middle;font-weight:normal;font-style:normal;font-stretch:normal;font-variant:normal;"
     x="389.04761"
     y="272.38095"
     id="text869"><tspan
       sodipodi:role="line"
       x="389.04761"
       y="272.38095"
       id="tspan871" /></text>
  <text
     xml:space="preserve"
     style="font-style:normal;font-variant:normal;font-weight:bold;font-stretch:normal;font-size:42.66666667px;line-height:1.05;font-family:Barlow;-inkscape-font-specification:'Barlow Bold';text-align:center;text-anchor:middle;fill:#ffffff;fill-opacity:1;stroke:#000000;stroke-opacity:1;"
     x="-82.729164"
     y="432.31509"
     id="text877"
     transform="rotate(-63.427519)"><tspan
       sodipodi:role="line"
       id="tspan875"
       x="-82.729156"
       y="432.31509">East Coast</tspan><tspan
       sodipodi:role="line"
       x="-82.729164"
       y="463.11505"
       id="tspan879">North America</tspan></text>
</svg>
