<?xml version="1.0" encoding="UTF-8" standalone="no"?>
<svg
   xmlns:dc="http://purl.org/dc/elements/1.1/"
   xmlns:cc="http://creativecommons.org/ns#"
   xmlns:rdf="http://www.w3.org/1999/02/22-rdf-syntax-ns#"
   xmlns:svg="http://www.w3.org/2000/svg"
   xmlns="http://www.w3.org/2000/svg"
   xmlns:sodipodi="http://sodipodi.sourceforge.net/DTD/sodipodi-0.dtd"
   xmlns:inkscape="http://www.inkscape.org/namespaces/inkscape"
   width="250.32159mm"
   height="90.664948mm"
   viewBox="0 0 250.32159 90.664947"
   version="1.1"
   id="svg2144"
   inkscape:version="1.0.2-2 (e86c870879, 2021-01-15)"
   sodipodi:docname="mountain.svg">
  <defs
     id="defs2138" />
  <sodipodi:namedview
     id="base"
     pagecolor="#ffffff"
     bordercolor="#666666"
     borderopacity="1.0"
     inkscape:pageopacity="0.0"
     inkscape:pageshadow="2"
     inkscape:zoom="1.4"
     inkscape:cx="542.36072"
     inkscape:cy="110.22902"
     inkscape:document-units="mm"
     inkscape:current-layer="layer1"
     inkscape:document-rotation="0"
     showgrid="false"
     fit-margin-top="0"
     fit-margin-left="0"
     fit-margin-right="0"
     fit-margin-bottom="0"
     inkscape:window-width="2467"
     inkscape:window-height="1406"
     inkscape:window-x="-11"
     inkscape:window-y="-11"
     inkscape:window-maximized="1" />
  <metadata
     id="metadata2141">
    <rdf:RDF>
      <cc:Work
         rdf:about="">
        <dc:format>image/svg+xml</dc:format>
        <dc:type
           rdf:resource="http://purl.org/dc/dcmitype/StillImage" />
        <dc:title></dc:title>
      </cc:Work>
    </rdf:RDF>
  </metadata>
  <g
     inkscape:label="Layer 1"
     inkscape:groupmode="layer"
     id="layer1"
     transform="translate(20.834038,-41.214516)">
    <path
       style="fill:#000000;stroke-width:0.241905"
       d="m 188.30376,131.7508 c -0.393,-0.058 -0.93429,-0.25945 -1.20287,-0.44757 -0.26857,-0.18811 -0.63464,-0.34203 -0.81349,-0.34203 -0.17884,0 -0.69422,-0.28148 -1.14528,-0.62552 -1.44102,-1.09912 -2.56572,-1.53429 -4.39342,-1.69992 -0.98058,-0.0889 -1.8407,-0.25512 -1.91138,-0.36948 -0.0707,-0.11436 -0.54418,-0.20793 -1.05223,-0.20793 -0.52597,0 -1.05339,-0.15625 -1.22486,-0.36286 -0.16563,-0.19957 -0.43635,-0.36286 -0.60161,-0.36286 -0.16525,0 -0.66899,-0.32483 -1.11942,-0.72185 -0.45044,-0.39701 -0.94036,-0.72359 -1.08873,-0.72571 -0.14837,-0.002 -0.54654,-0.22158 -0.88482,-0.48768 -0.33829,-0.26609 -0.76942,-0.4838 -0.95808,-0.4838 -0.41183,0 -1.39496,-0.9986 -1.39496,-1.41691 0,-0.16344 -0.48986,-0.82085 -1.08857,-1.46093 -0.59872,-0.64007 -1.08857,-1.38408 -1.08857,-1.65335 0,-0.26926 -0.16329,-0.62509 -0.36286,-0.79072 -0.19957,-0.16563 -0.36286,-0.4922 -0.36286,-0.72571 0,-0.23352 -0.16328,-0.56009 -0.36286,-0.72572 -0.19957,-0.16563 -0.36285,-0.4467 -0.36285,-0.62461 0,-0.43505 -1.82754,-2.27825 -2.2589,-2.27825 -0.18855,0 -0.47252,-0.15628 -0.63105,-0.3473 -0.15854,-0.19102 -0.60729,-0.41739 -0.99724,-0.50303 -0.46346,-0.1018 -0.709,-0.30636 -0.709,-0.59069 0,-0.23924 -0.16329,-0.57049 -0.36286,-0.73612 -0.2383,-0.19777 -0.36286,-0.7375 -0.36286,-1.57238 0,-0.83488 -0.12455,-1.37461 -0.36285,-1.57238 -0.19958,-0.16563 -0.36286,-0.48287 -0.36286,-0.70497 0,-0.50594 -1.78971,-2.25309 -2.85933,-2.79132 l -0.80313,-0.40413 -1.94498,1.95021 c -1.06974,1.07261 -2.08293,1.95021 -2.25153,1.95021 -0.1686,0 -0.44207,0.16329 -0.6077,0.36286 -0.16563,0.19957 -0.56337,0.36285 -0.88388,0.36285 -0.3205,0 -0.64539,0.16329 -0.72197,0.36286 -0.0766,0.19957 -0.30857,0.36286 -0.51552,0.36286 -1.09951,0 -7.07101,5.11398 -7.07101,6.0556 0,0.2095 -0.381,0.7502 -0.84666,1.20154 -0.46567,0.45134 -0.84667,0.99738 -0.84667,1.21341 0,0.21603 -0.32657,0.75857 -0.72572,1.20564 -0.39914,0.44707 -0.72571,1.01096 -0.72571,1.25309 0,0.24213 -0.10122,0.44024 -0.22493,0.44024 -0.12372,0 -0.46561,0.4819 -0.75977,1.0709 -0.32969,0.66014 -0.74627,1.12396 -1.08611,1.20925 -0.60205,0.15111 -2.52538,1.93806 -2.52538,2.34632 0,0.34521 -1.48371,2.38877 -1.73434,2.38877 -0.33305,0 -0.21081,-1.29703 0.16965,-1.80004 0.19534,-0.25827 0.35517,-0.71448 0.35517,-1.01382 0,-0.29934 0.11996,-0.6184 0.26658,-0.70901 0.14663,-0.0906 0.42023,-0.53247 0.60801,-0.9819 0.18778,-0.44942 0.45886,-0.81713 0.6024,-0.81713 0.46527,0 1.47232,-0.94052 1.93861,-1.81052 0.60588,-1.13043 0.61204,-2.70319 0.0113,-2.89385 -0.89198,-0.2831 -5.5786,2.44754 -7.70238,4.48776 -0.77621,0.74567 -1.65578,1.43336 -1.95459,1.5282 -0.29881,0.0948 -0.5433,0.32839 -0.5433,0.51899 0,0.3953 -0.8457,1.31418 -1.20952,1.31418 -0.13305,0 -0.24191,-0.21772 -0.24191,-0.48381 0,-0.2661 0.11156,-0.48381 0.2479,-0.48381 0.13634,0 0.34696,-0.26058 0.46805,-0.57907 0.32907,-0.8655 3.14366,-3.77522 3.6518,-3.77522 0.24299,0 0.51594,-0.11996 0.60656,-0.26658 0.0906,-0.14663 0.50525,-0.42457 0.92142,-0.61766 0.41616,-0.19308 1.62751,-0.83773 2.69189,-1.43256 1.06439,-0.59483 2.26181,-1.24379 2.66096,-1.44215 0.6913,-0.34355 1.03693,-0.53054 1.99571,-1.07972 0.23283,-0.13337 0.67998,-0.35284 0.99366,-0.48772 0.31368,-0.13489 1.69918,-1.38648 3.0789,-2.78133 1.37972,-1.39485 2.7015,-2.53659 2.93729,-2.53721 0.2358,-7.2e-4 0.7766,-0.32718 1.20179,-0.72571 0.42519,-0.39853 0.91914,-0.7246 1.09767,-0.7246 0.17852,0 0.86069,-0.54428 1.51593,-1.20952 0.65523,-0.66524 1.34552,-1.20952 1.53397,-1.20952 0.18844,0 0.74537,-0.35379 1.23761,-0.78619 0.49224,-0.43241 1.68415,-1.43338 2.64868,-2.22438 0.96454,-0.79101 2.07559,-1.8864 2.469,-2.43421 0.3934,-0.54781 1.25293,-1.39741 1.91006,-1.888 0.99341,-0.741652 1.38949,-0.890732 2.35011,-0.884552 1.11037,0.007 1.22593,0.0777 2.96961,1.812242 0.99786,0.99264 1.98167,1.80573 2.18624,1.80685 0.20457,10e-4 0.90805,0.54633 1.56329,1.21157 0.65523,0.66524 1.33792,1.20952 1.51709,1.20952 0.17916,0 1.18376,0.65315 2.23243,1.45143 1.18115,0.89914 2.14223,1.45143 2.52572,1.45143 0.34047,0 0.61904,-0.0972 0.61904,-0.21602 0,-0.41633 0.79962,-0.51779 1.20308,-0.15267 0.29013,0.26257 0.93915,0.36869 2.25477,0.36869 1.68822,0 1.90631,0.0573 2.53141,0.66524 1.63212,1.58726 3.56373,3.20524 3.82655,3.20524 0.15672,0 0.42047,0.16328 0.5861,0.36285 0.16563,0.19958 0.4922,0.36286 0.72571,0.36286 0.23351,0 0.56008,0.16329 0.72571,0.36286 0.16563,0.19957 0.49221,0.36286 0.72572,0.36286 0.23351,0 0.56008,0.16328 0.72571,0.36285 0.16563,0.19957 0.65414,0.36286 1.08557,0.36286 0.43143,0 1.0612,0.21771 1.39949,0.48381 0.33828,0.2661 0.78839,0.48381 1.00024,0.48381 0.21185,0 0.38862,0.1905 0.39282,0.42333 0.0105,0.58269 0.92594,1.54071 2.00239,2.09559 0.9488,0.48909 2.23825,1.63498 3.4362,3.05364 0.82476,0.97672 2.83463,2.6522 3.18152,2.6522 0.12771,0 0.54508,0.32657 0.92749,0.72572 0.3824,0.39914 0.86225,0.72571 1.06633,0.72571 0.50468,0 3.167,2.66635 3.167,3.17179 0,0.22276 0.16328,0.46768 0.36286,0.54426 0.39766,0.1526 0.50468,0.88014 0.12946,0.88014 -0.12837,0 -0.34991,-0.21771 -0.49232,-0.48381 -0.14241,-0.26609 -0.44969,-0.48381 -0.68285,-0.48381 -0.23315,0 -0.96001,-0.54428 -1.61525,-1.20952 -0.65523,-0.66524 -1.30839,-1.20953 -1.45147,-1.20953 -0.14307,0 -0.63702,-0.32214 -1.09766,-0.71588 -0.46065,-0.39374 -1.0147,-0.72031 -1.23125,-0.72571 -0.21654,-0.005 -0.52922,-0.17312 -0.69485,-0.37269 -0.17025,-0.20514 -0.69761,-0.36286 -1.21327,-0.36286 -1.10556,0 -1.36829,0.471 -0.84634,1.51727 0.36772,0.73711 0.49006,1.62749 0.22362,1.62749 -0.26718,0 -1.05075,-1.0872 -1.05882,-1.46911 -0.004,-0.2093 -0.55359,-0.96468 -1.22036,-1.67863 -0.66677,-0.71395 -1.52115,-1.63128 -1.89862,-2.03851 -0.98389,-1.06146 -1.97458,-1.82805 -2.85967,-2.2128 -0.42331,-0.18401 -0.83399,-0.43867 -0.91262,-0.56591 -0.0786,-0.12723 -0.65758,-0.46582 -1.28655,-0.75242 -0.62896,-0.2866 -1.45174,-0.67401 -1.82841,-0.8609 -0.37666,-0.1869 -0.84272,-0.33981 -1.03568,-0.33981 -0.19297,0 -0.41351,-0.16329 -0.49009,-0.36286 -0.0766,-0.19957 -0.40315,-0.36286 -0.72571,-0.36286 -0.32256,0 -0.64913,-0.16328 -0.72572,-0.36285 -0.0766,-0.19958 -0.29814,-0.36286 -0.49236,-0.36286 -0.19421,0 -0.73582,-0.29191 -1.20359,-0.64869 -1.0075,-0.76846 -3.17492,-1.56185 -3.77391,-1.38145 -0.23283,0.0701 -0.42333,0.30294 -0.42333,0.51736 0,0.55372 0.55623,2.07229 0.86422,2.35945 0.14271,0.13304 0.84481,1.0039 1.56024,1.93523 1.16838,1.521 5.55291,6.03502 9.97542,10.27004 0.89683,0.85881 1.63059,1.64962 1.63059,1.75737 0,0.10774 -0.35378,0.4116 -0.78619,0.67525 -0.75159,0.45825 -1.59913,0.53869 -3.19408,0.30313 z m -81.4121,-1.82684 c 0,-0.17134 0.92715,-1.16006 2.06033,-2.19716 1.13319,-1.0371 2.22594,-2.20588 2.42834,-2.59729 0.20241,-0.3914 0.39031,-1.44909 0.41756,-2.35042 0.0482,-1.5931 0.0243,-1.66476 -0.85595,-2.57115 -0.49804,-0.51281 -0.90552,-1.12007 -0.90552,-1.34946 0,-0.2294 -0.16328,-0.5526 -0.36285,-0.71823 -0.19958,-0.16563 -0.36286,-0.59358 -0.36286,-0.951 0,-0.35742 -0.15982,-0.86117 -0.35517,-1.11943 -0.19533,-0.25826 -0.35862,-0.64044 -0.36285,-0.84928 -0.009,-0.43464 -1.0707,-1.43457 -1.52346,-1.43457 -1.06674,0 -5.25757,-3.69571 -5.25757,-4.63642 0,-0.18476 -0.14718,-0.55066 -0.32707,-0.81309 -0.17988,-0.26244 -0.3951,-1.18473 -0.47826,-2.04954 -0.0832,-0.86481 -0.25843,-2.47615 -0.3895,-3.58076 -0.13106,-1.10461 -0.25242,-2.900762 -0.26967,-3.991435 -0.0172,-1.090676 -0.0809,-2.201275 -0.14143,-2.467997 -0.14991,-0.660514 -1.805747,-1.571241 -2.856757,-1.571241 -0.61595,0 -0.85921,-0.106492 -0.85921,-0.376128 0,-0.871888 -1.04612,-2.557877 -2.22931,-3.592906 -1.16719,-1.021034 -1.37396,-1.110967 -2.554272,-1.110967 -0.89935,0 -1.41211,0.126879 -1.7108,0.423334 -0.64952,0.644642 -1.97229,2.403191 -1.97229,2.622052 0,0.33144 -1.28221,1.550805 -1.63073,1.550805 -0.18188,0 -1.40848,1.045832 -2.72576,2.324071 -2.20162,2.13636 -3.38446,3.725862 -3.38446,4.548052 0,0.17918 -0.16328,0.4613 -0.36286,0.62693 -0.19957,0.16563 -0.36285,0.5133 -0.36285,0.77261 0,0.25931 -0.16329,0.63476 -0.36286,0.83433 -0.19957,0.19957 -0.36286,0.66832 -0.36286,1.04167 0,0.37335 -0.16328,0.81433 -0.36285,0.97996 -0.19958,0.16563 -0.36286,0.54663 -0.36286,0.84667 0,0.30003 -0.16329,0.68103 -0.36286,0.84666 -0.19957,0.16563 -0.36286,0.53916 -0.36286,0.83006 0,0.29089 -0.15982,0.74021 -0.355161,0.99847 -0.195338,0.25826 -0.358624,0.70117 -0.362857,0.98423 -0.0042,0.28307 -0.170978,0.65018 -0.37055,0.81581 -0.199571,0.16563 -0.362857,0.49221 -0.362857,0.72572 0,0.23351 -0.163285,0.56008 -0.362857,0.72571 -0.199571,0.16563 -0.362857,0.54663 -0.362857,0.84667 0,0.30004 -0.163286,0.68104 -0.362857,0.84667 -0.199571,0.16563 -0.363007,0.42388 -0.363191,0.5739 -3.82e-4,0.31113 -1.734295,2.32895 -2.001271,2.32895 -0.09655,0 -0.175538,-0.16328 -0.175538,-0.36285 0,-0.19958 0.105669,-0.36286 0.234817,-0.36286 0.129151,0 0.517028,-0.59654 0.86195,-1.32565 0.34492,-0.7291 0.729111,-1.38867 0.853752,-1.4657 0.124644,-0.077 0.226624,-0.38497 0.226624,-0.68431 0,-0.29934 0.159824,-0.75556 0.355164,-1.01382 0.195339,-0.25826 0.358624,-0.85698 0.362858,-1.33048 0.0042,-0.4735 0.167516,-1.07221 0.362857,-1.33047 0.195338,-0.25826 0.358623,-0.70117 0.362857,-0.98424 0.0042,-0.28306 0.170978,-0.65018 0.370549,-0.81581 0.199572,-0.16563 0.362858,-0.4255 0.362858,-0.57748 0,-0.15199 0.217714,-0.68256 0.48381,-1.17903 0.26609,-0.49648 0.48381,-1.10747 0.48381,-1.35775 0,-0.25029 0.16328,-0.59058 0.36286,-0.75621 0.19957,-0.16563 0.36285,-0.4922 0.36285,-0.72572 0,-0.23351 0.16329,-0.56008 0.36286,-0.72571 0.19957,-0.16563 0.36286,-0.66239 0.36286,-1.10392 0,-0.44152 0.11194,-0.871952 0.24877,-0.956512 0.13682,-0.0846 0.38174,-0.46159 0.54428,-0.837846 0.16254,-0.376252 1.6018,-2.057209 3.19838,-3.735462 1.59657,-1.678253 3.07902,-3.374724 3.29433,-3.769939 0.21532,-0.395211 0.53855,-0.895773 0.7183,-1.112357 0.41634,-0.501663 0.6373,-5.097459 0.26307,-5.47169 -0.27905,-0.279052 -1.7357,0.183567 -1.7357,0.551243 0,0.10794 -0.24493,0.272554 -0.54429,0.365808 -0.29936,0.09325 -0.92572,0.454375 -1.39191,0.802492 -1.05497,0.787775 -1.70751,1.200866 -2.17619,1.377648 -0.19957,0.07528 -0.52614,0.240057 -0.72571,0.366181 -0.19957,0.126122 -0.7092,0.38876 -1.13251,0.583641 -0.4233,0.194881 -0.83794,0.464837 -0.92142,0.5999 -0.0835,0.135063 -0.34973,0.245569 -0.59168,0.245569 -0.24195,0 -0.57543,0.163286 -0.74106,0.362858 -0.16563,0.199571 -0.548307,0.362857 -0.850403,0.362857 -0.302093,0 -0.611917,0.163285 -0.688502,0.362857 -0.07658,0.199571 -0.262447,0.362857 -0.413033,0.362857 -0.150585,0 -1.433072,1.01435 -2.849974,2.25411 -1.416899,1.239762 -2.90275,2.45661 -3.301893,2.70411 -1.037539,0.643353 -2.54,2.100726 -2.54,2.463771 0,0.169711 -1.197428,1.569964 -2.660952,3.111664 -1.463523,1.54171 -2.660952,3.00029 -2.660952,3.2413 0,0.241 -0.163286,0.5737 -0.362857,0.73933 -0.20259,0.16814 -0.362857,0.69545 -0.362857,1.19389 0,0.67616 -0.176061,1.06142 -0.725714,1.58802 -0.399143,0.3824 -0.725715,0.82487 -0.725715,0.98326 0,0.15838 -0.163285,0.42349 -0.362857,0.58912 -0.250985,0.2083 -0.362857,0.76254 -0.362857,1.79767 0,0.94135 -0.131758,1.67072 -0.355164,1.96609 -0.195338,0.25827 -0.358624,0.92444 -0.362857,1.48039 -0.0042,0.55595 -0.143764,1.15632 -0.310074,1.33417 -0.166309,0.17784 -0.520095,0.75091 -0.78619,1.27349 -0.266095,0.52258 -0.837595,1.37486 -1.27,1.89396 -0.432405,0.5191 -0.789652,1.17844 -0.793883,1.46521 -0.0042,0.28677 -0.167519,0.73271 -0.362857,0.99097 -0.195341,0.25826 -0.355165,0.75184 -0.355165,1.09683 0,0.81973 -2.512737,3.4021 -2.738327,2.81422 -0.07919,-0.20636 0.01468,-0.53385 0.208606,-0.72777 0.193918,-0.19392 0.352579,-0.50926 0.352579,-0.70076 0,-0.1915 0.381,-1.09216 0.846666,-2.00148 0.465667,-0.90931 0.846667,-1.78122 0.846667,-1.93757 0,-0.15635 0.163285,-0.41979 0.362857,-0.58542 0.199571,-0.16563 0.366319,-0.53274 0.37055,-0.81581 0.0042,-0.28307 0.167519,-0.72597 0.362857,-0.98423 0.197464,-0.26108 0.355164,-0.98392 0.355164,-1.62797 0,-0.63711 0.153936,-1.56881 0.342083,-2.07043 0.506345,-1.34999 0.698245,-4.54198 0.293268,-4.87808 -0.444345,-0.36877 -1.666477,0.0808 -2.642255,0.97209 -0.41903,0.38272 -0.908551,0.69586 -1.087827,0.69586 -0.509395,0 -5.638772,5.10805 -6.012138,5.98714 -0.206584,0.48641 -0.505859,0.78619 -0.784853,0.78619 -0.248017,0 -0.586456,0.16329 -0.752086,0.36286 -0.16563,0.19957 -0.488657,0.36286 -0.717843,0.36286 -0.229183,0 -0.613724,0.21771 -0.854538,0.48381 -0.240814,0.26609 -0.571335,0.48381 -0.734495,0.48381 -0.16316,0 -0.598253,0.40821 -0.966874,0.90714 -1.493842,2.02191 -2.336203,2.72143 -3.277151,2.72143 -0.495027,0 -1.022346,0.16078 -1.190051,0.36285 -0.16563,0.19958 -0.469745,0.36286 -0.675809,0.36286 -0.206067,0 -0.546523,0.15207 -0.756572,0.33794 -0.454614,0.40228 -3.682508,0.62866 -3.804583,0.26682 -0.119644,-0.35462 1.29457,-1.08857 2.097529,-1.08857 0.380509,0 0.760133,-0.11051 0.843604,-0.24557 0.08347,-0.13506 0.543626,-0.4093 1.022558,-0.60941 0.487753,-0.20379 2.036229,-1.54228 3.520297,-3.04291 1.45723,-1.47349 2.962934,-2.78834 3.346005,-2.92188 0.383073,-0.13354 0.696494,-0.341 0.696494,-0.46104 0,-0.12003 0.184312,-0.21824 0.409584,-0.21824 0.406051,0 3.218987,-2.7699 3.218987,-3.16974 0,-0.11447 0.381,-0.60045 0.846667,-1.07996 0.465667,-0.47951 0.846667,-1.01244 0.846667,-1.1843 0,-0.17186 0.163285,-0.44799 0.362857,-0.61362 0.199571,-0.16563 0.362857,-0.47236 0.362857,-0.68162 0,-0.51568 1.201729,-1.73742 1.708972,-1.73742 0.224911,0 0.544445,-0.16329 0.710075,-0.36286 0.16563,-0.19957 0.593581,-0.36286 0.951005,-0.36286 0.357422,0 0.861164,-0.15982 1.119426,-0.35516 0.258263,-0.19534 0.64674,-0.35863 0.863283,-0.36286 0.216541,-0.004 0.529227,-0.17098 0.694857,-0.37055 0.16563,-0.19957 0.48104,-0.36286 0.700912,-0.36286 0.495556,0 3.895278,-3.38492 3.895278,-3.87832 0,-0.48443 9.941032,-10.39406 10.426999,-10.39406 0.211052,0 0.580758,-0.217714 0.821572,-0.48381 0.240813,-0.266095 0.624639,-0.483809 0.852946,-0.483809 0.228307,0 1.109506,-0.651561 1.958221,-1.447914 0.848716,-0.796353 1.720289,-1.449496 1.936832,-1.451429 0.216541,-0.0019 0.529227,-0.1668 0.694857,-0.366372 0.16563,-0.199571 0.54663,-0.362857 0.846667,-0.362857 0.300033,0 0.672173,-0.152605 0.826973,-0.339124 0.15479,-0.186515 0.57634,-0.412706 0.93676,-0.502641 0.36042,-0.08994 1.00184,-0.42719 1.42537,-0.74945 0.42352,-0.322261 0.91338,-0.586361 1.08857,-0.586893 0.17518,-4.84e-4 1.34255,-1.034673 2.59414,-2.298095 1.2516,-1.26342 2.45204,-2.29713 2.66767,-2.29713 0.21562,0 0.59054,-0.231835 0.83316,-0.515187 0.38741,-0.452464 0.61823,-0.499125 1.89595,-0.383264 1.22178,0.110787 1.5857,0.258763 2.2718,0.923759 0.44934,0.435513 0.8864,1.016196 0.97125,1.290409 0.0849,0.274214 0.793232,1.12509 1.574182,1.890839 0.79208,0.776674 1.41989,1.605629 1.41989,1.874818 0,0.58047 2.37225,2.992836 3.59871,3.659571 0.48209,0.262078 1.039807,0.566834 1.239377,0.677237 0.19958,0.110405 0.85272,0.426952 1.45143,0.70344 1.92761,0.890171 7.98286,7.429234 7.98286,8.620685 0,0.169911 0.15477,0.437385 0.34395,0.594375 0.18917,0.157 0.41376,0.6987 0.49909,1.203792 0.10899,0.6451 0.4565,1.20571 1.16796,1.8842 0.92272,0.87996 3.15973,2.49152 3.45849,2.49152 0.15689,0 2.15415,1.49404 3.15755,2.36197 1.24688,1.07855 1.42194,1.19876 2.02407,1.38987 0.31619,0.10036 0.72382,0.33139 0.90584,0.51341 0.18202,0.18202 0.49235,0.33094 0.68964,0.33094 0.19728,0 0.70658,0.32607 1.13176,0.72459 1.14979,1.07769 1.95789,0.97785 3.41101,-0.42144 0.65258,-0.62841 1.41034,-1.25415 1.68392,-1.39054 0.27357,-0.13639 0.568,-0.59316 0.65429,-1.01504 0.0863,-0.42188 0.34068,-0.95086 0.56534,-1.17551 0.30073,-0.30074 0.38944,-0.73579 0.33634,-1.64955 l -0.0721,-1.24108 -1.17008,-0.13441 c -0.98535,-0.11318 -1.29799,-0.28504 -1.98029,-1.08857 -0.75409,-0.88806 -1.05802,-1.37407 -1.42872,-2.284642 -0.0812,-0.19957 -0.40765,-0.79829 -0.72535,-1.330478 -0.3177,-0.53219 -0.8189,-1.457476 -1.11378,-2.05619 -0.29488,-0.598714 -0.68591,-1.37751 -0.86896,-1.730657 -0.18305,-0.353147 -0.33628,-0.897433 -0.34051,-1.209524 -0.004,-0.312091 -0.16752,-0.778744 -0.36286,-1.037007 -0.26394,-0.348964 -0.35516,-1.176276 -0.35516,-3.221141 0,-1.513949 -0.11795,-2.97196 -0.26223,-3.24155 -0.14423,-0.269489 -0.32193,-1.323691 -0.3949,-2.342669 -0.11787,-1.646043 -0.33442,-2.386707 -1.07211,-3.666976 -0.11499,-0.199572 -0.27067,-0.526143 -0.34595,-0.725715 -0.3067,-0.813107 -0.53894,-1.092686 -0.97455,-1.173197 -0.54734,-0.101159 -1.54645,-0.978282 -1.54645,-1.357632 0,-0.148142 -0.32215,-0.646239 -0.71589,-1.106879 -0.39373,-0.460642 -0.7203,-0.926435 -0.72571,-1.035098 -0.005,-0.108664 -0.26802,-0.544092 -0.58358,-0.967619 -0.51178,-0.68687 -0.58871,-1.106071 -0.71213,-3.880743 -0.10349,-2.326742 -0.23324,-3.215526 -0.51482,-3.526669 -0.20704,-0.228784 -0.37645,-0.528577 -0.37645,-0.666203 0,-0.252146 -1.7474,-1.89283 -3.12624,-2.935311 -0.40933,-0.309477 -0.74423,-0.758791 -0.74423,-0.998476 0,-0.239684 -0.16329,-0.571305 -0.36286,-0.736935 -0.19957,-0.165629 -0.36671,-0.532744 -0.37143,-0.81581 -0.005,-0.283066 -0.16414,-0.786809 -0.35428,-1.119428 -0.19014,-0.332619 -0.35145,-1.149048 -0.35847,-1.814286 -0.01,-0.935327 -0.13807,-1.328249 -0.56557,-1.733237 -0.75859,-0.718637 -2.58358,-3.408921 -2.58358,-3.808547 0,-0.179103 -0.16329,-0.461158 -0.36286,-0.626787 -0.19957,-0.16563 -0.36286,-0.492201 -0.36286,-0.725715 0,-0.233513 -0.16328,-0.560084 -0.36285,-0.725714 -0.19957,-0.165629 -0.36286,-0.508224 -0.36286,-0.761322 0,-0.532016 -0.99337,-0.996291 -1.63076,-0.762175 -0.56967,0.209246 -2.927967,2.007499 -5.080887,3.874292 -0.96393,0.835825 -1.84314,1.519681 -1.95381,1.519681 -0.11066,0 -0.73476,0.489858 -1.38689,1.088572 -0.652122,0.598714 -1.327792,1.088571 -1.501482,1.088571 -0.17369,0 -0.63504,0.326572 -1.02522,0.725715 -0.39017,0.399142 -0.8056,0.725714 -0.92317,0.725714 -0.11756,0 -0.66458,0.326571 -1.21558,0.725714 -0.551,0.399143 -1.15272,0.725714 -1.33715,0.725714 -0.18443,0 -0.47085,0.163286 -0.63648,0.362858 -0.16563,0.199571 -0.4627,0.362857 -0.66016,0.362857 -0.49768,0 -3.93603,3.37726 -3.93603,3.8661 0,0.218718 -0.33139,0.715162 -0.73642,1.103209 -0.51076,0.48934 -0.71461,0.892377 -0.66524,1.315258 0.067,0.574236 0.18259,0.62155 1.98539,0.813013 1.34691,0.143046 2.18787,0.376046 2.83758,0.78619 0.50785,0.320594 1.17046,0.584563 1.47246,0.5866 0.65766,0.0044 1.32828,0.386315 1.09248,0.622112 -0.0926,0.09257 -1.0147,0.148038 -2.04918,0.12326 -1.36081,-0.0326 -2.01465,0.05615 -2.36468,0.320956 -0.2661,0.201306 -0.98008,0.369471 -1.58663,0.373705 -0.60654,0.0042 -1.31412,0.167516 -1.57238,0.362857 -0.30806,0.233005 -1.06262,0.357808 -2.19383,0.362857 -0.96781,0.0043 -2.105267,0.166883 -2.59271,0.37055 -0.477641,0.199571 -1.171293,0.366551 -1.541446,0.371065 -0.370156,0.0045 -1.108437,0.218534 -1.640627,0.475601 -0.532191,0.257068 -1.084038,0.471088 -1.226329,0.475602 -0.305649,0.0097 -4.293033,3.988243 -4.435019,4.425188 -0.05364,0.16509 -0.570716,0.917823 -1.149047,1.67274 -0.578329,0.75492 -1.051509,1.446825 -1.051509,1.537571 0,0.09075 -0.326572,0.577323 -0.725714,1.081281 -0.399143,0.503957 -0.725715,1.019824 -0.725715,1.146367 0,0.126543 -0.217714,0.427104 -0.483809,0.667918 -0.266095,0.240814 -0.48381,0.595804 -0.48381,0.788871 0,0.193067 -0.326571,0.763362 -0.725714,1.26732 -0.399143,0.503958 -0.725714,0.995109 -0.725714,1.091447 0,0.09634 -0.326571,0.547104 -0.725714,1.001702 -0.399143,0.454599 -0.725715,1.040468 -0.725715,1.301936 0,0.822133 -0.688388,0.544586 -0.770863,-0.310799 l -0.0758,-0.786191 -1.306436,0.05596 c -0.757805,0.03246 -1.476908,0.210235 -1.71238,0.423334 -0.223271,0.202056 -0.560661,0.371062 -0.749755,0.375567 -0.729444,0.01737 -3.421832,2.508968 -5.663288,5.240917 -1.288191,1.570086 -2.403635,3.017987 -2.478766,3.217559 -0.07513,0.199571 -0.664471,0.88966 -1.309653,1.533533 -0.645179,0.643873 -1.173054,1.310901 -1.173054,1.482286 0,0.171385 -0.17406,0.45607 -0.386803,0.63262 -0.508844,0.42231 -2.513265,3.031462 -2.525885,3.287952 -0.0054,0.10989 -0.331978,0.57669 -0.725714,1.03733 -0.393736,0.46064 -0.719577,1.11378 -0.724091,1.45143 -0.0045,0.33764 -0.218534,1.04933 -0.475602,1.58152 -0.257067,0.53219 -0.471087,1.06328 -0.475601,1.1802 -0.0045,0.11692 -0.361994,0.6192 -0.794399,1.11618 -0.432404,0.49698 -1.112761,1.46062 -1.511904,2.14142 -0.722028,1.23153 -1.064272,1.52137 -1.115348,0.94458 -0.06803,-0.76821 0.100947,-1.54492 0.412003,-1.89381 0.187268,-0.21005 0.340488,-0.82265 0.340488,-1.36134 0,-0.57549 0.149649,-1.10362 0.362857,-1.28057 0.472836,-0.39242 0.463959,-1.31577 -0.01727,-1.797 -0.410005,-0.41001 -2.635937,-0.54217 -2.865853,-0.17015 -0.145486,0.2354 -6.153964,3.19939 -7.639724,3.76868 -1.061597,0.40677 -2.985622,2.02249 -6.43075,5.40027 -1.419509,1.39176 -1.794018,1.90639 -1.794018,2.46525 0,0.88238 -0.383763,1.14229 -0.941433,0.6376 -0.525057,-0.47517 -0.971296,-0.47968 -1.584326,-0.016 -0.258262,0.19534 -0.71313,0.35516 -1.010816,0.35516 -0.297686,0 -0.704533,0.16329 -0.904104,0.36286 -0.199572,0.19957 -0.512872,0.36286 -0.696222,0.36286 -0.183351,0 -1.198055,0.86837 -2.254898,1.92972 -1.056843,1.06135 -2.098705,1.9322 -2.315248,1.93524 -0.216541,0.003 -0.529227,0.1688 -0.694857,0.36837 -0.16563,0.19957 -0.492201,0.36286 -0.725714,0.36286 -0.233513,0 -0.560085,0.16328 -0.725714,0.36285 -0.16563,0.19958 -0.54663,0.36286 -0.846667,0.36286 -0.300037,0 -0.678647,0.16041 -0.841354,0.35646 -0.39042,0.47042 -1.9005369,0.74794 -2.2373239,0.41115 -0.186245,-0.18625 -0.06026,-0.34688 0.441402,-0.5628 0.386121,-0.1662 1.0286099,-0.52497 1.4277529,-0.79728 0.399142,-0.27231 1.020436,-0.65861 1.380654,-0.85846 2.798119,-1.55237 8.698388,-7.02791 11.51274,-10.684 1.218839,-1.58337 4.334577,-4.58125 5.934346,-5.70987 0.616286,-0.43478 1.575775,-1.41449 2.132194,-2.17714 1.227827,-1.68289 4.899858,-5.378049 5.344399,-5.378049 0.176184,0 0.966659,-0.653143 1.756616,-1.451429 0.789957,-0.798286 1.585245,-1.451429 1.767312,-1.451429 0.182065,0 1.029847,-0.705733 1.883957,-1.568292 0.854112,-0.862563 1.967696,-1.779892 2.474632,-2.03851 0.506936,-0.25862 1.06382,-0.641459 1.237519,-0.850755 0.1737,-0.209296 0.442674,-0.380538 0.597718,-0.380538 0.155044,0 0.658786,-0.322147 1.119426,-0.715883 0.460642,-0.393737 1.014701,-0.720308 1.231245,-0.725715 0.216541,-0.0054 0.529227,-0.173116 0.694856,-0.372688 0.16563,-0.199571 0.486555,-0.362857 0.713167,-0.362857 0.505308,0 1.463976,-0.980868 1.463976,-1.497877 0,-0.207965 0.163286,-0.513636 0.362857,-0.679266 0.199572,-0.16563 0.362857,-0.455509 0.362857,-0.644178 0,-0.188666 0.229662,-0.653665 0.510359,-1.03333 0.464846,-0.628739 0.510699,-1.010772 0.514183,-4.284015 0.003,-2.779026 -0.08532,-3.806059 -0.389409,-4.530399 -0.239515,-0.570538 -0.393228,-1.615431 -0.393228,-2.673048 0,-1.94139 -0.214466,-2.316935 -1.323158,-2.316935 -0.614835,0 -1.126715,0.385732 -2.975429,2.242165 -1.228063,1.233189 -2.232841,2.421546 -2.232841,2.640794 0,0.219246 -0.0835,0.434913 -0.18557,0.479264 -0.266417,0.115764 -1.991573,2.272488 -1.991573,2.489786 0,0.100197 -0.326571,0.59451 -0.725714,1.098468 -0.412213,0.520462 -0.729473,1.214751 -0.734413,1.607191 -0.0048,0.379998 -0.249713,0.9832 -0.544286,1.34045 -0.653462,0.792501 -2.239631,1.890454 -2.731063,1.890454 -0.197839,0 -0.422366,0.163286 -0.498948,0.362857 -0.07658,0.199571 -0.386409,0.362857 -0.688502,0.362857 -0.302095,0 -0.684776,0.163286 -0.850406,0.362857 -0.16563,0.199572 -0.482034,0.362857 -0.703121,0.362857 -0.495914,0 -2.593247,2.15811 -3.526388,3.628572 -1.542529,2.430751 -5.847048,6.289524 -7.016052,6.289524 -0.301692,0 -0.684046,0.163286 -0.849676,0.362857 -0.16563,0.199572 -0.485164,0.362857 -0.710075,0.362857 -0.224914,0 -0.728656,0.334196 -1.119429,0.74266 -0.390773,0.408461 -1.049148,0.952273 -1.463057,1.208471 -1.106881,0.68512 -2.029343,2.140472 -2.029343,3.201652 0,0.6813 0.201035,1.11596 0.846666,1.8306 0.465667,0.51544 0.846667,1.00561 0.846667,1.08927 0,0.31365 -0.679542,0.13754 -0.813194,-0.21075 -0.07658,-0.19957 -0.305942,-0.36285 -0.509691,-0.36285 -0.203747,0 -0.370448,-0.10679 -0.370448,-0.2373 0,-0.13051 -0.267678,-0.30448 -0.594839,-0.38659 -0.327162,-0.0821 -0.721491,-0.3019 -0.876288,-0.48842 -0.418863,-0.5047 -5.606309,-0.48428 -6.02792,0.0237 -0.16563,0.19957 -0.548311,0.36286 -0.850407,0.36286 -0.302093,0 -0.611917,0.16328 -0.688502,0.36286 -0.07658,0.19957 -0.401469,0.36285 -0.721974,0.36285 -0.320504,0 -0.7182489,0.16329 -0.8838779,0.36286 -0.16563,0.19957 -0.492201,0.36286 -0.725715,0.36286 -0.233513,0 -0.560084,0.16328 -0.725714,0.36285 -0.16563,0.19958 -0.42821,0.36286 -0.583515,0.36286 -0.386651,0 -8.36696,7.88549 -8.36696,8.26755 0,0.31588 -2.6358081,3.10198 -2.9346461,3.10198 -0.09234,0 -0.748441,0.38234 -1.458008,0.84964 -0.709567,0.46731 -1.328369,0.7349 -1.375117,0.59466 -0.04675,-0.14024 1.241564,-1.57343 2.862917,-3.18487 1.6213521,-1.61143 3.0211281,-3.12779 3.1106121,-3.36969 0.21797,-0.58923 3.170603,-3.59831 3.530808,-3.59831 0.156598,0 1.563624,-1.25424 3.126724,-2.78719 1.563101,-1.53296 2.931365,-2.73196 3.040587,-2.66446 0.109223,0.0675 0.565317,-0.20052 1.0135449,-0.59561 0.448225,-0.39509 1.070648,-0.72009 1.38316,-0.72221 0.312512,-0.002 0.911226,-0.15863 1.330476,-0.34779 0.41925,-0.18915 1.687559,-0.39535 2.818464,-0.45822 2.264434,-0.12588 4.11238,-0.84348 4.11238,-1.596922 0,-0.2273 0.326572,-0.726152 0.725714,-1.108555 0.399143,-0.382403 0.725715,-0.834409 0.725715,-1.004458 0,-0.499974 1.458267,-2.015248 2.272697,-2.361545 0.41311,-0.175654 1.056076,-0.605947 1.428813,-0.956208 0.372736,-0.350259 0.846928,-0.636836 1.053761,-0.636836 0.360653,0 1.946378,-1.109789 2.778298,-1.944426 0.218561,-0.219272 0.657736,-0.606264 0.97595,-0.859984 0.318211,-0.253716 1.242331,-1.332162 2.053599,-2.396543 1.970276,-2.584997 3.174744,-3.749524 3.878123,-3.749524 0.314621,0 0.634695,-0.163285 0.711277,-0.362857 0.07659,-0.199571 0.328654,-0.362857 0.560157,-0.362857 0.231503,0 0.671941,-0.217714 0.978751,-0.48381 0.306811,-0.266095 0.674097,-0.483809 0.816189,-0.483809 0.311852,0 3.054287,-2.677015 3.054287,-2.981425 0,-0.118067 0.299357,-0.611763 0.665238,-1.097099 0.838899,-1.112793 1.178316,-1.661721 1.591963,-2.574641 0.181051,-0.399573 0.863032,-1.160966 1.515514,-1.691983 2.236654,-1.820283 2.642222,-2.182025 4.950244,-4.415329 1.688222,-1.633568 2.479132,-2.237619 2.929815,-2.237619 0.455391,0 1.181383,0.567115 2.767516,2.161862 1.182602,1.189023 2.375384,2.413665 2.650628,2.721429 0.826182,0.923788 2.067093,1.890043 2.427289,1.890043 0.185889,0 0.337982,0.111552 0.337982,0.247892 0,0.13634 0.272143,0.351362 0.604762,0.477822 0.332619,0.126461 0.604761,0.341483 0.604761,0.477823 0,0.13634 0.19574,0.247891 0.434979,0.247891 0.239237,0 0.810736,0.377544 1.27,0.838987 0.459261,0.461443 0.948075,0.842443 1.086254,0.846666 0.138178,0.0042 0.667947,0.220134 1.177263,0.479799 0.621044,0.316627 1.175672,0.425124 1.684008,0.329431 0.735073,-0.138379 1.820183,-1.12813 1.837844,-1.67634 0.0048,-0.148515 0.550068,-0.856086 1.21174,-1.572381 0.661672,-0.716294 1.205999,-1.411209 1.209616,-1.544257 0.01074,-0.395105 2.54536,-3.023147 2.923738,-3.031502 0.191603,-0.0042 0.559673,-0.167519 0.817935,-0.362857 0.258262,-0.195341 0.762005,-0.355165 1.119426,-0.355165 0.357424,0 0.785376,-0.163285 0.951005,-0.362857 0.16563,-0.199571 0.54663,-0.362857 0.846667,-0.362857 0.300037,0 0.681037,-0.163286 0.846667,-0.362857 0.165629,-0.199572 0.483925,-0.362857 0.707327,-0.362857 0.423413,0 7.280739,-7.006953 7.550849,-7.715607 0.0849,-0.22275 0.32983,-0.550621 0.54429,-0.728602 0.21445,-0.177982 0.38991,-0.473246 0.38991,-0.656143 0,-0.505202 1.69129,-2.269172 2.17568,-2.269172 0.23432,0 0.56155,-0.163286 0.72718,-0.362858 0.16563,-0.199571 0.54831,-0.362857 0.85041,-0.362857 0.30209,0 0.61191,-0.163285 0.6885,-0.362857 0.0766,-0.199571 0.4148,-0.362857 0.75159,-0.362857 0.3368,0 0.61236,-0.09915 0.61236,-0.220325 0,-0.121179 0.49863,-0.461708 1.10806,-0.756731 0.60944,-0.295023 1.16537,-0.685734 1.23541,-0.868246 0.07,-0.182513 0.2438,-0.331841 0.38613,-0.331841 0.33957,0 2.834212,-1.720504 2.834212,-1.954698 0,-0.09952 0.51707,-0.499534 1.14905,-0.888919 1.396,-0.860131 5.573287,-5.063709 6.192287,-6.231256 0.24587,-0.463772 0.54523,-0.843222 0.66522,-0.843222 0.12001,0 0.2182,-0.166703 0.2182,-0.37045 0,-0.203747 0.15664,-0.430555 0.34808,-0.504018 0.19144,-0.07346 0.4178,-0.451046 0.50302,-0.839074 0.12989,-0.591404 0.27434,-0.705506 0.89307,-0.705506 0.62952,0 1.21626,0.489354 3.9881,3.326191 1.78749,1.829404 3.53462,3.761619 3.8825,4.293809 0.77283,1.182275 5.38985,5.926667 5.76755,5.926667 0.14957,0 0.96794,0.636421 1.81861,1.414269 0.85067,0.777848 2.25425,2.037308 3.11906,2.798801 3.71137,3.267982 5.20986,4.954952 7.7754,8.753415 0.75071,1.111475 1.64879,2.358206 1.99572,2.770513 0.34693,0.412305 0.63078,0.880321 0.63078,1.040031 0,0.159713 0.32658,0.647937 0.72572,1.084943 0.39914,0.437006 0.72571,0.934251 0.72571,1.10499 0,0.170739 0.21772,0.507463 0.48381,0.748276 0.2661,0.240814 0.48381,0.576051 0.48381,0.74497 0,0.336882 3.32504,3.730269 3.65514,3.730269 0.1126,0 1.48619,1.249972 3.05242,2.77772 1.56622,1.527744 2.99918,2.779601 3.18435,2.781904 0.18516,0.0024 0.62543,0.303542 0.97837,0.669423 0.35294,0.365881 1.04878,0.855739 1.5463,1.088572 1.12919,0.528438 3.13243,0.562574 3.54913,0.06048 0.16563,-0.199571 0.48517,-0.362857 0.71008,-0.362857 0.22491,0 0.72181,-0.326572 1.10421,-0.725714 0.3824,-0.399143 0.82869,-0.725715 0.99176,-0.725715 0.6029,0 2.90914,-1.740057 5.0404,-3.802977 1.20672,-1.16803 2.974,-2.747095 3.92728,-3.509032 0.95329,-0.76194 2.38265,-1.986583 3.17638,-2.721429 1.20192,-1.112771 1.59077,-1.336086 2.32645,-1.336086 1.09226,0 2.07311,0.610824 2.08403,1.297822 0.009,0.56543 0.5666,1.802776 1.32227,2.934138 0.68921,1.031854 3.7336,3.992802 4.10532,3.992802 0.17154,0 2.22304,1.905 4.55889,4.233334 2.33585,2.328333 4.31857,4.233333 4.40605,4.233333 0.0875,0 0.80317,0.489857 1.59043,1.088572 0.78726,0.598714 1.53132,1.088571 1.65347,1.088571 0.12216,0 0.91016,0.460594 1.75111,1.02354 1.81432,1.214524 5.11285,2.846936 5.75267,2.846936 0.24924,0 0.48945,0.08164 0.5338,0.181429 0.0444,0.09979 0.54101,0.494015 1.10368,0.876068 1.06442,0.722727 2.12858,1.933254 3.31134,3.766796 0.90335,1.40039 4.00459,4.62095 5.74677,5.96787 0.75491,0.58365 1.42577,1.06118 1.49079,1.06118 0.065,0 0.69673,0.381 1.40381,0.84666 0.70708,0.46567 1.38127,0.84667 1.4982,0.84667 0.11694,0 0.62495,0.32657 1.1289,0.72571 0.50396,0.39915 1.0778,0.72572 1.27519,0.72572 0.1974,0 0.49442,0.16328 0.66005,0.36286 0.16563,0.19957 0.4713,0.36285 0.67927,0.36285 0.20796,0 0.60285,0.21049 0.87751,0.46774 0.27468,0.25726 0.77155,0.61499 1.10417,0.79497 2.59971,1.40664 4.31193,2.94394 4.69829,4.21828 0.087,0.28707 0.31738,0.58301 0.51188,0.65764 0.19449,0.0746 0.35365,0.33997 0.35365,0.58962 0,0.24965 0.2273,0.65962 0.50512,0.91104 0.27781,0.25141 1.08163,1.22078 1.78628,2.15416 0.70466,0.93336 1.57813,2.01517 1.94106,2.40401 0.36296,0.38884 0.7672,1.01477 0.89834,1.39095 0.13113,0.37619 0.32564,0.68397 0.43226,0.68397 0.10658,0 0.43357,0.46265 0.72659,1.0281 0.29302,0.56545 0.74528,1.22828 1.00501,1.47295 0.25976,0.24467 0.4349,0.55694 0.38923,0.69393 -0.13368,0.40105 -8.37708,0.42809 -9.18378,0.0301 -0.35928,-0.17724 -0.91503,-0.32225 -1.23502,-0.32225 -0.37381,0 -1.14803,-0.51886 -2.16577,-1.45143 -0.87119,-0.79828 -1.68649,-1.45143 -1.81177,-1.45143 -0.1253,0 -0.42483,-0.21771 -0.66565,-0.48381 -0.24082,-0.26609 -0.62536,-0.4838 -0.85453,-0.4838 -0.22919,0 -0.55221,-0.16329 -0.71784,-0.36286 -0.16563,-0.19957 -0.4922,-0.36286 -0.72572,-0.36286 -0.23351,0 -0.56008,-0.16328 -0.72571,-0.36286 -0.16563,-0.19957 -0.47832,-0.36631 -0.69486,-0.37055 -0.21654,-0.004 -0.60502,-0.16751 -0.86328,-0.36285 -0.25826,-0.19534 -0.6264,-0.35517 -0.81808,-0.35517 -0.41104,0 -5.12283,-4.70204 -5.12283,-5.11221 0,-0.53505 -1.71962,-2.38684 -2.21649,-2.38684 -0.26992,0 -0.7797,-0.15101 -1.13285,-0.33559 -0.35315,-0.18457 -0.93733,-0.45251 -1.29819,-0.59541 -0.67972,-0.26917 -2.06557,-1.97705 -2.74572,-3.38372 -0.42593,-0.88091 -2.17656,-2.69512 -2.61449,-2.70946 -0.15026,-0.005 -0.98078,-0.65698 -1.84559,-1.44902 l -1.57238,-1.44009 -2.17714,-0.011 c -1.42573,-0.007 -2.38587,-0.13029 -2.78191,-0.35669 -0.33262,-0.19014 -0.83636,-0.34957 -1.11943,-0.35428 -0.28306,-0.005 -0.65018,-0.17185 -0.81581,-0.37142 -0.16563,-0.19957 -0.46374,-0.36286 -0.66248,-0.36286 -0.93696,0 -6.26039,-4.882802 -8.10985,-7.438577 -0.40918,-0.565452 -0.83437,-1.028095 -0.94486,-1.028095 -0.1105,0 -0.2009,-0.153784 -0.2009,-0.341744 0,-0.695759 -1.74042,-2.948103 -4.22089,-5.46243 l -2.55244,-2.587275 -0.0112,-1.912371 c -0.0103,-1.751906 -0.0892,-2.054458 -0.93993,-3.605704 -0.98063,-1.788054 -1.76385,-2.260714 -2.42534,-1.46366 -0.17122,0.206299 -0.49188,0.375088 -0.71259,0.375088 -0.2207,0 -1.04761,0.653143 -1.83756,1.451429 -0.78996,0.798286 -1.56735,1.451428 -1.72753,1.451428 -0.16019,0 -0.8572,0.517072 -1.54893,1.149048 -0.69173,0.631976 -1.39901,1.203476 -1.57176,1.27 -0.17273,0.06652 -0.67655,0.419598 -1.11959,0.784613 -1.16307,0.958234 -3.91655,2.762258 -4.49742,2.946621 -0.27321,0.08671 -0.55781,0.316801 -0.63245,0.511309 -0.0746,0.194506 -0.39962,0.353648 -0.72218,0.353648 -0.32257,0 -0.64914,0.163285 -0.72572,0.362857 -0.0766,0.199571 -0.33315,0.363561 -0.57017,0.36442 -1.1776,0.0043 -3.92864,3.355042 -3.94623,4.806524 -0.004,0.349124 -0.16752,0.846077 -0.36287,1.104339 -0.19533,0.258262 -0.35516,0.724321 -0.35516,1.035686 0,0.311365 -0.16329,0.628778 -0.36286,0.705361 -0.19957,0.07658 -0.36286,0.337533 -0.36286,0.579893 0,0.24235 -0.16328,0.60393 -0.36285,0.803512 -0.19958,0.19957 -0.36286,0.51311 -0.36286,0.69676 0,0.18364 -0.15982,0.5452 -0.35517,0.80347 -0.19533,0.25826 -0.35862,0.63871 -0.36285,0.84544 -0.004,0.20674 -0.3887,0.74516 -0.85436,1.19651 -0.46567,0.45134 -0.84667,0.93645 -0.84667,1.07802 0,0.306 -1.14577,1.58293 -1.42034,1.58293 -0.10518,0 -0.3341,0.26693 -0.5087,0.59319 -0.17461,0.32625 -0.60122,0.70732 -0.94802,0.84682 -0.92527,0.37219 -3.16647,2.34017 -4.55855,4.00285 -1.34504,1.60649 -4.736,4.95904 -5.01585,4.95904 -0.0981,0 -0.66226,0.32657 -1.25368,0.72572 -0.59141,0.39914 -1.2198,0.72571 -1.39641,0.72571 -0.17661,0 -0.45663,0.16329 -0.62226,0.36286 -0.16563,0.19957 -0.48865,0.36286 -0.71784,0.36286 -0.22918,0 -0.61372,0.21771 -0.85454,0.48381 -0.24081,0.26609 -0.57808,0.48381 -0.74949,0.48381 -0.1714,0 -0.45389,0.19923 -0.62774,0.44274 -0.17386,0.24351 -1.23553,1.25044 -2.35929,2.23762 -1.12375,0.98718 -2.37265,2.09423 -2.77533,2.46011 -0.40269,0.36588 -0.85082,0.66524 -0.99585,0.66524 -0.14503,0 -0.57584,0.32582 -0.95737,0.72405 -0.38152,0.39822 -1.13667,0.95385 -1.67811,1.23473 -0.54144,0.28087 -1.07149,0.66262 -1.17788,0.84833 -0.1064,0.18571 -0.39933,0.33765 -0.65096,0.33765 -0.25164,0 -0.51897,0.0994 -0.59409,0.22098 -0.1397,0.22605 -2.0885,1.23045 -2.3874,1.23045 -0.091,0 -0.16553,-0.14019 -0.16553,-0.31153 z m 41.60762,-2.15194 c 0,-0.17599 0.381,-0.85587 0.84666,-1.51084 0.46567,-0.65497 0.84667,-1.4305 0.84667,-1.72341 0,-0.29291 0.16329,-0.66808 0.36286,-0.83371 0.19957,-0.16563 0.36285,-0.54663 0.36285,-0.84667 0,-0.30003 0.16329,-0.68103 0.36286,-0.84666 0.19957,-0.16563 0.36286,-0.59358 0.36286,-0.95101 0,-0.35742 0.15982,-0.86116 0.35516,-1.11942 0.19534,-0.25827 0.35863,-0.64674 0.36286,-0.86329 0.004,-0.21654 0.17098,-0.52922 0.37055,-0.69485 0.19957,-0.16563 0.36286,-0.45749 0.36286,-0.64857 0,-0.19108 0.31907,-0.74925 0.70905,-1.24038 0.38998,-0.49113 0.74376,-1.21114 0.78619,-1.60002 0.0424,-0.38888 0.21321,-0.75174 0.37952,-0.80635 0.45879,-0.15065 0.40377,2.21669 -0.0605,2.60198 -0.19957,0.16563 -0.36285,0.39189 -0.36285,0.50279 0,0.1109 -0.32476,0.75242 -0.72167,1.42559 -0.39692,0.67318 -0.76814,1.48021 -0.82494,1.79341 -0.0568,0.3132 -0.20893,0.77414 -0.33808,1.02431 -0.67076,1.2993 -1.26008,2.72676 -1.26008,3.05221 0,0.20197 -0.16328,0.50273 -0.36285,0.66836 -0.19958,0.16563 -0.36286,0.48376 -0.36286,0.70695 0,0.2232 -0.12147,0.52728 -0.26992,0.67573 -0.14846,0.14846 -0.39611,0.52402 -0.55034,0.83458 -0.30689,0.61793 -1.35688,0.9269 -1.35688,0.39927 z m -54.884317,-3.74579 c -0.0154,-0.15543 -0.0985,-0.482 -0.18461,-0.72572 -0.12147,-0.34381 -0.0893,-0.38111 0.14363,-0.16643 0.16511,0.15218 0.24819,0.47875 0.18462,0.72572 -0.0636,0.24696 -0.1282,0.32185 -0.14364,0.16643 z M -20.834038,123.3296 c 0,-0.26213 1.331908,-1.27179 1.522397,-1.15406 0.10716,0.0662 -0.08829,0.38281 -0.434339,0.70352 -0.589317,0.54616 -1.088058,0.75268 -1.088058,0.45054 z m 113.614589,-1.23824 c -0.0887,-0.0887 -0.16127,-0.78462 -0.16127,-1.5465 0,-0.95211 -0.10398,-1.42513 -0.33258,-1.51285 -0.18292,-0.0702 -0.39277,-0.43562 -0.46634,-0.81207 -0.2716,-1.38972 -0.70811,-2.88039 -1.03851,-3.54643 -0.20319,-0.40963 -0.33971,-1.43523 -0.33971,-2.5521 0,-1.04899 -0.11802,-1.98527 -0.26931,-2.13657 -0.1675,-0.1675 -0.21032,-0.6659 -0.11326,-1.31838 0.42776,-2.87571 0.42936,-3.00719 0.0404,-3.33003 -0.43254,-0.35898 -0.55673,-2.91999 -0.1416,-2.91999 0.13305,0 0.24191,0.3602 0.24191,0.80043 0,0.44024 0.15982,1.01174 0.35516,1.27 0.26863,0.35516 0.36055,1.26527 0.37728,3.73529 0.028,4.13062 0.30772,5.57449 1.991962,10.28095 0.34387,0.9609 0.52192,3.74952 0.23941,3.74952 -0.12222,0 -0.2948,-0.0726 -0.383492,-0.16127 z m -111.316494,-0.32254 c -0.08223,-0.13304 0.02663,-0.2419 0.241905,-0.2419 0.215276,0 0.324133,0.10886 0.241905,0.2419 -0.08223,0.13305 -0.191085,0.24191 -0.241905,0.24191 -0.05082,0 -0.159677,-0.10886 -0.241905,-0.24191 z m 2.979401,-0.42333 c -0.05545,-0.48195 -0.230348,-0.68704 -0.634771,-0.74437 -0.673609,-0.0955 -0.575214,-0.61649 0.136275,-0.72158 0.279273,-0.0413 0.637861,-0.23175 0.796862,-0.42333 0.390068,-0.47001 1.197471,-0.4446 1.197471,0.0377 0,0.21231 -0.154747,0.67495 -0.343883,1.0281 -0.189135,0.35314 -0.403433,0.83258 -0.476217,1.06541 -0.201426,0.64435 -0.589758,0.50534 -0.675737,-0.2419 z m -2.096448,-0.29029 c 0.103949,-0.31184 0.435744,-0.36786 0.465666,-0.0786 0.01,0.0965 -0.112485,0.21892 -0.272142,0.27214 -0.159658,0.0532 -0.246743,-0.0339 -0.193524,-0.19353 z m 51.391828,-6.02192 c -0.08371,-0.13544 -0.03433,-0.31912 0.109743,-0.40816 0.371923,-0.22986 0.61189,0.085 0.301408,0.39548 -0.173731,0.17373 -0.309038,0.1779 -0.411151,0.0127 z m 0.636841,-1.53458 c 0.149514,-0.44854 0.670277,-0.52294 0.670277,-0.0957 0,0.21066 -0.172357,0.38302 -0.383015,0.38302 -0.210661,0 -0.339927,-0.12927 -0.287262,-0.28727 z M 146.47683,102.97431 c -0.53192,-0.53192 0.43888,-2.56077 2.24875,-4.69966 0.40772,-0.481843 0.74494,-0.9717 0.74936,-1.088572 0.0186,-0.490619 2.06689,-2.268687 2.61349,-2.268687 0.12215,0 0.3576,-0.163285 0.52323,-0.362857 0.16563,-0.199571 0.57469,-0.362857 0.90903,-0.362857 0.726,0 3.9107,-2.799665 5.89159,-5.179295 0.71675,-0.861028 1.43926,-1.571926 1.60557,-1.579773 0.41181,-0.01942 0.38081,0.34521 -0.0605,0.711449 -0.19957,0.16563 -0.36286,0.437772 -0.36286,0.604762 0,0.166989 -0.16328,0.439132 -0.36285,0.604762 -0.19958,0.165629 -0.36286,0.536881 -0.36286,0.825001 0,0.295586 -0.52705,1.085241 -1.20952,1.812162 -0.66524,0.708568 -1.21447,1.412003 -1.22052,1.563189 -0.006,0.151188 -0.49501,0.764743 -1.08659,1.363457 -0.59158,0.598715 -1.07649,1.25297 -1.07758,1.453901 -0.001,0.200931 -0.30134,0.689349 -0.66722,1.085376 l -0.66524,0.720047 -0.0779,-0.67633 c -0.18328,-1.590773 -2.13859,-0.973151 -4.43472,1.400783 -0.90487,0.93554 -1.64763,1.879842 -1.65058,2.098442 -0.003,0.2186 -0.16863,0.46011 -0.3682,0.53669 -0.19958,0.0766 -0.36286,0.40838 -0.36286,0.73732 0,0.61343 -0.29558,0.97613 -0.57102,0.70069 z M 58.026906,88.385963 c 0,-0.133048 0.108857,-0.241905 0.241905,-0.241905 0.133047,0 0.241904,0.108857 0.241904,0.241905 0,0.133047 -0.108857,0.241904 -0.241904,0.241904 -0.133048,0 -0.241905,-0.108857 -0.241905,-0.241904 z m 54.339734,-1.575906 c -0.0842,-0.219395 -0.15307,-0.616785 -0.15307,-0.883085 0,-0.659172 0.5834,-0.430971 0.68571,0.268219 0.10138,0.692781 -0.31729,1.176075 -0.53264,0.614866 z m -6.83306,-1.009239 c -0.0798,-0.241266 -0.29678,-0.781688 -0.4821,-1.200938 -0.23335,-0.527892 -0.33696,-1.759543 -0.33696,-4.00567 0,-2.477306 -0.0839,-3.35431 -0.35517,-3.712965 -0.233,-0.308058 -0.3578,-1.062615 -0.36285,-2.193759 -0.005,-1.230122 -0.11167,-1.810481 -0.37055,-2.025333 -0.19957,-0.16563 -0.36286,-0.567115 -0.36286,-0.892191 0,-0.325074 -0.11566,-0.807154 -0.25702,-1.071285 -0.14136,-0.264133 -0.36649,-1.862621 -0.50029,-3.552192 -0.13381,-1.689575 -0.34472,-3.175366 -0.4687,-3.301761 -0.36559,-0.372715 -0.25971,-1.101717 0.25508,-1.756163 0.60163,-0.764844 0.64648,-0.634979 0.84947,2.459344 0.0869,1.324736 0.25864,2.596652 0.38163,2.826478 0.123,0.229827 0.22364,0.702816 0.22364,1.051084 0,0.544442 0.2758,1.215513 1.24411,3.027162 0.10667,0.199571 0.36795,0.706746 0.58061,1.127056 0.21267,0.420307 0.59668,0.954251 0.85336,1.186538 0.25667,0.232289 0.46668,0.562039 0.46668,0.732778 0,0.170739 0.32657,0.667984 0.72572,1.104989 0.39914,0.437006 0.72571,0.890704 0.72571,1.008216 0,0.117513 0.32657,0.625989 0.72571,1.129947 0.39915,0.503958 0.72572,1.074253 0.72572,1.26732 0,0.193066 0.21771,0.548057 0.48381,0.78887 0.26609,0.240814 0.48381,0.625356 0.48381,0.854539 0,0.229185 0.16328,0.552213 0.36285,0.717842 0.19958,0.16563 0.36286,0.54663 0.36286,0.846667 0,0.300037 0.16329,0.681037 0.36286,0.846667 0.38919,0.322996 0.51424,2.177143 0.14683,2.177143 -0.25728,0 -0.50969,-0.594106 -0.50969,-1.199688 0,-0.238925 -0.16328,-0.569921 -0.36286,-0.735551 -0.19957,-0.165629 -0.36285,-0.485164 -0.36285,-0.710075 0,-0.224913 -0.32657,-0.721807 -0.72572,-1.10421 -0.39914,-0.382403 -0.72571,-0.822873 -0.72571,-0.97882 0,-0.420041 -1.87873,-2.478263 -2.41853,-2.649587 -0.25633,-0.08136 -0.68788,-0.0292 -0.959,0.115896 -0.45339,0.242648 -0.49295,0.493696 -0.49295,3.128545 0,2.251311 0.0777,2.929208 0.36286,3.165871 0.40929,0.339682 0.49113,1.585504 0.11924,1.815342 -0.13398,0.08281 -0.30892,-0.04684 -0.38875,-0.288106 z"
       id="path2160"
       inkscape:export-filename="C:\Users\Night\path2160.png"
       inkscape:export-xdpi="180"
       inkscape:export-ydpi="180" />
  </g>
</svg>
