<?xml version="1.0" encoding="UTF-8" standalone="no"?>
<svg
   xmlns:dc="http://purl.org/dc/elements/1.1/"
   xmlns:cc="http://creativecommons.org/ns#"
   xmlns:rdf="http://www.w3.org/1999/02/22-rdf-syntax-ns#"
   xmlns:svg="http://www.w3.org/2000/svg"
   xmlns="http://www.w3.org/2000/svg"
   xmlns:sodipodi="http://sodipodi.sourceforge.net/DTD/sodipodi-0.dtd"
   xmlns:inkscape="http://www.inkscape.org/namespaces/inkscape"
   viewBox="0 0 375 125"
   version="1.1"
   id="svg7"
   sodipodi:docname="sam.svg"
   width="375"
   height="125"
   inkscape:version="1.0.2-2 (e86c870879, 2021-01-15)">
  <metadata
     id="metadata13">
    <rdf:RDF>
      <cc:Work
         rdf:about="">
        <dc:format>image/svg+xml</dc:format>
        <dc:type
           rdf:resource="http://purl.org/dc/dcmitype/StillImage" />
        <dc:title />
      </cc:Work>
    </rdf:RDF>
  </metadata>
  <defs
     id="defs11" />
  <sodipodi:namedview
     pagecolor="#ffffff"
     bordercolor="#666666"
     borderopacity="1"
     objecttolerance="10"
     gridtolerance="10"
     guidetolerance="10"
     inkscape:pageopacity="0"
     inkscape:pageshadow="2"
     inkscape:window-width="2467"
     inkscape:window-height="1406"
     id="namedview9"
     showgrid="false"
     inkscape:zoom="3.979597"
     inkscape:cx="134.66906"
     inkscape:cy="90.913654"
     inkscape:window-x="-11"
     inkscape:window-y="-11"
     inkscape:window-maximized="1"
     inkscape:current-layer="svg7"
     inkscape:document-rotation="0" />
  <path
     d="m 23.103433,98.399267 q 0.07886,-0.131508 0.137812,-0.320736 0.06921,-0.2027 0.117912,-0.378456 0.0487,-0.175756 0.09356,-0.290578 0.05513,-0.128294 0.1058,-0.110991 0.148811,0.02818 0.233599,0.475852 0.08479,0.447671 0.03943,1.09421 -0.04536,0.646539 -0.267714,1.413712 -0.235825,0.75691 -0.728239,1.40357 -0.400086,0.52542 -1.288259,1.10484 -0.877915,0.56595 -1.993138,1.16404 -1.104963,0.58462 -2.318322,1.17183 -1.226831,0.57695 -2.290761,1.10768 -1.063929,0.53073 -1.846303,0.99916 -0.785587,0.4447 -1.052311,0.79498 -0.08911,0.14498 -0.178228,0.28996 -0.102586,0.13472 -0.191701,0.2797 l -0.05129,0.0674 q 0.613292,0.42444 1.101502,0.81748 0.474738,0.38278 0.668539,0.74319 0.16043,0.29243 0.221486,0.74332 0.07132,0.43741 0.08491,0.89472 0.01038,0.43358 -0.01965,0.83639 -0.03003,0.4028 -0.06205,0.61255 -0.04993,0.34508 -0.108891,0.53431 -0.07243,0.17897 -0.144238,0.27327 -0.09233,0.12125 -0.169947,0.0834 -0.07762,-0.0378 -0.07379,-0.0987 -0.04437,-0.4169 -0.214441,-0.78052 -0.17007,-0.36363 -0.57683,-0.77978 -0.406759,-0.41615 -1.080366,-0.92908 -0.67682,-0.53667 -1.7212199,-1.28938 -0.202082,-0.15388 -0.5491441,-0.39687 -0.347062,-0.24299 -0.7377539,-0.54049 -0.3804334,-0.31098 -0.7775524,-0.65594 -0.3868603,-0.35843 -0.7095735,-0.6893 -0.3124546,-0.34435 -0.4998283,-0.6573 -0.1771152,-0.32642 -0.1483167,-0.55989 0.1113624,-0.87297 0.1900947,-1.45153 0.06526,-0.58882 0.1350931,-0.87619 -0.4103448,0.53889 -0.7456657,1.0072 -0.3250624,0.45484 -0.5545836,0.81216 -0.2840279,0.40095 -0.4930319,0.73133 -0.020517,0.0269 -0.041035,0.0539 -0.041034,0.0539 -0.067979,0.0334 -0.074406,-0.0141 -0.057102,-0.0648 0.027562,-0.0641 0.021135,-0.11161 0.1281712,-0.39193 0.1960268,-0.87235 0.078114,-0.4939 0.094677,-0.90696 0.027439,-0.5112 0.020889,-1.00571 0.2397798,-0.3708 0.6949907,-1.0245 0.4519974,-0.67744 1.0982905,-1.52619 0.8206897,-1.07777 1.8453156,-2.255653 1.0214123,-1.201616 2.0922636,-2.216599 0.610449,-0.578066 1.305563,-1.155513 0.681642,-0.587706 1.372924,-1.10422 0.701541,-0.529987 1.38516,-0.924633 0.680406,-0.418378 1.267866,-0.630842 0.58746,-0.212463 1.051198,-0.178597 0.473997,0.02039 0.762721,0.367951 0.278465,0.361029 0.252386,1.149953 -0.01582,0.775452 -0.141274,1.722828 -0.176623,1.461789 -0.944537,3.196976 -0.767914,1.735189 -2.023174,3.886779 0.536785,-0.22977 1.287764,-0.57313 0.75098,-0.34335 1.590456,-0.74702 0.826004,-0.41393 1.669311,-0.87853 0.853566,-0.47807 1.598737,-0.95355 0.731699,-0.485742 1.294069,-0.972716 0.572628,-0.500446 0.836757,-0.959117 z m -12.394879,9.653213 q 0.830948,-1.09124 1.629143,-2.33513 0.798195,-1.24389 1.511726,-2.48839 0.723789,-1.25798 1.338565,-2.42869 0.601304,-1.180978 1.055156,-2.112409 0.450638,-0.955163 0.692272,-1.579949 0.251893,-0.638258 0.266601,-0.797328 -0.09369,-0.156475 -0.33359,-0.232735 -0.253375,-0.08652 -0.480424,-0.06785 -0.55928,0.06365 -1.395542,0.491052 -0.839476,0.403669 -1.79946,1.077399 -0.949725,0.660258 -1.965451,1.546946 -1.029199,0.876424 -1.9576658,1.872124 -0.7136538,0.79745 -1.3971498,1.63915 -0.6732373,0.82823 -1.2579787,1.59614 0.093687,0.15648 0.2342172,0.39119 0.1405303,0.23471 0.5068734,0.62009 0.3663432,0.38538 1.0123876,0.96246 0.6563031,0.5636 1.7610181,1.40481 z"
     style="font-style:normal;font-variant:normal;font-weight:normal;font-stretch:normal;font-size:16.9333px;font-family:Javar;-inkscape-font-specification:Javar"
     id="path9" />
  <path
     d="m 36.181842,84.679251 q 0.07465,-0.20709 0.04431,-0.349562 -0.0314,-0.166396 0.08821,-0.171739 0.143541,-0.0064 0.218846,0.337806 0.07424,0.320296 0.02384,0.801972 -0.0504,0.481675 -0.253623,1.030107 -0.1918,0.535935 -0.580331,0.960802 -0.468523,0.512341 -1.235884,0.774347 -0.768429,0.238083 -1.712873,0.292259 -0.944443,0.05418 -1.990993,-0.03092 -1.047618,-0.109013 -2.062023,-0.279439 -1.002978,-0.182921 -1.935254,-0.392972 -0.920848,-0.222548 -1.61282,-0.419362 0.275899,1.078366 0.484303,2.255632 0.195908,1.165838 0.295053,2.312028 0.09808,1.122267 0.09619,2.153115 0.0095,1.018351 -0.08731,1.801742 0.398233,-1.012596 1.031754,-1.855918 0.621025,-0.85475 1.352378,-1.654501 0.468523,-0.51234 0.940252,-0.95291 0.471729,-0.440569 0.844887,-0.67298 0.268173,-0.167793 0.492774,-0.237755 0.224602,-0.06996 0.390998,-0.101366 0.191387,-0.0085 0.335997,0.009 0.04924,0.29744 -0.01685,0.695918 -0.06717,0.374555 -0.170754,0.738751 -0.112877,0.424539 -0.272532,0.875139 -0.253868,-0.04859 -0.583453,0.08599 -0.330654,0.110656 -0.702743,0.36699 -0.384585,0.244907 -0.78775,0.6105 -0.404233,0.34167 -0.792764,0.766537 -0.354249,0.38738 -0.729216,0.847598 -0.376035,0.436295 -0.703154,0.894376 -0.328188,0.434157 -0.560682,0.86404 -0.232495,0.429882 -0.30073,0.780513 -0.04037,0.169602 -0.08895,0.42347 -0.06108,0.242442 -0.111808,0.448463 -0.07251,0.254937 -0.145021,0.509874 -0.06429,0.170671 -0.159983,0.174946 -0.09676,-0.01965 -0.13532,-0.07785 -0.01463,-0.05927 0.0061,-0.132113 0.04859,-0.253869 0.09824,-0.483814 0.04966,-0.229944 0.09931,-0.459889 0.129731,-1.120458 0.0906,-2.533013 -0.0277,-1.42505 -0.227146,-2.938314 -0.200511,-1.537187 -0.568487,-3.066893 -0.369044,-1.55363 -0.884507,-2.896963 0.124304,-0.437035 0.213257,-0.860506 0.09109,-0.375623 0.169686,-0.762674 0.07859,-0.38705 0.10112,-0.687697 0.508806,0.121098 1.272549,0.314707 0.77517,0.181112 1.671026,0.380805 0.907284,0.187196 1.87491,0.383682 0.966558,0.172563 1.883132,0.299417 0.915505,0.102929 1.719614,0.126936 0.804108,0.02401 1.373997,-0.09734 0.90268,-0.184152 1.359036,-0.432265 0.455286,-0.272037 0.649552,-0.48447 0.159983,-0.174946 0.191059,-0.284205 z"
     style="font-style:normal;font-variant:normal;font-weight:normal;font-stretch:normal;font-size:16.9333px;font-family:Javar;-inkscape-font-specification:Javar"
     id="path11" />
  <path
     d="m 40.968832,74.287432 q 0.883176,-0.717171 1.859336,-1.335827 0.964538,-0.63097 1.838036,-1.013017 0.874189,-0.405985 1.559515,-0.494001 0.686017,-0.111952 1.012153,0.208912 0.442366,0.444008 0.384683,1.196998 -0.05699,0.729053 -0.515517,1.674104 -0.470149,0.932736 -1.256322,2.024047 -0.77386,1.079688 -1.753606,2.23728 -0.99137,1.145278 -2.127055,2.310345 -1.123371,1.153445 -2.268605,2.234386 -0.381745,0.360313 -0.652661,0.61602 -0.258601,0.244083 -0.430311,0.382868 l -0.06503,0.177802 q -0.09173,0.27286 -0.180005,0.426033 -0.06434,0.153865 -0.125909,0.21198 -0.09851,0.09298 -0.157321,0.05535 -0.04649,-0.04926 -0.04511,-0.09713 0.02199,-0.346746 -0.08801,-0.685326 -0.110008,-0.33858 -0.409442,-0.754502 -0.287119,-0.427546 -0.786908,-0.957063 -0.499099,-0.553454 -1.244355,-1.293698 -0.233152,-0.222349 -0.675518,-0.666357 -0.441675,-0.467945 -0.870344,-0.971451 -0.416355,-0.515128 -0.689776,-1.002172 -0.285045,-0.499357 -0.181,-0.78384 0.233411,-0.61615 0.353227,-1.031943 0.132131,-0.427416 0.211548,-0.688653 -0.47002,0.513487 -0.868227,1.029048 -0.40983,0.503246 -0.771094,0.983938 -0.09921,0.116922 -0.170327,0.09091 -0.05881,-0.03763 -0.004,-0.275625 0.03971,-0.130619 0.132131,-0.427416 0.09311,-0.320735 0.186918,-0.665407 0.119125,-0.391856 0.251947,-0.843209 0.361956,-0.504629 0.895621,-1.148043 0.459087,-0.549739 1.187016,-1.283372 0.728621,-0.75757 1.737014,-1.662783 0.971451,-0.870344 1.853245,-1.53964 0.87017,-0.68161 1.600044,-1.067806 0.718251,-0.39851 1.25857,-0.442798 0.528696,-0.0566 0.841135,0.323759 0.1969,0.233281 0.194005,0.74828 -0.0029,0.514999 -0.203511,1.239904 -0.188301,0.713282 -0.574323,1.636469 -0.385331,0.89925 -0.953995,1.924971 0.184024,-0.150408 0.355734,-0.289193 0.172401,-0.162722 0.356425,-0.31313 z m -7.094275,1.759614 q 0.0321,0.132693 0.09839,0.326266 0.0786,0.18195 0.319914,0.5363 0.253633,0.342728 0.728102,0.919428 0.486785,0.565078 1.347579,1.452402 l 0.06974,0.07389 0.195214,-0.952655 q 0.5309,-0.547665 1.188399,-1.331247 0.669814,-0.795204 1.318456,-1.68685 0.660957,-0.903268 1.215232,-1.845554 0.554275,-0.942285 0.841782,-1.772489 0.04731,-0.393929 -0.223473,-0.557472 -0.282409,-0.175858 -0.668172,-0.09117 -0.951402,0.176161 -2.33601,1.250188 -1.372294,1.062405 -3.428098,2.979512 -0.369431,0.348691 -0.667049,0.699455 z m 12.743752,-2.43496 q -0.137402,-0.219585 -0.764613,-0.07 -0.614896,0.137964 -1.5014,0.555572 -0.898126,0.405293 -1.971419,1.069058 -1.060978,0.652143 -2.079612,1.497167 -0.306476,0.2427 -0.725164,0.637883 -0.430311,0.382868 -0.898256,0.824543 -0.467945,0.441675 -0.924267,0.895664 -0.456322,0.453989 -0.814821,0.838932 0.30289,0.296235 0.60578,0.592471 0.302889,0.296236 0.546282,0.578774 0.255706,0.270916 0.440292,0.51582 0.184585,0.244904 0.250867,0.438477 0.01024,0.06019 0.0321,0.132693 0.02255,0.04857 0.02117,0.09644 0.918045,-0.680228 1.801913,-1.421336 0.896182,-0.752731 1.708929,-1.51985 1.02209,-0.964711 1.875237,-1.886386 0.841523,-0.93399 1.42652,-1.695708 0.573373,-0.774033 0.852584,-1.316988 0.267589,-0.555269 0.117872,-0.76323 z"
     style="font-style:normal;font-variant:normal;font-weight:normal;font-stretch:normal;font-size:16.9333px;font-family:Javar;-inkscape-font-specification:Javar"
     id="path13" />
  <path
     d="m 53.875906,63.064131 q 0.93044,-0.654687 1.946864,-1.204694 1.005676,-0.563091 1.903397,-0.884115 0.900057,-0.344858 1.589816,-0.385498 0.692095,-0.06447 0.995375,0.278076 0.410759,0.4734 0.301389,1.220635 -0.107032,0.723402 -0.629512,1.634654 -0.533228,0.898168 -1.392645,1.932784 -0.846333,1.023868 -1.903426,2.111286 -1.067841,1.074333 -2.281017,2.158476 -1.200091,1.073395 -2.417004,2.072954 -0.405638,0.333186 -0.69351,0.569641 -0.274787,0.225707 -0.455641,0.352345 l -0.07711,0.172905 q -0.110292,0.265899 -0.208899,0.412634 -0.07477,0.149072 -0.1402,0.202812 -0.10468,0.08598 -0.160757,0.04439 -0.04299,-0.05234 -0.03832,-0.100006 0.04581,-0.344411 -0.04064,-0.689759 -0.08644,-0.345348 -0.356543,-0.780892 -0.257013,-0.446293 -0.719175,-1.008951 -0.459824,-0.586492 -1.152367,-1.376271 -0.217296,-0.237869 -0.628055,-0.711269 -0.408422,-0.497233 -0.801422,-1.029047 -0.379914,-0.542563 -0.619168,-1.047269 -0.250001,-0.517791 -0.126623,-0.794439 0.275262,-0.598624 0.423411,-1.005185 0.161234,-0.417309 0.258441,-0.672461 -0.504244,0.479921 -0.93699,0.966853 -0.443493,0.473848 -0.836984,0.928536 -0.107017,0.109817 -0.176179,0.07897 -0.05608,-0.04159 0.01496,-0.275248 0.0486,-0.127576 0.161234,-0.417309 0.114967,-0.313566 0.232271,-0.650965 0.145811,-0.382728 0.309382,-0.823869 0.395828,-0.478522 0.972509,-1.083682 0.495834,-0.516839 1.272528,-1.198634 0.779032,-0.705628 1.847334,-1.539293 1.029048,-0.801422 1.954814,-1.408442 0.915018,-0.620106 1.66974,-0.955154 0.743974,-0.348132 1.28606,-0.355129 0.531338,-0.02008 0.816859,0.380881 0.180378,0.24628 0.142046,0.759859 -0.03833,0.513578 -0.288363,1.222957 -0.236945,0.698631 -0.685589,1.593062 -0.446307,0.870598 -1.084216,1.854749 0.19394,-0.137386 0.374794,-0.264024 0.183191,-0.150471 0.37713,-0.287857 z M 46.67735,64.33132 q 0.0229,0.134587 0.0757,0.332263 0.06589,0.186928 0.282245,0.557046 0.229444,0.359371 0.663098,0.967359 0.44674,0.59724 1.244425,1.541703 l 0.06449,0.07851 0.260317,-0.936961 q 0.567333,-0.509828 1.277202,-1.2463 0.722955,-0.74722 1.431425,-1.59211 0.721555,-0.855637 1.339367,-1.757541 0.617813,-0.901904 0.961776,-1.710352 0.07431,-0.389739 -0.184576,-0.571531 -0.269637,-0.194877 -0.660314,-0.136939 -0.96127,0.110264 -2.416513,1.086451 -1.442158,0.96544 -3.62503,2.736514 -0.392553,0.322438 -0.713606,0.651888 z m 12.881118,-1.552118 q -0.121964,-0.22852 -0.757983,-0.122454 -0.622934,0.09532 -1.536076,0.450923 -0.923891,0.34252 -2.040321,0.930844 -1.103346,0.577576 -2.177722,1.35049 -0.322453,0.221032 -0.767346,0.586463 -0.45564,0.352345 -0.952874,0.760767 -0.497233,0.408421 -0.983718,0.829928 -0.486485,0.421507 -0.870627,0.780864 0.281784,0.316379 0.563567,0.632758 0.281784,0.316379 0.505154,0.614999 0.236455,0.287872 0.403747,0.544899 0.167293,0.257028 0.220095,0.454703 0.0061,0.06075 0.02289,0.134588 0.01916,0.05 0.01449,0.09767 0.962684,-0.615432 1.895462,-1.293951 0.945862,-0.689268 1.809478,-1.398633 1.086062,-0.892079 2.000618,-1.752852 0.903809,-0.873859 1.539842,-1.593509 0.625285,-0.732736 0.941203,-1.255187 0.30517,-0.535537 0.170121,-0.75331 z"
     style="font-style:normal;font-variant:normal;font-weight:normal;font-stretch:normal;font-size:16.9333px;font-family:Javar;-inkscape-font-specification:Javar"
     id="path15" />
  <path
     d="m 59.447055,52.998644 q 0.0271,-0.104984 0.07791,-0.206581 0.0542,-0.125302 0.108386,-0.165938 0.05419,-0.04064 0.101596,0.05081 0.03725,0.0779 0.044,0.36915 0.02704,0.657016 0.677215,1.608717 0.650169,0.951701 1.716864,2.37418 0.822878,1.097341 1.408718,1.822131 0.58584,0.72479 0.731429,1.229414 0.155755,0.433505 0.04395,0.961817 -0.09825,0.518152 -0.58599,1.30721 -0.108385,0.165938 -0.213382,0.30817 -0.104998,0.142233 -0.172735,0.193028 -0.162569,0.121908 -0.108354,-0.257395 0.04066,-0.284477 -0.291191,-0.839915 -0.328464,-0.579144 -0.795778,-1.202325 -0.463925,-0.646888 -0.938016,-1.222656 -0.474091,-0.575769 -0.707747,-0.887359 -0.247205,-0.301432 -0.636635,-0.792528 -0.386042,-0.514801 -0.717894,-1.070239 -0.331852,-0.555438 -0.524854,-1.066839 -0.193003,-0.511401 -0.03719,-0.839896 0.298075,-0.646831 0.49114,-0.982097 0.182906,-0.348813 0.328558,-0.690856 z"
     style="font-style:normal;font-variant:normal;font-weight:normal;font-stretch:normal;font-size:16.9333px;font-family:Javar;-inkscape-font-specification:Javar"
     id="path17" />
  <path
     d="m 77.04615,38.039636 q 1.442248,-0.887299 3.026432,-1.285362 1.584185,-0.398063 3.022985,-0.289176 1.44435,0.08559 2.583571,0.677006 1.14477,0.568119 1.688218,1.645352 0.55787,1.068361 0.354672,2.644708 -0.188775,1.567474 -1.429263,3.622932 -0.383919,0.733228 -0.920936,1.540762 -0.531467,0.78424 -1.228229,1.590646 -0.691212,0.783111 -1.53107,1.518503 -0.839858,0.735392 -1.835009,1.347628 -0.778813,0.479142 -1.657456,0.860649 -0.86422,0.372635 -1.831592,0.609918 -1.14709,0.268323 -2.291922,0.217156 -1.153705,-0.06559 -2.122113,-0.443989 -0.977281,-0.392823 -1.676083,-1.07626 -0.707675,-0.697859 -0.948282,-1.70295 -0.240606,-1.00509 0.06462,-2.286341 0.296349,-1.295673 1.344861,-2.855279 0.411667,-0.849705 0.83553,-1.647269 0.41499,-0.811987 1.007471,-1.594 0.606903,-0.790887 1.452311,-1.549574 0.850957,-0.781982 2.091289,-1.54506 z m 9.03589,6.608307 q 0.388402,-1.11373 0.282018,-2.062228 -0.09196,-0.957371 -0.558905,-1.684044 -0.475818,-0.741096 -1.300002,-1.208227 -0.818634,-0.490426 -1.898,-0.661393 -1.064945,-0.17984 -2.349581,-0.0058 -1.279086,0.150717 -2.681359,0.715204 -0.491462,0.20295 -0.941882,0.440295 -0.444871,0.214049 -0.8487,0.462493 -0.850926,0.523506 -1.506615,1.105831 -0.664562,0.567902 -1.16383,1.113638 -0.484846,0.536862 -0.802171,0.990544 -0.302903,0.444809 -0.468228,0.725452 -0.26854,0.662243 -0.280829,1.385531 -0.02116,0.708866 0.198406,1.388917 0.23399,0.671179 0.705387,1.275825 0.476946,0.581351 1.204624,0.988566 0.718805,0.392792 1.676145,0.559307 0.971763,0.157643 2.180963,-0.0097 1.171482,-0.164042 2.229841,-0.57659 1.072782,-0.421421 2.024665,-1.007038 1.413403,-0.869553 2.505121,-1.938826 1.082845,-1.083695 1.792932,-1.997706 z"
     style="font-style:normal;font-variant:normal;font-weight:normal;font-stretch:normal;font-size:16.9333px;font-family:Javar;-inkscape-font-specification:Javar"
     id="path19" />
  <path
     d="m 100.82793,28.001092 q 0.5227,0.01809 0.87519,0.48451 0.15313,0.187973 0.2771,0.504947 0.12398,0.316974 0.18864,0.778362 0.0798,0.453681 0.0854,1.097345 -0.002,0.628586 -0.1156,1.485353 -0.21914,1.766474 -0.56996,3.200896 -0.35853,1.419344 -0.8035,2.483516 -0.44497,1.064173 -0.961311,1.765467 -0.524048,0.686216 -1.066857,0.96365 -0.46742,0.238902 -1.104382,0.146086 -0.636963,-0.09281 -1.366739,-0.40443 -0.737482,-0.326692 -1.544322,-0.789087 -0.791763,-0.470102 -1.598939,-0.97036 -0.799804,-0.523042 -1.576488,-1.00085 -0.784391,-0.492886 -1.484011,-0.819914 -0.692248,-0.349812 -1.276605,-0.488532 -0.569278,-0.146426 -0.969014,0.03887 -0.113253,0.03887 -0.165524,0.122635 -0.05227,0.08377 -0.135702,0.06936 -0.04557,-0.01474 -0.03083,-0.06031 0.02211,-0.06835 0.02949,-0.09114 0.08142,-0.212768 0.191995,-0.554536 0.110573,-0.341768 0.243931,-0.676165 0.148436,-0.342103 0.305248,-0.593403 0.164184,-0.274085 0.330377,-0.320994 0.732458,-0.241246 1.651546,0.06869 0.919089,0.30994 1.923954,0.899326 1.012237,0.566601 2.063676,1.284318 1.05881,0.694933 2.040556,1.239085 0.996823,0.536445 1.885086,0.786073 0.895634,0.226843 1.574146,-0.11995 0.407109,-0.208075 0.706319,-0.627244 0.29017,-0.585696 0.49591,-1.299389 0.20573,-0.713693 0.29754,-1.464243 0.0992,-0.773335 0.062,-1.553037 -0.0221,-0.787408 -0.21008,-1.490044 -0.17289,-0.710343 -0.51131,-1.298052 -0.34612,-0.602787 -0.879882,-1.014586 z"
     style="font-style:normal;font-variant:normal;font-weight:normal;font-stretch:normal;font-size:16.9333px;font-family:Javar;-inkscape-font-specification:Javar"
     id="path21" />
  <path
     d="m 119.89355,29.845473 q 0.15494,-0.156368 0.18745,-0.29836 0.0416,-0.16414 0.15235,-0.118593 0.13289,0.05466 0.0562,0.398562 -0.0676,0.32176 -0.31623,0.737375 -0.24863,0.415616 -0.66399,0.827389 -0.39973,0.405253 -0.93109,0.626897 -0.64075,0.267277 -1.44707,0.181624 -0.79722,-0.107801 -1.67658,-0.456544 -0.87937,-0.348743 -1.79267,-0.866806 -0.90419,-0.54021 -1.75239,-1.122124 -0.83257,-0.588433 -1.58959,-1.171685 -0.74139,-0.589771 -1.28604,-1.059784 -0.20408,1.094234 -0.51103,2.249729 -0.31347,1.139866 -0.70642,2.221148 -0.38384,1.059135 -0.81984,1.993244 -0.42036,0.927591 -0.83822,1.597272 0.78776,-0.750585 1.71759,-1.248529 0.92332,-0.513572 1.92352,-0.930784 0.64076,-0.267276 1.25419,-0.468111 0.61343,-0.200836 1.04977,-0.254412 0.3139,-0.0392 0.54707,-0.008 0.23317,0.03117 0.39731,0.07279 0.17718,0.07287 0.30095,0.149677 -0.0806,0.290503 -0.30846,0.624049 -0.21871,0.311398 -0.46608,0.598059 -0.28123,0.337475 -0.61585,0.678877 -0.20977,-0.151015 -0.56538,-0.167809 -0.3465,-0.03894 -0.79194,0.03678 -0.45197,0.06009 -0.97163,0.221816 -0.51055,0.139575 -1.04191,0.361219 -0.48447,0.202087 -1.01842,0.461506 -0.52485,0.237272 -1.0145,0.51491 -0.48055,0.255491 -0.8725,0.547419 -0.39196,0.291928 -0.60156,0.581179 -0.10806,0.136811 -0.25908,0.346583 -0.15753,0.194144 -0.29033,0.359622 -0.17316,0.200662 -0.34632,0.401325 -0.13021,0.127702 -0.2188,0.09126 -0.0795,-0.05858 -0.0899,-0.127616 0.0117,-0.05992 0.0612,-0.117254 0.15102,-0.209772 0.29292,-0.397397 0.14191,-0.187625 0.28381,-0.37525 0.58969,-0.961523 1.14928,-2.259096 0.57523,-1.304092 1.03186,-2.760538 0.46574,-1.478592 0.77644,-3.02095 0.31982,-1.564505 0.41826,-2.999969 0.29685,-0.343993 0.55592,-0.690576 0.24086,-0.30229 0.47519,-0.620207 0.23434,-0.317918 0.38143,-0.581093 0.41043,0.324178 1.02153,0.821518 0.62672,0.490821 1.35508,1.049336 0.74398,0.551996 1.53877,1.137838 0.8039,0.563696 1.58173,1.064879 0.78694,0.479035 1.50609,0.839564 0.71916,0.360528 1.28713,0.490562 0.89625,0.21327 1.41465,0.180503 0.52752,-0.05491 0.7932,-0.165736 0.21879,-0.09127 0.29301,-0.177264 z"
     style="font-style:normal;font-variant:normal;font-weight:normal;font-stretch:normal;font-size:16.9333px;font-family:Javar;-inkscape-font-specification:Javar"
     id="path23" />
  <path
     d="m 119.88923,20.285307 q 0.45245,-0.141735 1.34023,-0.366604 0.88777,-0.224868 2.02202,-0.455968 1.14534,-0.25232 2.45637,-0.485563 1.31102,-0.233242 2.6312,-0.380627 1.32017,-0.147385 2.5687,-0.183603 1.24853,-0.03622 2.25273,0.110571 1.0153,0.125569 1.69437,0.480675 0.69523,0.350045 0.88758,0.964088 0.13668,0.436294 0.028,1.109134 -0.11369,0.656682 -0.61617,1.488389 -0.48633,0.826645 -1.43017,1.778866 -0.94384,0.952221 -2.48362,1.984657 -1.54484,1.016276 -3.74928,2.079475 -2.20444,1.063199 -5.21197,2.111801 -0.0272,0.02628 -0.0383,0.0475 -0.0162,0.0051 -0.0434,0.03135 -0.38159,0.367961 -0.54318,0.418581 -0.12927,0.04049 -0.16568,-0.01908 -0.0203,-0.06464 0.0181,-0.11214 0.17151,-0.302156 0.20967,-0.633514 0.0493,-0.352579 -0.0329,-0.841439 -0.0872,-0.505019 -0.30489,-1.199857 -0.20151,-0.699901 -0.55273,-1.707796 -0.0911,-0.290862 -0.27432,-0.819048 -0.16704,-0.533249 -0.29067,-1.097842 -0.12363,-0.564593 -0.15225,-1.052479 -0.0125,-0.492949 0.20052,-0.719371 0.48652,-0.542791 0.80347,-0.890505 0.32805,-0.368934 0.50268,-0.547853 -0.94637,0.207736 -1.79676,0.43864 -0.85546,0.214745 -1.5503,0.432409 0.013,-0.128299 0.2381,-0.429482 0.23616,-0.322404 0.52585,-0.643834 0.30079,-0.342652 0.55719,-0.600419 0.25134,-0.273927 0.29982,-0.289112 z m 11.75545,4.72851 q 0.76843,-0.43591 1.38831,-0.949498 0.63604,-0.518651 1.06299,-1.025035 0.42188,-0.522543 0.61754,-0.974219 0.20676,-0.472897 0.11058,-0.779919 -0.15186,-0.484771 -0.80056,-0.742923 -0.6487,-0.258152 -1.65387,-0.351402 -1.00517,-0.09325 -2.28096,-0.03075 -1.25963,0.05744 -2.6606,0.230134 -1.38987,0.151474 -2.81907,0.403991 -1.43426,0.236358 -2.76242,0.528201 -0.0292,0.133361 -0.0543,0.33642 -0.014,0.181838 0.0327,0.557585 0.0467,0.375746 0.20072,1.037293 0.1651,0.640327 0.49919,1.706823 0.14174,0.452453 0.31988,0.96448 0.18924,0.490806 0.33603,0.959418 0.16296,0.46355 0.26225,0.893809 0.0942,0.4141 0.051,0.729299 -0.006,0.03738 -0.006,0.03738 0.26964,-0.102212 0.78167,-0.280354 0.51202,-0.178142 1.17552,-0.439221 0.67965,-0.266141 1.46735,-0.583875 0.78771,-0.317734 1.59761,-0.67791 0.82605,-0.365237 1.62583,-0.757731 0.81593,-0.397556 1.50863,-0.791996 z"
     style="font-style:normal;font-variant:normal;font-weight:normal;font-stretch:normal;font-size:16.9333px;font-family:Javar;-inkscape-font-specification:Javar"
     id="path25" />
  <path
     d="m 138.89501,15.048693 q 0.0652,-0.08662 0.15102,-0.161049 0.098,-0.09503 0.16364,-0.111839 0.0656,-0.01681 0.0744,0.08582 0.005,0.08622 -0.1006,0.357893 -0.22641,0.617365 0.0101,1.745419 0.23654,1.128054 0.67777,2.850436 0.34038,1.328695 0.6043,2.22249 0.26393,0.893796 0.20535,1.415726 -0.022,0.460112 -0.32741,0.905441 -0.28904,0.441126 -1.04158,0.983511 -0.16363,0.111839 -0.31506,0.203071 -0.15143,0.09123 -0.23345,0.112244 -0.19684,0.05043 -0.002,-0.279267 0.14642,-0.24727 0.0523,-0.887417 -0.0819,-0.660752 -0.27517,-1.41532 -0.1811,-0.775173 -0.3988,-1.488529 -0.2177,-0.713355 -0.31435,-1.090639 -0.11306,-0.373081 -0.28494,-0.975814 -0.15969,-0.623338 -0.25376,-1.263485 -0.0941,-0.640147 -0.0767,-1.18648 0.0174,-0.546332 0.28701,-0.79021 0.52289,-0.483554 0.82955,-0.719433 0.30245,-0.252282 0.5679,-0.512564 z"
     style="font-style:normal;font-variant:normal;font-weight:normal;font-stretch:normal;font-size:16.9333px;font-family:Javar;-inkscape-font-specification:Javar"
     id="path27" />
  <path
     d="m 158.88186,19.879088 q 0.183,-0.12234 0.24317,-0.255002 0.0735,-0.152548 0.17293,-0.08584 0.11932,0.08005 -0.0244,0.40176 -0.1304,0.301823 -0.45689,0.65953 -0.32649,0.357708 -0.8156,0.678411 -0.47249,0.317431 -1.03737,0.428696 -0.68118,0.134173 -1.45424,-0.110506 -0.75972,-0.264566 -1.55191,-0.781616 -0.79219,-0.51705 -1.58388,-1.206786 -0.77835,-0.709623 -1.49351,-1.44895 -0.69855,-0.742599 -1.3241,-1.46506 -0.60893,-0.725734 -1.04896,-1.294892 -0.41812,1.031586 -0.94926,2.102693 -0.53442,1.054494 -1.13505,2.035734 -0.58728,0.961354 -1.20074,1.789795 -0.59685,0.825168 -1.13983,1.398104 0.92158,-0.578474 1.93202,-0.881054 1.00717,-0.319194 2.07047,-0.528634 0.68118,-0.134173 1.32233,-0.208686 0.64116,-0.07451 1.07942,-0.04003 0.31541,0.02416 0.53769,0.101194 0.22228,0.07703 0.37483,0.150533 0.15909,0.106733 0.26507,0.206669 -0.13694,0.268595 -0.42668,0.550029 -0.2764,0.261546 -0.57596,0.493137 -0.34285,0.274637 -0.73882,0.542478 -0.17546,-0.189804 -0.52058,-0.277153 -0.33178,-0.107236 -0.78338,-0.121836 -0.45487,-0.03121 -0.99634,0.02366 -0.52813,0.03499 -1.09301,0.146257 -0.51504,0.101447 -1.08998,0.249213 -0.56161,0.127879 -1.09679,0.302328 -0.52183,0.154563 -0.96412,0.362491 -0.44229,0.207929 -0.70534,0.449589 -0.13317,0.112523 -0.32297,0.287979 -0.19308,0.158841 -0.3562,0.294523 -0.20969,0.162114 -0.41938,0.324228 -0.15305,0.09918 -0.23259,0.04582 -0.0662,-0.07325 -0.0627,-0.142982 0.0234,-0.05639 0.0833,-0.102706 0.1898,-0.175455 0.36626,-0.331024 0.17647,-0.155569 0.35293,-0.311137 0.76953,-0.824666 1.57657,-1.984634 0.82366,-1.16324 1.56147,-2.499419 0.75116,-1.356065 1.36311,-2.805521 0.62529,-1.469343 1.00792,-2.85637 0.35947,-0.277909 0.68243,-0.565888 0.29629,-0.248205 0.5893,-0.513024 0.29301,-0.264819 0.48961,-0.49339 0.33757,0.399494 0.83726,1.008677 0.51629,0.605911 1.11868,1.298416 0.619,0.689233 1.28105,1.421763 0.67539,0.712643 1.33769,1.358831 0.67564,0.6263 1.30849,1.12296 0.63285,0.49666 1.16349,0.737312 0.83574,0.387662 1.35028,0.4589 0.52787,0.05135 0.81031,-0.0043 0.2326,-0.04582 0.32247,-0.115292 z"
     style="font-style:normal;font-variant:normal;font-weight:normal;font-stretch:normal;font-size:16.9333px;font-family:Javar;-inkscape-font-specification:Javar"
     id="path29" />
  <path
     d="m 185.34938,6.3552952 q 0.16275,0.1594073 0.24633,0.4086415 0.0635,0.1996004 0.0658,0.5048619 0.0192,0.3041959 -0.14114,0.7215119 -0.21727,0.5905762 -0.82201,1.4940229 -0.58785,0.9023816 -1.44396,1.8556116 -0.85611,0.95323 -1.88761,1.815718 -1.0146,0.861422 -2.08538,1.37008 0.0457,0.455228 0.0744,0.911522 0.0457,0.455228 0.0543,0.861888 0.008,0.38976 -0.0218,0.730952 -0.0136,0.323227 -0.0853,0.531353 -0.12972,0.364485 -0.4327,0.672028 -0.28715,0.289577 -0.62819,0.531651 -0.32521,0.22411 -0.63671,0.396454 -0.31257,0.155444 -0.49208,0.268565 -0.30937,0.206144 -0.49207,0.268564 -0.18164,0.07932 -0.29993,0.08678 -0.1521,0.0096 -0.17433,-0.07384 -0.005,-0.0845 0.0263,-0.12043 0.27025,-0.288512 0.419,-0.620263 0.16458,-0.349717 0.21711,-0.862038 0.0684,-0.530287 0.0384,-1.274942 -0.0131,-0.745721 -0.11721,-1.858975 -0.85778,-0.149517 -1.68617,-0.640227 -0.81255,-0.508675 -1.6009,-1.171579 -0.77251,-0.680869 -1.48062,-1.4167 -0.7081,-0.735831 -1.32426,-1.358692 -0.61615,-0.6228604 -1.13288,-1.0144523 -0.5009,-0.4095572 -0.87376,-0.4030138 -0.23766,-0.00198 -0.24192,-0.06958 -0.004,-0.067599 0.11084,-0.1257576 0.1964,-0.1141858 0.53744,-0.3562605 0.35688,-0.2600399 0.71482,-0.5031802 0.37484,-0.2442058 0.66838,-0.4323843 0.30938,-0.2061438 0.42767,-0.213603 0.42037,-0.06044 1.00896,0.394489 0.6055,0.4538629 1.29457,1.15696 0.70598,0.7020315 1.48808,1.5349987 0.79794,0.815002 1.62328,1.526474 0.82428,0.694572 1.63363,1.152548 0.82626,0.456909 1.60365,0.407892 0.3718,-0.02344 0.66853,-0.160923 0.16474,-0.07826 0.50152,-0.387928 0.33678,-0.309674 0.73157,-0.775708 0.39478,-0.466034 0.78425,-1.016567 0.38839,-0.567433 0.64052,-1.1432398 0.26903,-0.5768732 0.3374,-1.1071597 0.0673,-0.5471863 -0.17797,-0.938928 z"
     style="font-style:normal;font-variant:normal;font-weight:normal;font-stretch:normal;font-size:16.9333px;font-family:Javar;-inkscape-font-specification:Javar"
     id="path31" />
  <path
     d="m 195.13641,8.7129538 q 1.38828,0.026942 2.66708,0.4582362 1.27881,0.4312942 2.23035,1.144158 0.95188,0.695934 1.4759,1.620676 0.54128,0.90814 0.43725,1.905376 -0.10371,0.980305 -0.93607,1.980343 -0.8151,0.983436 -2.59358,1.863493 -0.5822,0.327432 -1.31676,0.651907 -0.71731,0.307873 -1.55182,0.545726 -0.81757,0.238181 -1.73476,0.37281 -0.90025,0.134957 -1.84834,0.116558 -0.76186,-0.01478 -1.53834,-0.14841 -0.75956,-0.133296 -1.55035,-0.402691 -0.90864,-0.305555 -1.69384,-0.862762 -0.76828,-0.556878 -1.27997,-1.244269 -0.49443,-0.703993 -0.66555,-1.486394 -0.17079,-0.799331 0.0986,-1.590119 0.26972,-0.807719 1.04636,-1.55479 0.7939,-0.763673 2.21159,-1.379748 0.65156,-0.410768 1.30213,-0.7707459 0.66783,-0.3765794 1.41835,-0.6499352 0.76777,-0.2899573 1.68528,-0.4415164 0.93444,-0.1512306 2.13648,-0.1279027 z m 3.30542,8.5832182 q 0.75675,-0.595029 1.10915,-1.299524 0.36934,-0.704166 0.36621,-1.415561 -0.003,-0.728324 -0.36213,-1.412758 -0.34206,-0.701036 -1.00809,-1.289804 -0.66571,-0.605697 -1.62218,-1.064609 -0.95648,-0.458912 -2.17151,-0.68573 -0.43854,-0.09319 -0.84453,-0.118009 -0.40567,-0.041746 -0.79506,-0.049303 -0.81265,-0.015771 -1.52602,0.088941 -0.71336,0.104711 -1.29227,0.262842 -0.57891,0.15813 -1.00578,0.336148 -0.40961,0.161416 -0.64926,0.292257 -0.72125,0.511035 -1.10981,1.333384 -0.37164,0.822677 -0.27087,1.739205 0.11803,0.899926 0.77815,1.793436 0.66045,0.87658 2.03689,1.513007 0.88974,0.406807 1.81762,0.594179 0.9282,0.170442 1.84242,0.188185 1.37135,0.02661 2.59557,-0.220613 1.22456,-0.264156 2.1115,-0.585673 z"
     style="font-style:normal;font-variant:normal;font-weight:normal;font-stretch:normal;font-size:16.9333px;font-family:Javar;-inkscape-font-specification:Javar"
     id="path33" />
  <path
     d="m 209.11838,13.516115 q 0.74616,0.194762 1.70792,0.445414 0.97861,0.252359 1.98579,0.558674 1.02574,0.291175 1.9941,0.644616 0.98692,0.338302 1.72944,0.736935 0.76108,0.383494 1.19353,0.818783 0.44929,0.436996 0.40149,0.908713 -0.0444,0.438023 -0.62983,1.008434 -0.56687,0.555272 -1.60035,1.012195 -1.03347,0.456924 -2.4896,0.717833 -1.45442,0.244061 -3.2402,0.06308 -1.41515,-0.14342 -2.64647,-0.42139 -1.23302,-0.261123 -2.1694,-0.594303 -0.91782,-0.348319 -1.50872,-0.731586 -0.5909,-0.383267 -0.74207,-0.738989 l 2.0386,-1.137981 q 0.11258,0.232671 0.50302,0.578602 0.40729,0.347639 1.08755,0.688901 0.68026,0.341263 1.6386,0.625609 0.95835,0.284346 2.17134,0.407278 0.80866,0.08195 1.62414,0.09652 0.8172,-0.0023 1.51988,-0.05021 0.71952,-0.04622 1.27058,-0.109511 0.55277,-0.08014 0.83256,-0.153904 0.10131,-0.159934 0.11839,-0.328404 0.0154,-0.151624 -0.035,-0.326923 -0.0486,-0.192147 -0.26739,-0.384521 -0.17166,-0.153558 -0.61287,-0.334433 -0.43951,-0.197723 -1.03234,-0.393965 -0.59113,-0.213089 -1.28504,-0.419576 -0.67537,-0.221626 -1.3373,-0.407851 -0.64508,-0.184517 -1.22619,-0.328511 -0.56255,-0.159133 -0.90951,-0.262376 -0.34696,-0.103244 -0.91122,-0.24553 -0.56256,-0.159133 -1.18908,-0.35879 -0.60798,-0.214797 -1.22938,-0.464995 -0.62141,-0.250198 -1.11806,-0.555832 -0.49664,-0.305635 -0.78601,-0.641322 -0.28765,-0.352534 -0.25009,-0.723169 0.0512,-0.505411 0.68891,-1.087547 0.65452,-0.580429 1.74024,-1.049077 1.10257,-0.466941 2.54014,-0.7127102 1.45442,-0.2440614 3.08859,-0.078445 5.69429,0.5770962 6.22556,2.7244072 0.0234,0.104497 -0.28686,0.311329 -0.30859,0.189986 -0.71998,0.386575 -0.39454,0.198296 -0.78395,0.346051 -0.38942,0.147755 -0.5242,0.134096 -0.0674,-0.0068 -0.0623,-0.05737 0.0422,-0.08082 0.0508,-0.165056 0.0525,-0.181902 -0.0315,-0.360617 -0.084,-0.178714 -0.36164,-0.462153 -0.27593,-0.300285 -0.77428,-0.589073 -0.48151,-0.28708 -1.2394,-0.53409 -0.73934,-0.26215 -1.78385,-0.368008 -1.01082,-0.102443 -1.9291,-0.110407 -0.89972,-0.0231 -1.63781,0.03826 -0.73637,0.04451 -1.25885,0.16176 -0.50564,0.118956 -0.7283,0.300632 -0.42424,0.995229 3.18695,1.973932 z"
     style="font-style:normal;font-variant:normal;font-weight:normal;font-stretch:normal;font-size:16.9333px;font-family:Javar;-inkscape-font-specification:Javar"
     id="path35" />
  <path
     d="m 232.41398,22.215908 q 0.43921,0.04564 0.77091,0.02004 0.33474,-0.04226 0.54679,-0.07245 0.21509,-0.04685 0.33777,-0.05891 0.12269,-0.01206 0.14386,0.06065 0.0348,0.0924 -0.26671,0.330054 -0.29847,0.220991 -0.88925,0.440335 -0.57109,0.205721 -1.41626,0.309843 -0.82548,0.0905 -1.86136,-0.08112 -0.68301,-0.124504 -1.6992,-0.309742 -1.01315,-0.201896 -2.14595,-0.408391 -1.11311,-0.220117 -2.25953,-0.446307 -1.12976,-0.223153 -2.06266,-0.393208 -0.86626,-0.157907 -1.48567,-0.253606 -0.60275,-0.09266 -0.79207,-0.09275 -0.18932,-8.6e-5 -0.29231,-0.0016 -0.10299,-0.0016 -0.16659,-0.03037 -0.12269,0.01206 -0.14082,-0.07731 l -0.0136,-0.0197 q 0.0121,-0.06664 0.0515,-0.09388 0.29239,-0.187674 0.4667,-0.482934 0.194,-0.308883 0.31842,-0.802575 0.14108,-0.490654 0.255,-1.21002 0.11392,-0.719366 0.26887,-1.758286 0.041,-0.319555 0.12763,-0.888991 0.0866,-0.569437 0.20953,-1.149459 0.14264,-0.593644 0.34732,-1.055493 0.20467,-0.461849 0.49551,-0.546532 0.55893,-0.139087 0.94521,-0.275222 0.40597,-0.149758 0.66349,-0.240515 -0.79963,-0.145761 -1.31909,-0.223239 -0.49976,-0.0911 -0.60579,-0.076 -0.27869,0.01805 -0.48319,0.101256 -0.20147,0.06655 -0.32563,-0.0077 -0.0742,-0.06516 0.28485,-0.240686 0.35903,-0.175527 0.87103,-0.340382 0.51503,-0.181514 1.0043,-0.316088 0.50896,-0.148196 0.69828,-0.14811 0.2393,0.0092 0.98894,0.145846 0.76631,0.139688 1.7825,0.324926 1.01618,0.185238 2.16261,0.411428 1.16611,0.212568 2.21258,0.420538 1.04951,0.191311 1.84913,0.337072 0.81932,0.132139 1.13887,0.173177 0.33925,0.02742 0.62402,-0.02395 0.30445,-0.06499 0.34228,0.01076 0.0378,0.07575 -0.2576,0.280078 -0.2924,0.187673 -0.82713,0.382809 -0.51503,0.181514 -1.2239,0.29327 -0.68917,0.09813 -1.47517,-0.02793 -0.51642,-0.09414 -1.36602,-0.249008 -0.82991,-0.168493 -1.80974,-0.364316 -0.96318,-0.192787 -1.97633,-0.394684 -1.01315,-0.201896 -1.87941,-0.359804 -0.0682,0.09084 -0.17127,0.278602 -0.0864,0.190796 -0.20927,0.581498 -0.11982,0.374042 -0.26853,1.001004 -0.14872,0.626962 -0.32788,1.609832 -0.0334,0.183247 -0.0729,0.399812 -0.0364,0.199906 -0.0562,0.402848 0.23027,-0.130148 0.51963,-0.301162 0.28936,-0.171014 0.5893,-0.305674 0.31964,-0.148283 0.63017,-0.246588 0.31053,-0.09831 0.58619,-0.0997 0.49525,0.02143 1.17826,0.145933 0.70271,0.110882 1.38572,0.235386 0.68301,0.124504 1.22971,0.241374 0.54671,0.116869 0.73299,0.133614 0.30593,0.02134 0.50133,-0.01189 0.19843,-0.04989 0.18324,0.0334 -0.0182,0.09995 -0.26367,0.313394 -0.22576,0.19982 -0.60449,0.388969 -0.37569,0.17249 -0.86192,0.290405 -0.48319,0.101257 -0.98295,0.01016 -0.44979,-0.08199 -1.06313,-0.211007 -0.59668,-0.125979 -1.21609,-0.221678 -0.59972,-0.10932 -1.12526,-0.153481 -0.52249,-0.06082 -0.80725,-0.0095 -0.23175,0.04382 -0.39383,0.08312 -0.16207,0.03931 -0.2878,0.06802 -0.10333,0.755721 -0.22176,1.405414 -0.11539,0.633036 -0.31244,0.958577 -0.11062,0.134746 -0.2379,0.266456 -0.10759,0.118087 -0.23184,0.233137 0.14238,-0.02568 0.27869,-0.01805 0.13935,-0.009 0.25899,-0.0044 0.30897,0.0047 1.12525,0.153481 0.81629,0.148798 1.89607,0.362841 1.08283,0.197385 2.29285,0.45238 1.22971,0.241374 2.32616,0.458454 1.09644,0.21708 1.92939,0.368914 0.8496,0.154871 1.2055,0.185324 z"
     style="font-style:normal;font-variant:normal;font-weight:normal;font-stretch:normal;font-size:16.9333px;font-family:Javar;-inkscape-font-specification:Javar"
     id="path37" />
  <path
     d="m 249.65969,17.303185 q 0.33177,0.07005 0.60761,0.02027 0.29221,-0.04547 0.34042,0.03731 0.0318,0.07845 -0.27858,0.259224 -0.31041,0.180768 -0.84231,0.338105 -0.52758,0.140963 -1.24298,0.197325 -0.69471,0.04431 -1.46855,-0.142422 -0.49118,-0.129641 -1.30981,-0.34571 -0.79794,-0.228121 -1.74323,-0.495133 -0.94529,-0.267013 -1.9397,-0.54699 -0.97372,-0.292028 -1.82077,-0.533113 -0.0751,0.08527 -0.20445,0.243764 -0.1087,0.146441 -0.27791,0.522099 -0.15283,0.379979 -0.38344,1.054666 -0.2263,0.658314 -0.52447,1.788027 l -0.15125,0.573042 q 0.25606,-0.107548 0.55783,-0.255572 0.30176,-0.148024 0.61126,-0.258981 0.31382,-0.127329 0.63105,-0.201219 0.31722,-0.07389 0.59215,-0.05387 0.34042,0.03731 0.83592,0.150579 0.4955,0.113269 1.06854,0.264517 0.57304,0.151248 1.16246,0.306818 0.60579,0.159891 1.09264,0.305905 0.50756,0.133963 0.86775,0.229033 0.37658,0.09939 0.49118,0.129642 0.30335,0.04504 0.50074,0.02708 0.2017,-0.03433 0.1801,0.04753 -0.0259,0.09824 -0.28722,0.291969 -0.2406,0.181682 -0.63288,0.340844 -0.38795,0.142789 -0.88187,0.222584 -0.48959,0.06342 -0.98077,-0.06622 -0.44206,-0.116677 -1.20726,-0.336155 -0.74882,-0.215156 -1.5554,-0.410531 -0.78588,-0.207426 -1.47013,-0.335485 -0.67992,-0.144431 -0.96781,-0.115338 -0.23445,0.02569 -0.39909,0.05228 -0.16464,0.0266 -0.29221,0.04547 -0.16172,0.745412 -0.33457,1.400318 -0.15216,0.642854 -0.39027,0.947787 -0.18807,0.248085 -0.5028,0.445227 -0.29404,0.18509 -0.61218,0.328792 -0.31382,0.12733 -0.61467,0.205542 -0.28448,0.08253 -0.45344,0.125504 -0.28016,0.06616 -0.44048,0.07639 -0.13963,-0.0018 -0.22149,-0.02343 -0.0982,-0.02593 -0.0853,-0.07505 0.013,-0.04912 0.0543,-0.07322 0.29404,-0.18509 0.48211,-0.433175 0.18807,-0.248086 0.3375,-0.681504 0.16579,-0.429097 0.33865,-1.084003 0.17717,-0.671278 0.41667,-1.711398 0.0778,-0.294707 0.19629,-0.876392 0.1392,-0.593737 0.32751,-1.174509 0.19264,-0.597145 0.43689,-1.058075 0.24425,-0.460929 0.52441,-0.52709 0.69222,-0.167562 1.15771,-0.272371 0.46549,-0.10481 0.72928,-0.175292 -0.83068,-0.236763 -1.40804,-0.371639 -0.57305,-0.151248 -0.71267,-0.153074 -0.26288,6.7e-4 -0.47322,0.06774 -0.21035,0.06707 -0.32405,-0.03299 -0.0405,-0.04571 0.12076,-0.125747 0.16123,-0.08004 0.42934,-0.166892 0.2888,-0.09891 0.64742,-0.196898 0.35861,-0.09799 0.69221,-0.167562 0.35429,-0.08162 0.62581,-0.115035 0.29221,-0.04547 0.41114,-0.03159 0.23786,0.02775 0.97463,0.222216 0.75747,0.182411 1.7562,0.446016 0.99873,0.263604 2.12412,0.578152 1.14608,0.302496 2.17756,0.574743 1.03148,0.272247 1.81736,0.479674 0.80226,0.211747 1.11767,0.277481 z"
     style="font-style:normal;font-variant:normal;font-weight:normal;font-stretch:normal;font-size:16.9333px;font-family:Javar;-inkscape-font-specification:Javar"
     id="path39" />
  <path
     d="m 275.50155,34.510465 q 0.53188,-0.09488 0.99463,-0.199522 0.47845,-0.09828 0.81522,-0.162666 0.35883,-0.07371 0.56327,-0.08214 0.21079,-0.02412 0.22604,0.07343 0.0216,0.08186 -0.42294,0.32181 -0.42885,0.246314 -1.24452,0.500168 -0.80929,0.238163 -1.94855,0.433832 -1.13289,0.179978 -2.53209,0.16055 -1.3992,-0.01943 -3.03287,-0.316718 -1.62731,-0.312982 -3.40042,-1.032315 -2.44783,-0.993061 -4.02064,-2.161074 -1.55712,-1.161647 -2.30288,-2.341333 -0.73938,-1.195377 -0.70856,-2.352394 0.0529,-1.166343 0.82503,-2.168796 0.50955,-0.670423 1.40205,-1.20376 0.91455,-0.542662 2.10178,-0.901609 1.19359,-0.374638 2.60004,-0.553277 1.40646,-0.178638 2.9155,-0.11465 1.5154,0.0483 3.06721,0.367198 1.55818,0.30321 3.03315,0.901593 2.11832,0.85938 3.30225,1.814809 1.19963,0.961794 1.54763,1.815652 0.36369,0.860223 -0.086,1.518362 -0.42768,0.648813 -1.57035,0.897922 -0.20147,0.04618 -0.56963,0.09783 -0.3461,0.04233 -0.72358,0.07193 -0.37748,0.0296 -0.70449,0.02485 -0.327,-0.0047 -0.4996,-0.07477 -0.14122,-0.05729 -0.13145,-0.126422 0.007,-0.106879 0.21761,-0.131003 0.22649,-0.01776 0.43433,-0.07963 0.62351,-0.185616 0.78651,-0.722524 0.16936,-0.552599 -0.24526,-1.287293 -0.40825,-0.750384 -1.46074,-1.57939 -1.03042,-0.838332 -2.81286,-1.579722 -1.59414,-0.665 -2.97971,-0.898186 -1.36352,-0.242512 -2.50529,-0.175778 -1.14177,0.06673 -2.0584,0.389271 -0.89456,0.313213 -1.54147,0.781717 -0.62486,0.459179 -0.99229,1.00452 -0.36106,0.529649 -0.4422,1.044946 -0.11726,0.829569 0.25235,1.765288 0.36962,0.93572 1.22655,1.886403 0.8633,0.934993 2.21732,1.831509 1.35403,0.896516 3.23698,1.66041 1.905,0.754568 3.74992,0.936546 1.86061,0.188345 3.42146,-0.05557 z"
     style="font-style:normal;font-variant:normal;font-weight:normal;font-stretch:normal;font-size:16.9333px;font-family:Javar;-inkscape-font-specification:Javar"
     id="path41" />
  <path
     d="m 292.0043,45.090363 q 0.21936,0.01847 0.34912,-0.04772 0.15258,-0.07342 0.18872,0.04073 0.0434,0.136984 -0.26961,0.298859 -0.29015,0.154647 -0.76844,0.230704 -0.4783,0.07606 -1.06065,0.02178 -0.56732,-0.04647 -1.07831,-0.311727 -0.61619,-0.319866 -1.06797,-0.993202 -0.42896,-0.680563 -0.72586,-1.578761 -0.2969,-0.898198 -0.48572,-1.931083 -0.166,-1.040112 -0.26407,-2.064048 -0.0831,-1.016133 -0.12159,-1.971002 -0.0235,-0.947068 -0.0126,-1.666402 -0.97014,0.54574 -2.05328,1.051898 -1.07534,0.491129 -2.15675,0.883708 -1.05859,0.385352 -2.05476,0.650471 -0.98115,0.272921 -1.7629,0.382244 1.08119,0.122428 2.0598,0.515954 0.98641,0.378496 1.94827,0.877799 0.61619,0.319866 1.16389,0.661414 0.5477,0.341549 0.86882,0.641792 0.23151,0.215574 0.35725,0.414397 0.12574,0.198823 0.19916,0.35141 0.0578,0.182645 0.0784,0.326857 -0.27454,0.124589 -0.67654,0.163935 -0.37917,0.03212 -0.75777,0.02638 -0.43929,9.12e-4 -0.91586,-0.03661 -0.0188,-0.257791 -0.23415,-0.541283 -0.19251,-0.29072 -0.53645,-0.583736 -0.33615,-0.308045 -0.79367,-0.602784 -0.4347,-0.301966 -0.94569,-0.56722 -0.4659,-0.24185 -1.00752,-0.484848 -0.51879,-0.250226 -1.04595,-0.447563 -0.50434,-0.204564 -0.97976,-0.317806 -0.47543,-0.113242 -0.83177,-0.08835 -0.17427,0.0049 -0.43206,0.02374 -0.24999,0.0038 -0.46212,0.0081 -0.26501,-0.004 -0.53003,-0.008 -0.1815,-0.0179 -0.21041,-0.109223 -0.006,-0.09855 0.0402,-0.150865 0.0535,-0.02948 0.12918,-0.02833 0.25779,-0.01881 0.49275,-0.0304 0.23496,-0.01158 0.46992,-0.02317 1.11583,-0.164847 2.47007,-0.568436 1.36926,-0.395787 2.77926,-0.980299 1.43283,-0.591739 2.81506,-1.343293 1.40507,-0.758782 2.5691,-1.604529 0.45431,0.0069 0.88637,-0.01685 0.3864,-0.0093 0.7806,-0.0336 0.3942,-0.02432 0.69043,-0.08041 0.0148,0.522808 0.0256,1.310635 0.0258,0.795629 0.0649,1.712638 0.0541,0.924811 0.11493,1.910312 0.0836,0.978274 0.19845,1.896432 0.13766,0.91093 0.32271,1.693826 0.18504,0.782896 0.44982,1.301922 0.41163,0.824201 0.76945,1.200738 0.38066,0.36931 0.63616,0.501937 0.2104,0.109223 0.32398,0.110945 z"
     style="font-style:normal;font-variant:normal;font-weight:normal;font-stretch:normal;font-size:16.9333px;font-family:Javar;-inkscape-font-specification:Javar"
     id="path43" />
  <path
     d="m 306.27895,53.64294 q -0.002,0.09872 -0.37005,0.207692 -0.35912,0.09463 -0.98912,0.07938 -0.60666,-0.0206 -1.43023,-0.237148 -0.80023,-0.221902 -1.69872,-0.765235 -0.58822,-0.368788 -1.46338,-0.917473 -0.86616,-0.563032 -1.84174,-1.174681 -0.95224,-0.617001 -1.93317,-1.251992 -0.96659,-0.625995 -1.77001,-1.129706 -0.74603,-0.467732 -1.28586,-0.786194 -0.53983,-0.318462 -0.71563,-0.388712 -0.26189,-0.124218 -0.34262,-0.154846 -0.0807,-0.03063 -0.12547,-0.118642 l -0.043,-0.02698 q -0.0107,-0.04668 0.045,-0.07173 0.0323,-0.0197 0.079,-0.0304 0.0557,-0.02505 0.11136,-0.0501 0.18138,-0.06616 0.42766,-0.331461 0.24627,-0.265303 0.50348,-0.643672 0.28055,-0.383721 0.55939,-0.828472 0.28783,-0.459097 0.54333,-0.898496 0.26985,-0.430404 0.48037,-0.798069 0.21952,-0.382012 0.35444,-0.597214 0.20689,-0.329976 0.53969,-0.860807 0.34181,-0.545179 0.72665,-1.063373 0.39919,-0.509199 0.80715,-0.872996 0.42231,-0.354802 0.78485,-0.327368 0.69638,0.03688 1.07862,0.09665 0.40558,0.05442 0.76276,0.05851 0.10771,-0.01241 0.22078,-0.0015 0.13641,0.0056 0.19379,0.04156 0.0574,0.03598 -0.0109,0.113066 -0.0593,0.06274 -0.32872,0.173646 -0.60347,0.261211 -1.25815,1.209809 -0.65469,0.948598 -1.59915,2.455011 -0.72858,1.162091 -1.20895,1.96016 -0.46603,0.807064 -0.856,1.142167 -0.13299,0.116484 -0.27668,0.186284 0.0897,0.01628 0.1848,0.0559 0.10942,0.04862 0.18116,0.09359 0.28522,0.118867 0.98822,0.559614 0.70299,0.440747 1.62654,1.039758 0.93254,0.584664 1.96187,1.269981 1.05266,0.679965 1.99056,1.287971 0.93789,0.608006 1.65523,1.057748 0.73169,0.458736 1.05096,0.618934 0.39101,0.205173 0.70857,0.304341 0.32656,0.08482 0.5347,0.135372 0.21714,0.0362 0.33555,0.07047 0.11842,0.03427 0.11114,0.109647 z"
     style="font-style:normal;font-variant:normal;font-weight:normal;font-stretch:normal;font-size:16.9333px;font-family:Javar;-inkscape-font-specification:Javar"
     id="path45" />
  <path
     d="m 317.85119,62.543742 q 0.37542,0.232476 0.68512,0.35399 0.3197,0.107844 0.52371,0.173077 0.21401,0.05156 0.32969,0.09417 0.11568,0.04261 0.10305,0.117277 -0.009,0.09833 -0.38389,0.180833 -0.36494,0.06883 -0.99226,0.0088 -0.60366,-0.06371 -1.40973,-0.33832 -0.78241,-0.278283 -1.63996,-0.884174 -0.56049,-0.409711 -1.39438,-1.01928 -0.8239,-0.62324 -1.75348,-1.30276 -0.90593,-0.683197 -1.83919,-1.38638 -0.91959,-0.69319 -1.68513,-1.252795 -0.71086,-0.519632 -1.22666,-0.875701 -0.50212,-0.346075 -0.67248,-0.428657 -0.17036,-0.08258 -0.26238,-0.128869 -0.092,-0.04629 -0.1367,-0.09993 -0.11568,-0.04261 -0.0931,-0.130948 l -0.004,-0.02366 q 0.04,-0.05468 0.0873,-0.06204 0.34495,-0.04149 0.63051,-0.231278 0.30922,-0.193464 0.63635,-0.583589 0.3408,-0.380132 0.75683,-0.977951 0.41602,-0.597818 1.00824,-1.465367 0.1762,-0.26973 0.50229,-0.744515 0.32609,-0.474786 0.68951,-0.943256 0.38709,-0.472147 0.77258,-0.798637 0.38548,-0.32649 0.68415,-0.275966 0.56369,0.118396 0.97068,0.164203 0.43065,0.04213 0.70198,0.07267 -0.65617,-0.479661 -1.08995,-0.775771 -0.41011,-0.299788 -0.51212,-0.332405 -0.2587,-0.105206 -0.47902,-0.119436 -0.21033,-0.0279 -0.28972,-0.148854 -0.0384,-0.09098 0.36127,-0.0925 0.39964,-0.0015 0.9323,0.07323 0.54266,0.06108 1.04167,0.153171 0.52267,0.08842 0.69303,0.170999 0.21137,0.11256 0.82654,0.562242 0.62883,0.459675 1.46273,1.069245 0.83389,0.609569 1.76715,1.312752 0.95693,0.699506 1.80817,1.342731 0.86123,0.629555 1.51741,1.109216 0.67984,0.475984 0.94957,0.652179 0.29339,0.172519 0.57207,0.250383 0.30235,0.07419 0.30339,0.158848 0.001,0.08466 -0.35391,0.139822 -0.34496,0.04149 -0.91128,-0.01591 -0.54265,-0.06108 -1.22937,-0.269409 -0.66305,-0.21201 -1.31555,-0.668008 -0.42378,-0.309781 -1.12097,-0.819421 -0.67353,-0.513317 -1.47009,-1.116571 -0.78289,-0.59326 -1.60678,-1.2165 -0.8239,-0.62324 -1.53476,-1.142872 -0.10097,0.05204 -0.27557,0.176116 -0.16093,0.134065 -0.44177,0.432175 -0.27085,0.28444 -0.67792,0.783928 -0.40707,0.499488 -0.99665,1.30604 -0.10993,0.150374 -0.23983,0.328088 -0.11992,0.164045 -0.22616,0.338082 0.26397,-0.01679 0.59893,-0.04461 0.33497,-0.02782 0.66361,-0.01831 0.35232,0.0058 0.67465,0.05268 0.32233,0.04685 0.57104,0.165722 0.43641,0.235114 0.99689,0.644824 0.58415,0.406033 1.14464,0.815744 0.56048,0.40971 1.00161,0.753148 0.44113,0.343437 0.6015,0.439689 0.26605,0.152532 0.4564,0.207773 0.20033,0.04157 0.15037,0.109922 -0.06,0.08202 -0.3739,0.167163 -0.29027,0.08146 -0.71357,0.08666 -0.41331,-0.0085 -0.90233,-0.114238 -0.47902,-0.119436 -0.88913,-0.419224 -0.3691,-0.269809 -0.86491,-0.653218 -0.48214,-0.373416 -0.99794,-0.729485 -0.49213,-0.359745 -0.94589,-0.628515 -0.44377,-0.282441 -0.72245,-0.360306 -0.22768,-0.06156 -0.39069,-0.09681 -0.163,-0.03526 -0.28867,-0.06419 -0.42234,0.635152 -0.81207,1.168296 -0.37973,0.519474 -0.69894,0.726608 -0.15829,0.07307 -0.33025,0.136145 -0.1483,0.0594 -0.31026,0.108803 0.13934,0.03893 0.2587,0.105206 0.12934,0.0526 0.23503,0.108883 0.27604,0.138862 0.94589,0.628516 0.66985,0.489654 1.54843,1.152865 0.88858,0.649541 1.86653,1.406366 1.00161,0.753148 1.89386,1.426352 0.89225,0.673205 1.57577,1.172851 0.69719,0.50964 1.00425,0.692151 z"
     style="font-style:normal;font-variant:normal;font-weight:normal;font-stretch:normal;font-size:16.9333px;font-family:Javar;-inkscape-font-specification:Javar"
     id="path47" />
  <path
     d="m 336.88521,66.628381 q 0.14882,0.191398 -0.10279,0.754085 -0.23866,0.573579 -0.85957,1.312551 -0.62091,0.738971 -1.59762,1.532868 -0.96374,0.80479 -2.29102,1.436824 -0.4388,0.206356 -1.09231,0.431353 -0.64055,0.23589 -1.33917,0.356635 -0.68773,0.10778 -1.34224,0.04442 -0.64155,-0.05247 -1.0953,-0.433734 -0.82973,-0.697165 -1.32122,-1.928479 -0.47853,-1.220421 -0.71327,-2.678344 -0.22178,-1.447029 -0.24594,-2.971308 -3e-4,-1.52635 0.12643,-2.835373 -0.19815,0.209502 -0.39423,0.442861 -0.18518,0.220395 -0.39215,0.466719 -0.88235,1.050117 -1.46852,1.774053 -0.58616,0.723936 -1.0317,0.990972 -0.38694,0.249929 -0.88588,0.317282 -0.48805,0.05439 -1.20063,-0.124123 -0.14729,-0.03529 -0.30754,-0.08147 -0.14729,-0.03529 -0.22507,-0.100647 -0.0757,-0.0415 -0.056,-0.09129 0.0436,-0.05186 0.24325,-0.105249 0.17583,-0.05132 0.44555,-0.267036 0.29358,-0.217787 0.61362,-0.54604 0.34391,-0.330323 0.69456,-0.721327 0.36155,-0.403968 0.68834,-0.7929 0.33976,-0.378039 0.59913,-0.713043 0.28322,-0.337074 0.44662,-0.531541 0.25054,-0.298181 0.66448,-0.790829 0.42484,-0.505612 0.87767,-0.965579 0.46373,-0.472933 0.90514,-0.787684 0.4414,-0.314751 0.73598,-0.244175 0.3314,0.0794 0.56322,0.119365 0.24479,0.05086 0.42683,0.07111 0.18204,0.02025 0.34022,0.04258 0.15818,0.02232 0.32933,0.05554 0.10839,0.0026 0.21886,0.02907 0.12343,0.03736 0.17529,0.08093 0.0389,0.03268 -0.0156,0.0975 -0.0436,0.05186 -0.26711,0.10732 -0.3024,0.254609 -0.51413,1.138337 -0.20083,0.870764 -0.28813,2.080215 -0.0743,1.220343 -0.0128,2.621191 0.0854,1.398777 0.31859,2.70059 0.2332,1.301812 0.63655,2.348479 0.41632,1.05756 1.02565,1.569541 0.58608,-0.171069 1.22249,-0.454674 0.54305,-0.251463 1.17117,-0.630499 0.65198,-0.381108 1.26561,-0.927147 0.58094,-0.507146 1.00163,-1.060473 0.44455,-0.555399 0.72417,-1.072441 0.30348,-0.519113 0.45706,-0.96512 0.16447,-0.458971 0.17644,-0.73644 0.38532,0.146828 0.75769,0.282763 0.30961,0.105327 0.63218,0.221547 0.33347,0.103255 0.57619,0.130258 z"
     style="font-style:normal;font-variant:normal;font-weight:normal;font-stretch:normal;font-size:16.9333px;font-family:Javar;-inkscape-font-specification:Javar"
     id="path49" />
  <path
     d="m 339.78324,69.132795 q 0.34263,0.32773 0.9683,0.996491 0.62568,0.668761 1.37585,1.550335 0.77411,0.881041 1.61153,1.916371 0.83742,1.03533 1.60409,2.120139 0.76666,1.084809 1.40138,2.160575 0.63472,1.075765 0.99119,2.025972 0.3804,0.949675 0.39743,1.715801 0.0293,0.777831 -0.41551,1.242829 -0.31602,0.330393 -0.95765,0.560235 -0.62993,0.217604 -1.60089,0.179302 -0.95872,-0.0266 -2.24837,-0.39316 -1.28964,-0.366564 -2.93735,-1.21621 -1.636,-0.861884 -3.63166,-2.278675 -1.99566,-1.416791 -4.36641,-3.543843 -0.0362,-0.01117 -0.0601,-0.01064 -0.0122,-0.0117 -0.0484,-0.02288 -0.5065,-0.156415 -0.62886,-0.273462 -0.0979,-0.09364 -0.0633,-0.154289 0.0468,-0.04895 0.10694,-0.03831 0.34742,0.0043 0.656,-0.12237 0.33252,-0.127157 0.7209,-0.435206 0.40008,-0.320285 0.90338,-0.846467 0.51554,-0.514478 1.22846,-1.308805 0.21068,-0.220262 0.5847,-0.635781 0.38625,-0.403814 0.82092,-0.784751 0.43467,-0.380937 0.84806,-0.641635 0.42562,-0.248993 0.72675,-0.17185 0.71026,0.163862 1.16781,0.273459 0.48149,0.109064 0.7225,0.175566 -0.63897,-0.728348 -1.25188,-1.361463 -0.60119,-0.645352 -1.12738,-1.148651 0.11865,-0.05054 0.49107,0.0011 0.39636,0.05107 0.81773,0.149497 0.44531,0.09789 0.79486,0.197912 0.36125,0.08778 0.39796,0.122897 z m 1.5371,12.577228 q 0.75283,0.462332 1.50193,0.757074 0.76134,0.306446 1.41095,0.435727 0.66132,0.117044 1.15132,0.07022 0.51394,-0.04735 0.73633,-0.279852 0.35114,-0.367104 0.26388,-1.059809 -0.0872,-0.692705 -0.49107,-1.617907 -0.40382,-0.925201 -1.07471,-2.012139 -0.65866,-1.075233 -1.48651,-2.218566 -0.80391,-1.143865 -1.71528,-2.273364 -0.89968,-1.141736 -1.79669,-2.163765 -0.13088,0.03884 -0.32081,0.114921 -0.166,0.07555 -0.47244,0.29794 -0.30645,0.222391 -0.81135,0.676749 -0.48095,0.453825 -1.25346,1.261454 -0.32773,0.34263 -0.69004,0.745912 -0.33837,0.40275 -0.67781,0.757617 -0.3272,0.366571 -0.65599,0.661319 -0.31709,0.28251 -0.61396,0.396899 -0.0357,0.01277 -0.0357,0.01277 0.21973,0.186742 0.62301,0.549054 0.40329,0.362311 0.95234,0.817196 0.5613,0.466589 1.21996,1.002874 0.65866,0.536285 1.3652,1.071505 0.71878,0.546926 1.44873,1.057673 0.74218,0.522451 1.42212,0.938497 z"
     style="font-style:normal;font-variant:normal;font-weight:normal;font-stretch:normal;font-size:16.9333px;font-family:Javar;-inkscape-font-specification:Javar"
     id="path51" />
  <path
     d="m 355.67501,98.714641 q 0.19915,0.09381 0.34384,0.07703 0.16862,-0.0156 0.16267,0.103989 -0.007,0.143507 -0.35691,0.186071 -0.32586,0.04375 -0.80065,-0.05177 -0.47479,-0.09552 -1.00165,-0.349477 -0.5155,-0.241404 -0.9019,-0.668209 -0.46596,-0.514676 -0.65456,-1.303295 -0.16468,-0.787431 -0.1297,-1.73278 0.035,-0.945349 0.21822,-1.97924 0.20716,-1.032702 0.47233,-2.026556 0.27653,-0.981302 0.57342,-1.889662 0.30825,-0.895806 0.56934,-1.566176 -1.09955,0.173151 -2.29121,0.269795 -1.1791,0.08528 -2.32954,0.07608 -1.12651,-0.008 -2.1526,-0.106949 -1.01473,-0.08638 -1.78552,-0.256549 0.9706,0.491796 1.75054,1.201898 0.79248,0.698738 1.51983,1.502135 0.46596,0.514677 0.86016,1.025788 0.3942,0.511112 0.59045,0.904492 0.1418,0.282779 0.1903,0.51297 0.0485,0.23019 0.0641,0.398803 -0.01,0.191343 -0.0406,0.333662 -0.30075,0.02102 -0.69124,-0.0823 -0.36657,-0.102132 -0.71939,-0.239546 -0.41203,-0.152343 -0.8456,-0.353711 0.0723,-0.248167 -0.0307,-0.588958 -0.079,-0.339603 -0.2992,-0.734172 -0.20761,-0.405934 -0.53362,-0.841727 -0.3021,-0.434604 -0.6885,-0.861409 -0.35231,-0.389146 -0.77518,-0.805774 -0.39896,-0.41544 -0.8242,-0.784233 -0.40134,-0.367604 -0.80742,-0.639537 -0.40609,-0.271933 -0.74874,-0.372876 -0.16504,-0.05615 -0.41321,-0.128426 -0.23561,-0.08364 -0.43595,-0.153532 -0.24697,-0.09619 -0.49395,-0.19238 -0.16386,-0.08007 -0.15911,-0.175743 0.0287,-0.09448 0.0903,-0.127389 0.0604,-0.009 0.13095,0.0185 0.24817,0.07227 0.47242,0.143355 0.22425,0.07108 0.4485,0.142168 1.10326,0.23464 2.51323,0.328669 1.42133,0.106582 2.94665,0.05049 1.54923,-0.0549 3.10679,-0.277228 1.58147,-0.221138 2.96737,-0.607843 0.42339,0.164897 0.8366,0.293323 0.36538,0.126049 0.74331,0.240734 0.37794,0.114684 0.67513,0.165415 -0.16846,0.495145 -0.43312,1.237268 -0.25328,0.754676 -0.53643,1.627753 -0.27178,0.88563 -0.55849,1.830461 -0.2628,0.946019 -0.47538,1.846579 -0.18866,0.901748 -0.28826,1.700025 -0.0996,0.798277 -0.0324,1.377059 0.0983,0.916008 0.30239,1.393695 0.22797,0.478876 0.42117,0.692278 0.15911,0.175743 0.26495,0.216967 z"
     style="font-style:normal;font-variant:normal;font-weight:normal;font-stretch:normal;font-size:16.9333px;font-family:Javar;-inkscape-font-specification:Javar"
     id="path53" />
  <path
     d="m 365.65216,111.66277 q 0.0958,0.0973 0.22868,0.18751 0.14638,0.0799 0.26903,0.15665 0.13293,0.0902 0.22155,0.15033 0.0886,0.0601 0.0586,0.10444 -0.0498,0.10207 -0.4328,0.0752 -0.37268,-0.0134 -0.8688,-0.18828 -0.49612,-0.17484 -1.05475,-0.51504 -0.54518,-0.3505 -0.96694,-0.90197 -0.32918,-0.43042 -0.59428,-1.25093 -0.26511,-0.82051 -0.50491,-1.83091 -0.21605,-1.00724 -0.41946,-2.10943 -0.19311,-1.08874 -0.39176,-2.04535 -0.17491,-0.95344 -0.36801,-1.67979 -0.1931,-0.72635 -0.40912,-1.00881 -0.0823,-0.10761 -0.18833,-0.21838 -0.0823,-0.1076 -0.18832,-0.21837 l -0.0309,-0.0404 q -0.47394,0.38377 -0.90119,0.68921 -0.41381,0.29516 -0.72477,0.36243 -0.21284,0.0562 -0.6773,0.006 -0.44072,-0.0467 -0.92972,-0.18431 -0.47871,-0.12421 -0.9139,-0.30301 -0.41145,-0.17563 -0.56575,-0.37739 -0.0823,-0.10761 -0.0388,-0.1622 0.0538,-0.0412 0.10127,-0.0348 0.34261,0.0577 0.66386,0.004 0.33469,-0.0641 0.75245,-0.29833 0.42806,-0.220782 0.97953,-0.642541 0.57521,-0.418595 1.40203,-1.093565 0.16141,-0.123442 0.42013,-0.342628 0.28247,-0.216023 0.60528,-0.462907 0.3331,-0.233432 0.67966,-0.477152 0.37029,-0.240555 0.6939,-0.402776 0.33706,-0.172507 0.62428,-0.242941 0.30066,-0.08072 0.48424,-0.0079 0.66307,0.281651 1.09826,0.46045 0.45893,0.181964 0.6971,0.298265 -0.35291,-0.433584 -0.65439,-0.799914 -0.30148,-0.366331 -0.52067,-0.625057 -0.27379,-0.302242 -0.48269,-0.547517 -0.0206,-0.0269 -0.0309,-0.04035 -0.0411,-0.0538 -0.0142,-0.07438 0.0435,-0.0546 0.0775,-0.03798 0.0443,0.03006 0.0649,0.05697 0.29989,0.197005 0.65359,0.352863 0.37743,0.159022 0.70026,0.274527 0.38059,0.135285 0.7778,0.236544 0.25638,0.251603 0.70504,0.782506 0.45894,0.544352 1.01443,1.270686 0.66864,0.874291 1.36261,1.921072 0.70742,1.036495 1.24552,2.074575 0.4827,0.90991 0.93613,1.94879 0.46689,1.02859 0.70589,1.95433 0.26273,0.92891 0.22874,1.63707 -0.0205,0.69788 -0.53325,0.91945 -0.34735,0.15906 -0.96215,-0.0316 -0.60136,-0.20095 -1.33248,-0.51583 -1.13229,-0.47706 -2.34373,-1.44786 -1.20115,-0.95734 -2.63733,-2.41712 0.0823,0.47 0.18679,1.13622 0.10448,0.66622 0.24694,1.40998 0.14245,0.74376 0.32923,1.51759 0.18677,0.77382 0.39648,1.46615 0.23345,0.69549 0.49617,1.26201 0.27617,0.55623 0.57369,0.86164 z m -4.66259,-12.145354 q 0.67893,0.887744 1.47339,1.815044 0.79445,0.92729 1.58494,1.79367 0.81423,0.86953 1.56991,1.63463 0.76912,0.75481 1.38078,1.33159 0.62194,0.59024 1.04527,0.94865 0.42334,0.35841 0.53886,0.39797 0.15192,-0.0522 0.27218,-0.22947 0.12026,-0.17725 0.14557,-0.36715 0.0736,-0.46129 -0.0792,-1.21851 -0.14245,-0.74376 -0.46928,-1.64497 -0.31338,-0.91149 -0.79687,-1.90606 -0.47321,-0.98112 -1.05799,-1.94087 -0.46766,-0.750866 -0.98596,-1.484323 -0.50801,-0.720006 -1.00494,-1.341899 -0.13847,0.04194 -0.36476,0.108418 -0.20255,0.06964 -0.59342,0.283293 -0.37741,0.203368 -0.9732,0.595062 -0.59578,0.391694 -1.51043,1.091196 z"
     style="font-style:normal;font-variant:normal;font-weight:normal;font-stretch:normal;font-size:16.9333px;font-family:Javar;-inkscape-font-specification:Javar"
     id="path55" />
</svg>
