<?xml version="1.0" encoding="UTF-8" standalone="no"?>
<svg
   xmlns:dc="http://purl.org/dc/elements/1.1/"
   xmlns:cc="http://creativecommons.org/ns#"
   xmlns:rdf="http://www.w3.org/1999/02/22-rdf-syntax-ns#"
   xmlns:svg="http://www.w3.org/2000/svg"
   xmlns="http://www.w3.org/2000/svg"
   xmlns:xlink="http://www.w3.org/1999/xlink"
   xmlns:sodipodi="http://sodipodi.sourceforge.net/DTD/sodipodi-0.dtd"
   xmlns:inkscape="http://www.inkscape.org/namespaces/inkscape"
   width="1600"
   height="800"
   viewBox="0 0 1024 512"
   enable-background="new 0 0 512 512"
   id="flat"
   version="1.1"
   xml:space="preserve"
   sodipodi:docname="shaarehTefilah.svg"
   inkscape:version="1.0.2-2 (e86c870879, 2021-01-15)"><metadata
   id="metadata151"><rdf:RDF><cc:Work
       rdf:about=""><dc:format>image/svg+xml</dc:format><dc:type
         rdf:resource="http://purl.org/dc/dcmitype/StillImage" /><dc:title /></cc:Work></rdf:RDF></metadata><defs
   id="defs149"><linearGradient
     inkscape:collect="always"
     id="linearGradient1208"><stop
       style="stop-color:#000000;stop-opacity:1"
       offset="0"
       id="stop1204" /><stop
       style="stop-color:#000000;stop-opacity:0"
       offset="1"
       id="stop1206" /></linearGradient><linearGradient
     inkscape:collect="always"
     xlink:href="#linearGradient1208"
     id="linearGradient1938"
     x1="247.74603"
     y1="31.555555"
     x2="247.74603"
     y2="371.36508"
     gradientUnits="userSpaceOnUse" /><linearGradient
     inkscape:collect="always"
     xlink:href="#linearGradient1208"
     id="linearGradient2108"
     gradientUnits="userSpaceOnUse"
     x1="247.74603"
     y1="31.555555"
     x2="247.74603"
     y2="371.36508"
     gradientTransform="translate(-47.36)" /><linearGradient
     inkscape:collect="always"
     xlink:href="#linearGradient1208"
     id="linearGradient2132"
     gradientUnits="userSpaceOnUse"
     x1="247.74603"
     y1="31.555555"
     x2="247.74603"
     y2="371.36508" /><linearGradient
     inkscape:collect="always"
     xlink:href="#linearGradient1208"
     id="linearGradient2134"
     gradientUnits="userSpaceOnUse"
     x1="247.74603"
     y1="31.555555"
     x2="247.74603"
     y2="371.36508"
     gradientTransform="translate(-696.64,-840)" /><linearGradient
     inkscape:collect="always"
     xlink:href="#linearGradient1208"
     id="linearGradient1222"
     gradientUnits="userSpaceOnUse"
     x1="247.74603"
     y1="31.555555"
     x2="247.74603"
     y2="371.36508" /><linearGradient
     inkscape:collect="always"
     xlink:href="#linearGradient1208"
     id="linearGradient1224"
     gradientUnits="userSpaceOnUse"
     x1="247.74603"
     y1="31.555555"
     x2="247.74603"
     y2="371.36508" /><linearGradient
     inkscape:collect="always"
     xlink:href="#linearGradient1208"
     id="linearGradient1226"
     gradientUnits="userSpaceOnUse"
     x1="247.74603"
     y1="31.555555"
     x2="247.74603"
     y2="371.36508" /><linearGradient
     inkscape:collect="always"
     xlink:href="#linearGradient1208"
     id="linearGradient1228"
     gradientUnits="userSpaceOnUse"
     x1="247.74603"
     y1="31.555555"
     x2="247.74603"
     y2="371.36508" /><linearGradient
     inkscape:collect="always"
     xlink:href="#linearGradient1208"
     id="linearGradient1230"
     gradientUnits="userSpaceOnUse"
     x1="247.74603"
     y1="31.555555"
     x2="247.74603"
     y2="371.36508" /><linearGradient
     inkscape:collect="always"
     xlink:href="#linearGradient1208"
     id="linearGradient1232"
     gradientUnits="userSpaceOnUse"
     x1="247.74603"
     y1="31.555555"
     x2="247.74603"
     y2="371.36508" /><linearGradient
     inkscape:collect="always"
     xlink:href="#linearGradient1208"
     id="linearGradient1234"
     gradientUnits="userSpaceOnUse"
     x1="247.74603"
     y1="31.555555"
     x2="247.74603"
     y2="371.36508" /><linearGradient
     inkscape:collect="always"
     xlink:href="#linearGradient1208"
     id="linearGradient1236"
     gradientUnits="userSpaceOnUse"
     x1="247.74603"
     y1="31.555555"
     x2="247.74603"
     y2="371.36508" /><linearGradient
     inkscape:collect="always"
     xlink:href="#linearGradient1208"
     id="linearGradient1238"
     gradientUnits="userSpaceOnUse"
     x1="247.74603"
     y1="31.555555"
     x2="247.74603"
     y2="371.36508" /><linearGradient
     inkscape:collect="always"
     xlink:href="#linearGradient1208"
     id="linearGradient1240"
     gradientUnits="userSpaceOnUse"
     x1="247.74603"
     y1="31.555555"
     x2="247.74603"
     y2="371.36508" /><linearGradient
     inkscape:collect="always"
     xlink:href="#linearGradient1208"
     id="linearGradient1242"
     gradientUnits="userSpaceOnUse"
     x1="247.74603"
     y1="31.555555"
     x2="247.74603"
     y2="371.36508" /><linearGradient
     inkscape:collect="always"
     xlink:href="#linearGradient1208"
     id="linearGradient1244"
     gradientUnits="userSpaceOnUse"
     x1="247.74603"
     y1="31.555555"
     x2="247.74603"
     y2="371.36508" /><linearGradient
     inkscape:collect="always"
     xlink:href="#linearGradient1208"
     id="linearGradient1246"
     gradientUnits="userSpaceOnUse"
     x1="247.74603"
     y1="31.555555"
     x2="247.74603"
     y2="371.36508" /><linearGradient
     inkscape:collect="always"
     xlink:href="#linearGradient1208"
     id="linearGradient1248"
     gradientUnits="userSpaceOnUse"
     x1="247.74603"
     y1="31.555555"
     x2="247.74603"
     y2="371.36508" /><linearGradient
     inkscape:collect="always"
     xlink:href="#linearGradient1208"
     id="linearGradient1250"
     gradientUnits="userSpaceOnUse"
     x1="247.74603"
     y1="31.555555"
     x2="247.74603"
     y2="371.36508" /><linearGradient
     inkscape:collect="always"
     xlink:href="#linearGradient1208"
     id="linearGradient1252"
     gradientUnits="userSpaceOnUse"
     x1="247.74603"
     y1="31.555555"
     x2="247.74603"
     y2="371.36508" /><linearGradient
     inkscape:collect="always"
     xlink:href="#linearGradient1208"
     id="linearGradient1254"
     gradientUnits="userSpaceOnUse"
     x1="247.74603"
     y1="31.555555"
     x2="247.74603"
     y2="371.36508" /><linearGradient
     inkscape:collect="always"
     xlink:href="#linearGradient1208"
     id="linearGradient1256"
     gradientUnits="userSpaceOnUse"
     x1="247.74603"
     y1="31.555555"
     x2="247.74603"
     y2="371.36508" /><linearGradient
     inkscape:collect="always"
     xlink:href="#linearGradient1208"
     id="linearGradient1258"
     gradientUnits="userSpaceOnUse"
     x1="247.74603"
     y1="31.555555"
     x2="247.74603"
     y2="371.36508" /><linearGradient
     inkscape:collect="always"
     xlink:href="#linearGradient1208"
     id="linearGradient1260"
     gradientUnits="userSpaceOnUse"
     x1="247.74603"
     y1="31.555555"
     x2="247.74603"
     y2="371.36508" /><linearGradient
     inkscape:collect="always"
     xlink:href="#linearGradient1208"
     id="linearGradient1262"
     gradientUnits="userSpaceOnUse"
     x1="247.74603"
     y1="31.555555"
     x2="247.74603"
     y2="371.36508" /><linearGradient
     inkscape:collect="always"
     xlink:href="#linearGradient1208"
     id="linearGradient1264"
     gradientUnits="userSpaceOnUse"
     x1="247.74603"
     y1="31.555555"
     x2="247.74603"
     y2="371.36508" /><linearGradient
     inkscape:collect="always"
     xlink:href="#linearGradient1208"
     id="linearGradient1266"
     gradientUnits="userSpaceOnUse"
     x1="247.74603"
     y1="31.555555"
     x2="247.74603"
     y2="371.36508" /><linearGradient
     inkscape:collect="always"
     xlink:href="#linearGradient1208"
     id="linearGradient1268"
     gradientUnits="userSpaceOnUse"
     x1="247.74603"
     y1="31.555555"
     x2="247.74603"
     y2="371.36508" /><linearGradient
     inkscape:collect="always"
     xlink:href="#linearGradient1208"
     id="linearGradient1270"
     gradientUnits="userSpaceOnUse"
     x1="247.74603"
     y1="31.555555"
     x2="247.74603"
     y2="371.36508" /><linearGradient
     inkscape:collect="always"
     xlink:href="#linearGradient1208"
     id="linearGradient1272"
     gradientUnits="userSpaceOnUse"
     x1="247.74603"
     y1="31.555555"
     x2="247.74603"
     y2="371.36508" /><linearGradient
     inkscape:collect="always"
     xlink:href="#linearGradient1208"
     id="linearGradient1274"
     gradientUnits="userSpaceOnUse"
     x1="247.74603"
     y1="31.555555"
     x2="247.74603"
     y2="371.36508" /></defs><sodipodi:namedview
   pagecolor="#ffffff"
   bordercolor="#666666"
   borderopacity="1"
   objecttolerance="10"
   gridtolerance="10"
   guidetolerance="10"
   inkscape:pageopacity="0"
   inkscape:pageshadow="2"
   inkscape:window-width="2467"
   inkscape:window-height="1406"
   id="namedview147"
   showgrid="false"
   inkscape:zoom="1.26"
   inkscape:cx="1468.4195"
   inkscape:cy="466.48421"
   inkscape:window-x="-11"
   inkscape:window-y="-11"
   inkscape:window-maximized="1"
   inkscape:current-layer="layer2"
   inkscape:document-rotation="0" />

































































































<g
   inkscape:groupmode="layer"
   id="layer3"
   inkscape:label="Actual Background"
   style="display:inline" /><g
   inkscape:groupmode="layer"
   id="layer1"
   inkscape:label="Objects"
   style="display:inline"><g
     id="g1930"
     style="fill:url(#linearGradient1938);fill-opacity:1"><g
       id="g4"
       style="fill:url(#linearGradient1274);fill-opacity:1.0;stroke:none;stroke-opacity:1">

<path
   d="m 425.257,302.983 c -29.796,0.002 -54.158,-17.627 -70.297,-33.897 -20.102,-20.265 -40.802,-30.017 -61.548,-29.014 -32.031,1.564 -54.337,28.502 -54.559,28.774 -2.787,3.42 -7.821,3.945 -11.247,1.167 -3.426,-2.779 -3.961,-7.8 -1.19,-11.232 1.077,-1.333 26.822,-32.679 66.047,-34.682 25.516,-1.297 50.371,10.042 73.857,33.719 23.688,23.88 48.095,33.176 72.548,27.614 4.31,-0.979 8.595,1.72 9.574,6.028 0.979,4.308 -1.72,8.595 -6.028,9.574 -5.894,1.34 -11.622,1.949 -17.157,1.949 z"
   fill="#2F323E"
   id="path2"
   style="fill:url(#linearGradient1274);fill-opacity:1.0;stroke:none;stroke-opacity:1" />

</g><g
       id="g8"
       style="fill:url(#linearGradient1272);fill-opacity:1.0;stroke:none;stroke-opacity:1">

<path
   d="m 384.64,392 c -4.418,0 -8,-3.582 -8,-8 V 160 c 0,-4.418 3.582,-8 8,-8 4.418,0 8,3.582 8,8 v 224 c 0,4.418 -3.582,8 -8,8 z"
   fill="#2F323E"
   id="path6"
   style="fill:url(#linearGradient1272);fill-opacity:1.0;stroke:none;stroke-opacity:1" />

</g><g
       id="g12"
       style="fill:url(#linearGradient1270);fill-opacity:1.0;stroke:none;stroke-opacity:1">

<path
   d="m 344.64,392 c -4.418,0 -8,-3.582 -8,-8 V 128 c 0,-4.418 3.582,-8 8,-8 4.418,0 8,3.582 8,8 v 256 c 0,4.418 -3.582,8 -8,8 z"
   fill="#2F323E"
   id="path10"
   style="fill:url(#linearGradient1270);fill-opacity:1.0;stroke:none;stroke-opacity:1" />

</g><g
       id="g16"
       style="fill:url(#linearGradient1268);fill-opacity:1.0;stroke:none;stroke-opacity:1">

<path
   d="m 304.64,392 c -4.418,0 -8,-3.582 -8,-8 V 96 c 0,-4.418 3.582,-8 8,-8 4.418,0 8,3.582 8,8 v 288 c 0,4.418 -3.582,8 -8,8 z"
   fill="#2F323E"
   id="path14"
   style="fill:url(#linearGradient1268);fill-opacity:1.0;stroke:none;stroke-opacity:1" />

</g><g
       id="g20"
       style="fill:url(#linearGradient1266);fill-opacity:1.0;stroke:none;stroke-opacity:1">

<path
   d="m 264.64,392 c -4.418,0 -8,-3.582 -8,-8 V 112 c 0,-4.418 3.582,-8 8,-8 4.418,0 8,3.582 8,8 v 272 c 0,4.418 -3.582,8 -8,8 z"
   fill="#2F323E"
   id="path18"
   style="fill:url(#linearGradient1266);fill-opacity:1.0;stroke:none;stroke-opacity:1" />

</g><g
       id="g24"
       style="fill:url(#linearGradient1264);fill-opacity:1.0;stroke:none;stroke-opacity:1">

<path
   d="m 272.64,136 h -16 c -4.418,0 -8,-3.582 -8,-8 0,-4.418 3.582,-8 8,-8 h 16 c 4.418,0 8,3.582 8,8 0,4.418 -3.582,8 -8,8 z"
   fill="#2F323E"
   id="path22"
   style="fill:url(#linearGradient1264);fill-opacity:1.0;stroke:none;stroke-opacity:1" />

</g><g
       id="g28"
       style="fill:url(#linearGradient1262);fill-opacity:1.0;stroke:none;stroke-opacity:1">

<path
   d="m 312.64,120 h -16 c -4.418,0 -8,-3.582 -8,-8 0,-4.418 3.582,-8 8,-8 h 16 c 4.418,0 8,3.582 8,8 0,4.418 -3.582,8 -8,8 z"
   fill="#2F323E"
   id="path26"
   style="fill:url(#linearGradient1262);fill-opacity:1.0;stroke:none;stroke-opacity:1" />

</g><g
       id="g32"
       style="fill:url(#linearGradient1260);fill-opacity:1.0;stroke:none;stroke-opacity:1">

<path
   d="m 352.64,152 h -16 c -4.418,0 -8,-3.582 -8,-8 0,-4.418 3.582,-8 8,-8 h 16 c 4.418,0 8,3.582 8,8 0,4.418 -3.582,8 -8,8 z"
   fill="#2F323E"
   id="path30"
   style="fill:url(#linearGradient1260);fill-opacity:1.0;stroke:none;stroke-opacity:1" />

</g><rect
       fill="#959DC5"
       height="72"
       transform="scale(-1)"
       width="184"
       x="-416.64005"
       y="-456"
       id="rect34"
       style="fill:url(#linearGradient2134);fill-opacity:1.0;stroke:none;stroke-opacity:1" /><g
       id="g38"
       style="fill:url(#linearGradient1258);fill-opacity:1.0;stroke:none;stroke-opacity:1">

<path
   d="m 39.383,302.983 c -5.538,0 -11.262,-0.608 -17.156,-1.948 -4.309,-0.979 -7.007,-5.266 -6.028,-9.574 0.979,-4.308 5.268,-7.005 9.574,-6.028 24.453,5.562 48.86,-3.734 72.548,-27.614 23.485,-23.677 48.328,-35.017 73.857,-33.719 39.225,2.003 64.97,33.348 66.047,34.682 2.776,3.437 2.239,8.474 -1.198,11.25 -3.432,2.772 -8.46,2.241 -11.239,-1.185 v 0 c -0.222,-0.272 -22.528,-27.21 -54.559,-28.774 -20.747,-1.006 -41.447,8.75 -61.548,29.014 -16.139,16.268 -40.504,33.896 -70.298,33.896 z"
   fill="#2F323E"
   id="path36"
   style="fill:url(#linearGradient1258);fill-opacity:1.0;stroke:none;stroke-opacity:1" />

</g><g
       id="g42"
       style="fill:url(#linearGradient1256);fill-opacity:1.0;stroke:none;stroke-opacity:1">

<path
   d="m 80,392 c -4.418,0 -8,-3.582 -8,-8 V 160 c 0,-4.418 3.582,-8 8,-8 4.418,0 8,3.582 8,8 v 224 c 0,4.418 -3.582,8 -8,8 z"
   fill="#2F323E"
   id="path40"
   style="fill:url(#linearGradient1256);fill-opacity:1.0;stroke:none;stroke-opacity:1" />

</g><g
       id="g46"
       style="fill:url(#linearGradient1254);fill-opacity:1.0;stroke:none;stroke-opacity:1">

<path
   d="m 120,392 c -4.418,0 -8,-3.582 -8,-8 V 128 c 0,-4.418 3.582,-8 8,-8 4.418,0 8,3.582 8,8 v 256 c 0,4.418 -3.582,8 -8,8 z"
   fill="#2F323E"
   id="path44"
   style="fill:url(#linearGradient1254);fill-opacity:1.0;stroke:none;stroke-opacity:1" />

</g><g
       id="g50"
       style="fill:url(#linearGradient1252);fill-opacity:1.0;stroke:none;stroke-opacity:1">

<path
   d="m 160,392 c -4.418,0 -8,-3.582 -8,-8 V 96 c 0,-4.418 3.582,-8 8,-8 4.418,0 8,3.582 8,8 v 288 c 0,4.418 -3.582,8 -8,8 z"
   fill="#2F323E"
   id="path48"
   style="fill:url(#linearGradient1252);fill-opacity:1.0;stroke:none;stroke-opacity:1" />

</g><g
       id="g54"
       style="fill:url(#linearGradient1250);fill-opacity:1.0;stroke:none;stroke-opacity:1">

<path
   d="m 200,392 c -4.418,0 -8,-3.582 -8,-8 V 112 c 0,-4.418 3.582,-8 8,-8 4.418,0 8,3.582 8,8 v 272 c 0,4.418 -3.582,8 -8,8 z"
   fill="#2F323E"
   id="path52"
   style="fill:url(#linearGradient1250);fill-opacity:1.0;stroke:none;stroke-opacity:1" />

</g><g
       id="g58"
       style="fill:url(#linearGradient1248);fill-opacity:1.0;stroke:none;stroke-opacity:1">

<path
   d="m 208,136 h -16 c -4.418,0 -8,-3.582 -8,-8 0,-4.418 3.582,-8 8,-8 h 16 c 4.418,0 8,3.582 8,8 0,4.418 -3.582,8 -8,8 z"
   fill="#2F323E"
   id="path56"
   style="fill:url(#linearGradient1248);fill-opacity:1.0;stroke:none;stroke-opacity:1" />

</g><g
       id="g62"
       style="fill:url(#linearGradient1246);fill-opacity:1.0;stroke:none;stroke-opacity:1">

<path
   d="m 168,120 h -16 c -4.418,0 -8,-3.582 -8,-8 0,-4.418 3.582,-8 8,-8 h 16 c 4.418,0 8,3.582 8,8 0,4.418 -3.582,8 -8,8 z"
   fill="#2F323E"
   id="path60"
   style="fill:url(#linearGradient1246);fill-opacity:1.0;stroke:none;stroke-opacity:1" />

</g><g
       id="g66"
       style="fill:url(#linearGradient1244);fill-opacity:1.0;stroke:none;stroke-opacity:1">

<path
   d="m 128,152 h -16 c -4.418,0 -8,-3.582 -8,-8 0,-4.418 3.582,-8 8,-8 h 16 c 4.418,0 8,3.582 8,8 0,4.418 -3.582,8 -8,8 z"
   fill="#2F323E"
   id="path64"
   style="fill:url(#linearGradient1244);fill-opacity:1.0;stroke:none;stroke-opacity:1" />

</g><rect
       fill="#959DC5"
       height="72"
       width="184"
       x="48"
       y="384"
       id="rect68"
       style="fill:url(#linearGradient1242);fill-opacity:1.0;stroke:none;stroke-opacity:1" /><g
       id="g72"
       style="fill:url(#linearGradient1240);fill-opacity:1.0;stroke:none;stroke-opacity:1">

<path
   d="M 232,464 H 24 c -4.418,0 -8,-3.582 -8,-8 V 214.21 c 0,-2.438 1.112,-4.743 3.02,-6.261 1.908,-1.519 4.404,-2.083 6.78,-1.534 24.414,5.638 48.799,-3.8 72.477,-28.05 23.471,-24.039 48.323,-35.565 73.84,-34.267 39.295,2.002 65.069,33.882 66.147,35.238 1.125,1.416 1.737,3.17 1.737,4.978 L 240,456 c 0,4.418 -3.581,8 -8,8 z M 32,448 H 224 V 187.311 c -5.839,-6.362 -25.906,-25.927 -52.828,-27.24 -20.688,-1.015 -41.369,8.906 -61.448,29.472 -16.142,16.532 -40.52,34.444 -70.338,34.445 -2.426,0 -4.89,-0.119 -7.387,-0.366 V 448 Z"
   fill="#2F323E"
   id="path70"
   style="fill:url(#linearGradient1240);fill-opacity:1.0;stroke:none;stroke-opacity:1" />

</g><g
       id="g76"
       style="fill:url(#linearGradient1238);fill-opacity:1.0;stroke:none;stroke-opacity:1">



</g><g
       id="g80"
       style="fill:url(#linearGradient1236);fill-opacity:1.0;stroke:none;stroke-opacity:1">

<path
   d="m 440.64,464 h -208 c -4.418,0 -8,-3.582 -8,-8 V 184.313 c 0,-1.808 0.612,-3.562 1.737,-4.978 1.078,-1.356 26.852,-33.235 66.147,-35.238 25.528,-1.293 50.369,10.228 73.84,34.267 23.677,24.25 48.065,33.691 72.477,28.05 2.374,-0.548 4.872,0.016 6.78,1.534 1.908,1.518 3.02,3.823 3.02,6.261 V 456 c -0.001,4.418 -3.583,8 -8.001,8 z m -200,-16 h 192 V 223.604 c -20.401,1.972 -48.103,-3.723 -77.725,-34.062 -20.079,-20.566 -40.749,-30.486 -61.448,-29.472 -26.912,1.312 -46.974,20.864 -52.828,27.241 z"
   fill="#2F323E"
   id="path78"
   style="fill:url(#linearGradient1236);fill-opacity:1.0;stroke:none;stroke-opacity:1" />

</g><g
       id="g84"
       style="fill:url(#linearGradient1234);fill-opacity:1.0;stroke:none;stroke-opacity:1">



</g><g
       id="g88"
       style="fill:url(#linearGradient1232);fill-opacity:1.0;stroke:none;stroke-opacity:1">



</g><g
       id="g92"
       style="fill:url(#linearGradient1230);fill-opacity:1.0;stroke:none;stroke-opacity:1">



</g><g
       id="g96"
       style="fill:url(#linearGradient1228);fill-opacity:1.0;stroke:none;stroke-opacity:1">

<path
   d="m 32,168 c -4.418,0 -8,-3.582 -8,-8 V 40 c 0,-4.418 3.582,-8 8,-8 4.418,0 8,3.582 8,8 v 120 c 0,4.418 -3.582,8 -8,8 z"
   fill="#2F323E"
   id="path94"
   style="fill:url(#linearGradient1228);fill-opacity:1.0;stroke:none;stroke-opacity:1" />

</g><path
       d="M 56,472 H 8 V 166.735 c 0,-4.128 2.332,-7.901 6.024,-9.747 l 7.987,-3.994 c 1.308,-0.654 2.751,-0.995 4.213,-0.995 h 11.552 c 1.463,0 2.905,0.341 4.213,0.995 l 7.987,3.994 c 3.692,1.846 6.024,5.619 6.024,9.747 V 472 Z"
       fill="#727897"
       id="path98"
       style="fill:url(#linearGradient1226);fill-opacity:1.0;stroke:none;stroke-opacity:1" /><polygon
       fill="#E6C067"
       points="32,56 56,104 32,128 8,104 "
       id="polygon100"
       style="fill:url(#linearGradient1224);fill-opacity:1.0;stroke:none;stroke-opacity:1" /><g
       id="g122"
       style="fill:url(#linearGradient1222);fill-opacity:1.0;stroke:none;stroke-opacity:1">

<path
   d="m 432.64,168 c -4.418,0 -8,-3.582 -8,-8 V 40 c 0,-4.418 3.582,-8 8,-8 4.418,0 8,3.582 8,8 v 120 c 0,4.418 -3.582,8 -8,8 z"
   fill="#2F323E"
   id="path120"
   style="fill:url(#linearGradient1222);fill-opacity:1.0;stroke:none;stroke-opacity:1" />

</g><path
       d="m 408.64,472 h 48 V 166.735 c 0,-4.128 -2.332,-7.901 -6.024,-9.747 l -7.987,-3.994 c -1.308,-0.654 -2.751,-0.995 -4.213,-0.995 h -11.552 c -1.462,0 -2.905,0.341 -4.213,0.995 l -7.987,3.994 c -3.692,1.846 -6.024,5.619 -6.024,9.747 z"
       fill="#727897"
       id="path124"
       style="fill:url(#linearGradient2108);fill-opacity:1.0;stroke:none;stroke-opacity:1" /><polygon
       fill="#E6C067"
       points="456,104 480,128 504,104 480,56 "
       id="polygon126"
       style="fill:url(#linearGradient2132);fill-opacity:1.0;stroke:none;stroke-opacity:1"
       transform="translate(-47.36)" /></g></g><g
   inkscape:groupmode="layer"
   id="layer2"
   inkscape:label="Bg"
   style="display:inline"><g
     aria-label="שערי תפילה"
     id="text1944"
     style="font-style:normal;font-variant:normal;font-weight:normal;font-stretch:normal;font-size:122.88px;line-height:1.25;font-family:IshmaelZY;-inkscape-font-specification:IshmaelZY;text-align:center;text-anchor:middle;fill:#000000;fill-opacity:1;stroke-width:0.64;stroke:none"
     transform="matrix(1.1331506,0,0,1.1331506,478.66701,-377.92789)"><path
       d="m 272.88618,426.74127 12.49436,-14.27926 q 6.6934,-7.69742 9.70544,-7.69742 3.68137,0 3.68137,5.02006 v 8.2552 q 0,17.06818 15.50638,17.06818 6.58185,0 10.93256,-4.23917 4.46227,-4.3507 4.46227,-11.15567 0,-4.90849 -3.23515,-9.14764 -3.12358,-4.23916 -7.13963,-5.02005 0.89246,-0.55779 2.90048,-0.55779 9.14765,0 15.84105,6.13562 6.6934,6.13562 6.6934,15.39483 0,9.48232 -6.58184,15.61794 -6.58184,6.13562 -15.95261,6.13562 -6.80496,0 -12.82903,-4.1276 -7.36274,-4.9085 -10.59788,-13.60992 v 30.78965 h 55.77835 q 8.36676,0 11.49035,-3.23514 3.23514,-3.3467 3.23514,-11.71346 v -14.72548 q 0,-4.9085 -3.34669,-4.9085 h -7.58587 l 13.1637,-13.83303 q 7.69742,-8.14365 10.37478,-8.14365 3.90448,0 3.90448,5.02006 v 31.34744 q -0.22311,9.70543 -10.37477,22.19979 -12.04813,14.72548 -24.87715,14.72548 h -68.38428 v -46.40759 q 0,-4.9085 -3.45826,-4.9085 z"
       style="font-style:normal;font-variant:normal;font-weight:normal;font-stretch:normal;font-size:122.88px;font-family:IshmaelZY;-inkscape-font-specification:IshmaelZY;text-align:center;text-anchor:middle;fill:#000000;fill-opacity:1;stroke:none;stroke-width:1.34386;stroke-miterlimit:4;stroke-dasharray:none;stroke-opacity:1"
       id="path2054" /><path
       d="m 173.71227,468.12882 q 0,-9.48233 12.94058,-17.73752 l 0.22311,0.44622 q -2.78891,2.3427 -2.78891,6.24718 0,4.46227 7.25119,4.46227 h 4.3507 q 5.91252,0 5.91252,-7.25119 v -24.20781 q 0,-8.36675 -7.13964,-8.36675 -4.68539,0 -12.82902,6.35873 2.67736,-5.02005 11.49034,-12.15968 10.15166,-8.03208 16.06417,-8.03208 9.48232,0 9.48232,11.60189 v 26.21584 q 0,7.92052 -8.2552,12.71746 l -4.3507,2.45425 v 0.66934 h 29.1163 q 8.47832,0 11.26723,-2.67737 2.78892,-2.78891 2.78892,-10.82099 v -17.96064 q 0,-8.36675 -7.25119,-8.36675 -4.79694,0 -11.71345,5.68939 2.67736,-5.02005 11.04411,-11.71346 9.70544,-7.80896 15.61794,-7.80896 9.59388,0 9.59388,11.60189 v 21.64201 q 0,9.48232 -10.48633,22.19979 -11.93657,14.72548 -24.87715,14.72548 h -43.8418 q -13.60992,0 -13.60992,-9.92854 z"
       style="font-style:normal;font-variant:normal;font-weight:normal;font-stretch:normal;font-size:122.88px;font-family:IshmaelZY;-inkscape-font-specification:IshmaelZY;text-align:center;text-anchor:middle;fill:#000000;fill-opacity:1;stroke:none;stroke-width:1.34386;stroke-miterlimit:4;stroke-dasharray:none;stroke-opacity:1"
       id="path2056" /><path
       d="m 91.718092,436.44671 q 7.474299,-17.96064 18.964648,-22.4229 5.24316,-2.23114 20.86111,-2.23114 15.61793,0 25.7696,7.13963 13.1637,9.48233 13.1637,29.56253 0,12.15969 -7.80898,22.31134 -4.9085,6.58186 -14.61393,9.25922 9.92855,-9.25922 9.92855,-24.43093 0,-26.88517 -30.90121,-26.88517 -15.7295,0 -19.96865,0.66934 -9.259219,1.33868 -14.50238,7.02808 z"
       style="font-style:normal;font-variant:normal;font-weight:normal;font-stretch:normal;font-size:122.88px;font-family:IshmaelZY;-inkscape-font-specification:IshmaelZY;text-align:center;text-anchor:middle;fill:#000000;fill-opacity:1;stroke:none;stroke-width:1.34386;stroke-miterlimit:4;stroke-dasharray:none;stroke-opacity:1"
       id="path2058" /><path
       d="m 59.031974,426.74127 12.271241,-14.50238 q 6.358732,-7.4743 9.928552,-7.4743 3.68137,0 3.68137,7.69742 v 17.40285 q 0,4.1276 -16.733507,16.51039 0.557785,-10.821 0.446223,-11.825 l -0.334673,-2.90048 q -0.557785,-4.9085 -4.350705,-4.9085 z"
       style="font-style:normal;font-variant:normal;font-weight:normal;font-stretch:normal;font-size:122.88px;font-family:IshmaelZY;-inkscape-font-specification:IshmaelZY;text-align:center;text-anchor:middle;fill:#000000;fill-opacity:1;stroke:none;stroke-width:1.34386;stroke-miterlimit:4;stroke-dasharray:none;stroke-opacity:1"
       id="path2060" /><path
       d="m 325.27175,570.89672 q 0,-8.14365 12.27124,-15.50639 l 0.66935,0.66935 q -3.90449,2.78891 -3.90449,7.36274 0,6.58184 10.59789,6.58184 h 23.9847 v -33.46701 q -13.1637,0 -17.84908,2.00801 -0.89245,0.22311 -5.46628,4.57383 h -0.89246 q 7.58586,-23.76159 24.43093,-23.76159 v -19.18775 h 2.11958 q 6.02406,19.18775 21.86512,19.18775 h 5.1316 q 17.73753,0 30.6781,8.81299 15.28328,10.59788 15.28328,29.8972 0,10.59789 -7.36275,20.08022 -6.80496,8.36675 -15.28327,10.48632 10.26322,-11.37878 10.26322,-22.4229 0,-29.67408 -38.26396,-29.67408 h -8.2552 v 53.8819 h -1.22712 q -3.56981,-4.57383 -11.93657,-4.57383 h -30.12032 q -16.73351,0 -16.73351,-14.9486 z"
       style="font-style:normal;font-variant:normal;font-weight:normal;font-stretch:normal;font-size:122.88px;font-family:IshmaelZY;-inkscape-font-specification:IshmaelZY;text-align:center;text-anchor:middle;fill:#000000;fill-opacity:1;stroke:none;stroke-width:1.34386;stroke-miterlimit:4;stroke-dasharray:none;stroke-opacity:1"
       id="path2062" /><path
       d="m 229.44452,575.91677 q 0,-9.48232 12.94059,-17.73752 l 0.22311,0.44623 q -3.23514,2.78891 -3.23514,5.68939 0,4.35071 10.15166,4.35071 h 52.98945 q 7.25118,0 7.25118,-5.46627 0,-10.15167 -19.0762,-23.09226 -18.96465,-13.05213 -33.02079,-13.05213 -5.13162,5.91251 -5.13162,9.70544 0.22313,7.4743 12.15969,7.4743 9.817,0 14.39082,-0.44622 l 0.7809,2.34268 -7.92053,7.13963 q -5.80095,4.79694 -12.04812,4.79694 -19.85711,0 -19.85711,-11.71345 0,-3.01204 7.4743,-13.1637 l 23.53848,-32.57456 1.7849,0.66934 q -2.67736,5.80094 -2.67736,7.92053 0,2.45424 6.35873,4.57382 17.17974,6.02407 30.45499,17.06818 14.83704,12.49435 14.83704,23.9847 0,7.02807 -8.25519,16.28728 -2.67737,3.45826 -14.83705,14.72549 h -55.6668 q -13.60993,0 -13.60993,-9.92855 z"
       style="font-style:normal;font-variant:normal;font-weight:normal;font-stretch:normal;font-size:122.88px;font-family:IshmaelZY;-inkscape-font-specification:IshmaelZY;text-align:center;text-anchor:middle;fill:#000000;fill-opacity:1;stroke:none;stroke-width:1.34386;stroke-miterlimit:4;stroke-dasharray:none;stroke-opacity:1"
       id="path2064" /><path
       d="m 198.09709,534.52922 12.27124,-14.50237 q 6.35873,-7.4743 9.92855,-7.4743 3.68137,0 3.68137,7.69741 v 17.40286 q 0,4.12759 -16.73351,16.51039 0.55778,-10.82101 0.44623,-11.82502 l -0.33468,-2.90047 q -0.55778,-4.9085 -4.3507,-4.9085 z"
       style="font-style:normal;font-variant:normal;font-weight:normal;font-stretch:normal;font-size:122.88px;font-family:IshmaelZY;-inkscape-font-specification:IshmaelZY;text-align:center;text-anchor:middle;fill:#000000;fill-opacity:1;stroke:none;stroke-width:1.34386;stroke-miterlimit:4;stroke-dasharray:none;stroke-opacity:1"
       id="path2066" /><path
       d="m 127.48168,494.46955 v 24.88795 h 37.37149 c 9.59388,0 17.32849,3.90449 23.2038,11.71346 4.3879,5.72658 6.58185,10.41197 6.58185,14.05616 0,7.58585 -7.13963,15.98979 -21.41889,25.21181 -14.20488,9.14765 -28.93037,15.39483 -44.17646,18.74154 0.59496,-2.90048 0.89245,-5.65221 0.89245,-8.2552 0,-5.87532 -1.59899,-10.44915 -4.79694,-13.72148 l 1.45024,-1.11557 c 2.67736,2.8261 5.54066,4.23915 8.58987,4.23915 1.18994,0 2.45425,-0.22311 3.79293,-0.66933 7.73459,-2.82611 15.91542,-6.73059 24.54247,-11.71346 9.59388,-5.65221 16.28729,-10.63508 20.08022,-14.9486 0.74371,-1.0412 1.11557,-2.11958 1.11557,-3.23515 0,-2.08239 -1.37587,-3.12358 -4.12761,-3.12358 H 110.85972 V 502.624 c 0,-7.95772 1.30149,-14.76267 3.90448,-20.41488 -3.04382,-8.55632 0,0 12.71748,12.26043 z"
       style="font-style:normal;font-variant:normal;font-weight:normal;font-stretch:normal;font-size:122.88px;font-family:IshmaelZY;-inkscape-font-specification:IshmaelZY;text-align:center;text-anchor:middle;fill:#000000;fill-opacity:1;stroke:none;stroke-width:1.34386;stroke-miterlimit:4;stroke-dasharray:none;stroke-opacity:1"
       id="path2068"
       sodipodi:nodetypes="ccscsccsccscccsscscc" /><path
       d="m 6.4426333,544.90399 q 7.5858557,-16.06416 14.5023727,-20.8611 6.916517,-4.9085 22.199787,-4.9085 h 12.94058 q 16.84507,0 29.00475,7.92053 15.283267,10.15166 15.283267,29.22787 0,11.93657 -8.032078,22.86913 -5.020051,6.47029 -14.279268,9.48231 9.705441,-10.26321 9.705441,-24.09624 0,-12.15969 -8.589871,-19.85711 -9.259206,-8.14363 -25.100262,-8.14363 H 36.897616 q -21.75356,0 -29.3394153,8.36674 z m 4.3507127,17.84908 q 0,-6.02406 3.792927,-9.92854 3.792928,-3.90449 9.816991,-3.90449 12.494352,0 14.502373,11.6019 -1.784907,-3.34671 -6.13562,-3.34671 -5.577834,0 -5.577834,7.36276 v 24.76559 Q 10.793346,578.37102 10.793346,562.75307 Z"
       style="font-style:normal;font-variant:normal;font-weight:normal;font-stretch:normal;font-size:122.88px;font-family:IshmaelZY;-inkscape-font-specification:IshmaelZY;text-align:center;text-anchor:middle;fill:#000000;fill-opacity:1;stroke:none;stroke-width:1.34386;stroke-miterlimit:4;stroke-dasharray:none;stroke-opacity:1"
       id="path2070" /></g></g></svg>
