<?xml version="1.0" encoding="UTF-8" standalone="no"?>
<!-- Generator: Adobe Illustrator 23.0.1, SVG Export Plug-In . SVG Version: 6.00 Build 0)  -->

<svg
   version="1.1"
   id="Livello_1"
   x="0px"
   y="0px"
   viewBox="0 0 2289.75 2130"
   enable-background="new 0 0 2289.75 2130"
   xml:space="preserve"
   sodipodi:docname="download_spread.svg"
   inkscape:version="1.3.2 (091e20e, 2023-11-25, custom)"
   xmlns:inkscape="http://www.inkscape.org/namespaces/inkscape"
   xmlns:sodipodi="http://sodipodi.sourceforge.net/DTD/sodipodi-0.dtd"
   xmlns="http://www.w3.org/2000/svg"
   xmlns:svg="http://www.w3.org/2000/svg"
   xmlns:ns="&amp;ns_sfw;"><defs
   id="defs12" /><sodipodi:namedview
   id="namedview12"
   pagecolor="#ffffff"
   bordercolor="#666666"
   borderopacity="1.0"
   inkscape:showpageshadow="2"
   inkscape:pageopacity="0.0"
   inkscape:pagecheckerboard="0"
   inkscape:deskcolor="#d1d1d1"
   inkscape:zoom="0.38874274"
   inkscape:cx="978.79641"
   inkscape:cy="1359.5109"
   inkscape:window-width="2467"
   inkscape:window-height="1406"
   inkscape:window-x="-11"
   inkscape:window-y="-11"
   inkscape:window-maximized="1"
   inkscape:current-layer="Livello_1" />
<metadata
   id="metadata1">
	<ns:sfw>
		<ns:slices />
		<ns:sliceSourceBounds
   bottomLeftOrigin="true"
   height="2130"
   width="2289.75"
   x="-1147.5"
   y="-1041" />
	</ns:sfw>
</metadata>
<g
   inkscape:groupmode="layer"
   id="layer1"
   inkscape:label="Background"
   style="fill:#000000" /><path
   fill="#185c37"
   d="M 854.5,1011.75 1759.75,852 v 1180.393 c 0,53.907 -43.7,97.607 -97.607,97.607 v 0 H 100.107 C 46.2,2130 2.5,2086.3 2.5,2032.393 v 0 -434.893 z"
   id="path1"
   style="fill:#686868;fill-opacity:1" />
<path
   fill="#21a366"
   d="m 854.5,0 h 807.643 c 53.907,0 97.607,43.7 97.607,97.607 0,0 0,0 0,0 V 532.5 L 854.5,1065 375.25,1224.75 2.5,1065 V 532.5 Z"
   id="path2"
   style="fill:#b6b6b6;fill-opacity:1" />
<path
   fill="#107c41"
   d="M 1759.75,532.5 H 854.5 V 1065 h 905.25 z"
   id="path3"
   style="fill:#949494;fill-opacity:1" />




<linearGradient
   id="SVGID_1_"
   gradientUnits="userSpaceOnUse"
   x1="203.5132"
   y1="1729.0183"
   x2="967.9868"
   y2="404.9817"
   gradientTransform="rotate(180,1146,1066)">
	<stop
   offset="0"
   style="stop-color:#18884F"
   id="stop7" />
	<stop
   offset="0.5"
   style="stop-color:#117E43"
   id="stop8" />
	<stop
   offset="1"
   style="stop-color:#0B6631"
   id="stop9" />
</linearGradient>


<path
   fill="#33c481"
   d="M 100.107,0 H 854.5 V 532.5 H 2.5 V 97.607 C 2.5,43.7 46.2,0 100.107,0 Z"
   id="path11"
   style="fill:#ffffff;fill-opacity:1" />
<path
   fill="#107c41"
   d="M 854.5,1065 H 2.5 v 532.5 h 852 z"
   id="path12"
   style="fill:#949494;fill-opacity:1" />
<path
   opacity="0.1"
   enable-background="new    "
   d="M 1111.607,426 H 1759.5 v 1331.25 h -647.893 c -53.834,-0.175 -97.432,-43.773 -97.607,-97.607 V 523.607 c 0.175,-53.834 43.773,-97.432 97.607,-97.607 z"
   id="path4" /><path
   opacity="0.2"
   enable-background="new    "
   d="M 1164.857,479.25 H 1759.5 V 1810.5 h -594.643 c -53.834,-0.175 -97.432,-43.773 -97.607,-97.607 V 576.857 c 0.175,-53.834 43.773,-97.432 97.607,-97.607 z"
   id="path5" /><path
   opacity="0.2"
   enable-background="new    "
   d="M 1164.857,479.25 H 1759.5 V 1704 h -594.643 c -53.834,-0.175 -97.432,-43.773 -97.607,-97.607 V 576.857 c 0.175,-53.834 43.773,-97.432 97.607,-97.607 z"
   id="path6" /><path
   opacity="0.2"
   enable-background="new    "
   d="M 1218.107,479.25 H 1759.5 V 1704 h -541.393 c -53.834,-0.175 -97.432,-43.773 -97.607,-97.607 V 576.857 c 0.175,-53.834 43.773,-97.432 97.607,-97.607 z"
   id="path7" /><path
   fill="url(#SVGID_1_)"
   d="m 2194.393,479.25 h -976.285 c -53.907,0 -97.607,43.7 -97.607,97.607 v 976.285 c 0,53.907 43.7,97.607 97.607,97.607 h 976.285 C 2248.3,1650.75 2292,1607.05 2292,1553.143 V 576.857 c 0,-53.907 -43.7,-97.607 -97.607,-97.607 z"
   id="path9"
   style="fill:#949494;fill-opacity:1" /><g
   style="fill:#ffffff;fill-opacity:1;stroke:#ffffff;stroke-width:0.76523;stroke-dasharray:none;stroke-opacity:1"
   id="g12"
   transform="matrix(-52.271883,0,0,52.271883,2128.1084,658.35711)"><path
     d="M 0.5,9.9 A 0.5,0.5 0 0 1 1,10.4 v 2.5 a 1,1 0 0 0 1,1 h 12 a 1,1 0 0 0 1,-1 v -2.5 a 0.5,0.5 0 0 1 1,0 v 2.5 a 2,2 0 0 1 -2,2 H 2 a 2,2 0 0 1 -2,-2 V 10.4 A 0.5,0.5 0 0 1 0.5,9.9"
     id="path1-3"
     style="fill:#ffffff;fill-opacity:1;stroke:#ffffff;stroke-width:0.76523;stroke-dasharray:none;stroke-opacity:1" /><path
     d="m 7.646,11.854 a 0.5,0.5 0 0 0 0.708,0 l 3,-3 A 0.5006316,0.5006316 0 0 0 10.646,8.146 L 8.5,10.293 V 1.5 a 0.5,0.5 0 0 0 -1,0 v 8.793 L 5.354,8.146 A 0.5006316,0.5006316 0 1 0 4.646,8.854 Z"
     id="path2-8"
     style="fill:#ffffff;fill-opacity:1;stroke:#ffffff;stroke-width:0.76523;stroke-dasharray:none;stroke-opacity:1" /></g></svg>
