<?xml version="1.0" encoding="UTF-8" standalone="no"?>
<svg
   version="1.1"
   id="Layer_1"
   x="0px"
   y="0px"
   viewBox="0 0 80.6 109.04597"
   xml:space="preserve"
   sodipodi:docname="havdalah.svg"
   inkscape:version="1.3.2 (091e20e, 2023-11-25, custom)"
   width="80.599998"
   height="109.04597"
   xmlns:inkscape="http://www.inkscape.org/namespaces/inkscape"
   xmlns:sodipodi="http://sodipodi.sourceforge.net/DTD/sodipodi-0.dtd"
   xmlns="http://www.w3.org/2000/svg"
   xmlns:svg="http://www.w3.org/2000/svg"
   xmlns:rdf="http://www.w3.org/1999/02/22-rdf-syntax-ns#"
   xmlns:cc="http://creativecommons.org/ns#"
   xmlns:dc="http://purl.org/dc/elements/1.1/"><metadata
   id="metadata66"><rdf:RDF><cc:Work
       rdf:about=""><dc:format>image/svg+xml</dc:format><dc:type
         rdf:resource="http://purl.org/dc/dcmitype/StillImage" /><dc:title /></cc:Work></rdf:RDF></metadata><defs
   id="defs64">
	
	

		
		
		
		
		<linearGradient
   id="SVGID_5_"
   gradientUnits="userSpaceOnUse"
   x1="393.49829"
   y1="37.058201"
   x2="398.45401"
   y2="320.36069">
			<stop
   offset="0"
   style="stop-color:#0D71BA"
   id="stop48" />
			<stop
   offset="1"
   style="stop-color:#2A3084"
   id="stop50" />
		</linearGradient>
		
	
			<linearGradient
   id="SVGID_4_"
   gradientUnits="userSpaceOnUse"
   x1="407.29999"
   y1="42.092201"
   x2="407.29999"
   y2="19.023001">
				<stop
   offset="0"
   style="stop-color:#FBB03A"
   id="stop37" />
				<stop
   offset="1"
   style="stop-color:#FFF200"
   id="stop39" />
			</linearGradient>
			
			
		
			<linearGradient
   id="SVGID_3_"
   gradientUnits="userSpaceOnUse"
   x1="384.83099"
   y1="42.092201"
   x2="384.83099"
   y2="19.023001">
				<stop
   offset="0"
   style="stop-color:#FBB03A"
   id="stop26" />
				<stop
   offset="1"
   style="stop-color:#FFF200"
   id="stop28" />
			</linearGradient>
			
			
		
			<linearGradient
   id="SVGID_1_"
   gradientUnits="userSpaceOnUse"
   x1="362.36191"
   y1="42.092201"
   x2="362.36191"
   y2="19.023001">
				<stop
   offset="0"
   style="stop-color:#FBB03A"
   id="stop4" />
				<stop
   offset="1"
   style="stop-color:#FFF200"
   id="stop6" />
			</linearGradient>
			
			
		
			<linearGradient
   id="SVGID_2_"
   gradientUnits="userSpaceOnUse"
   x1="429.7691"
   y1="42.092201"
   x2="429.7691"
   y2="19.023001">
				<stop
   offset="0"
   style="stop-color:#FBB03A"
   id="stop15" />
				<stop
   offset="1"
   style="stop-color:#FFF200"
   id="stop17" />
			</linearGradient>
			
			
		<clipPath
   clipPathUnits="userSpaceOnUse"
   id="clipPath1011"><rect
     style="fill:#000000;fill-opacity:1;fill-rule:nonzero"
     id="rect1013"
     width="109.04597"
     height="109.04597"
     x="50.444492"
     y="0" /></clipPath><clipPath
   clipPathUnits="userSpaceOnUse"
   id="clipPath1015"><rect
     style="fill:#000000;fill-opacity:1;fill-rule:nonzero"
     id="rect1017"
     width="109.04597"
     height="109.04597"
     x="50.444492"
     y="0" /></clipPath><clipPath
   clipPathUnits="userSpaceOnUse"
   id="clipPath1019"><rect
     style="fill:#000000;fill-opacity:1;fill-rule:nonzero"
     id="rect1021"
     width="109.04597"
     height="109.04597"
     x="50.444492"
     y="0" /></clipPath><clipPath
   clipPathUnits="userSpaceOnUse"
   id="clipPath1023"><rect
     style="fill:#000000;fill-opacity:1;fill-rule:nonzero"
     id="rect1025"
     width="109.04597"
     height="109.04597"
     x="50.444492"
     y="0" /></clipPath><clipPath
   clipPathUnits="userSpaceOnUse"
   id="clipPath1027"><rect
     style="fill:#000000;fill-opacity:1;fill-rule:nonzero"
     id="rect1029"
     width="109.04597"
     height="109.04597"
     x="50.444492"
     y="0" /></clipPath><clipPath
   clipPathUnits="userSpaceOnUse"
   id="clipPath1031"><rect
     style="fill:#000000;fill-opacity:1;fill-rule:nonzero"
     id="rect1033"
     width="109.04597"
     height="109.04597"
     x="50.444492"
     y="0" /></clipPath><clipPath
   clipPathUnits="userSpaceOnUse"
   id="clipPath1035"><rect
     style="fill:#000000;fill-opacity:1;fill-rule:nonzero"
     id="rect1037"
     width="109.04597"
     height="109.04597"
     x="50.444492"
     y="0" /></clipPath><clipPath
   clipPathUnits="userSpaceOnUse"
   id="clipPath1039"><rect
     style="fill:#000000;fill-opacity:1;fill-rule:nonzero"
     id="rect1041"
     width="109.04597"
     height="109.04597"
     x="50.444492"
     y="0" /></clipPath><clipPath
   clipPathUnits="userSpaceOnUse"
   id="clipPath1043"><rect
     style="fill:#000000;fill-opacity:1;fill-rule:nonzero"
     id="rect1045"
     width="109.04597"
     height="109.04597"
     x="50.444492"
     y="0" /></clipPath></defs><sodipodi:namedview
   pagecolor="#ffffff"
   bordercolor="#666666"
   borderopacity="1"
   objecttolerance="10"
   gridtolerance="10"
   guidetolerance="10"
   inkscape:pageopacity="0"
   inkscape:pageshadow="2"
   inkscape:window-width="2467"
   inkscape:window-height="1406"
   id="namedview62"
   showgrid="false"
   inkscape:zoom="4.6585858"
   inkscape:cx="79.101259"
   inkscape:cy="41.106896"
   inkscape:window-x="-11"
   inkscape:window-y="-11"
   inkscape:window-maximized="1"
   inkscape:current-layer="Layer_1"
   fit-margin-top="0"
   fit-margin-left="0"
   fit-margin-right="0"
   fit-margin-bottom="0"
   inkscape:showpageshadow="2"
   inkscape:pagecheckerboard="0"
   inkscape:deskcolor="#d1d1d1" />
<style
   type="text/css"
   id="style2">
	.st0{fill-rule:evenodd;clip-rule:evenodd;fill:url(#SVGID_1_);}
	.st1{fill:none;stroke:#20405D;stroke-width:0.8342;stroke-miterlimit:10;}
	.st2{fill-rule:evenodd;clip-rule:evenodd;fill:url(#SVGID_2_);}
	.st3{fill-rule:evenodd;clip-rule:evenodd;fill:url(#SVGID_3_);}
	.st4{fill-rule:evenodd;clip-rule:evenodd;fill:url(#SVGID_4_);}
	.st5{fill:url(#SVGID_5_);}
	.st6{fill:#D1D3D4;}
</style>
<path
   class="st0"
   d="m 72.1,21 c -4.1,-0.3 -7.7,-5 -4.5,-8.2 -1.3,3 1.6,2.4 1,0.7 -1,-3.1 -1.3,-6.1 2.1,-9.4 -1.4,5.5 6.2,-1 1,-4.1 1.5,0.2 5.2,2.4 4,6.1 -1.5,4.6 1.2,3.1 0,1.1 5,6.2 2.1,13 -3.3,17.1 6.6,-6.7 -3.6,-8.9 0,-13.2 -2.5,0.4 -3.4,5.6 -0.3,9.9 z"
   id="path9"
   style="fill-opacity:1;fill-rule:nonzero;stroke:none;fill:currentColor"
   clip-path="url(#clipPath1043)"
   transform="translate(-65.3)" /><line
   class="st1"
   x1="72.299995"
   y1="25"
   x2="72.299995"
   y2="32.900002"
   id="line11"
   style="fill-opacity:1;fill-rule:nonzero;stroke:none;fill:currentColor"
   clip-path="url(#clipPath1039)"
   transform="translate(-65.3)" /><path
   class="st2"
   d="m 139.5,21 c -4.1,-0.3 -7.7,-5 -4.5,-8.2 -1.3,3 1.6,2.4 1,0.7 -1,-3.1 -1.3,-6.1 2.1,-9.4 -1.4,5.5 6.2,-1 1,-4.1 1.5,0.2 5.2,2.4 4,6.1 -1.5,4.6 1.2,3.1 0,1.1 5,6.2 2.1,13 -3.3,17.1 6.6,-6.7 -3.6,-8.9 0,-13.2 -2.5,0.4 -3.4,5.6 -0.3,9.9 z"
   id="path20"
   style="fill-opacity:1;fill-rule:nonzero;stroke:none;fill:currentColor"
   clip-path="url(#clipPath1035)"
   transform="translate(-65.3)" /><line
   class="st1"
   x1="139.69998"
   y1="25"
   x2="139.69998"
   y2="32.900002"
   id="line22"
   style="fill-opacity:1;fill-rule:nonzero;stroke:none;fill:currentColor"
   clip-path="url(#clipPath1031)"
   transform="translate(-65.3)" /><path
   class="st3"
   d="m 94.6,21 c -4.1,-0.3 -7.7,-5 -4.5,-8.2 -1.3,3 1.6,2.4 1,0.7 -1,-3.1 -1.3,-6.1 2.1,-9.4 -1.4,5.5 6.2,-1 1,-4.1 1.5,0.2 5.2,2.4 4,6.1 -1.5,4.6 1.2,3.1 0,1.1 5,6.2 2.1,13 -3.3,17.1 6.6,-6.7 -3.6,-8.9 0,-13.2 -2.6,0.4 -3.4,5.6 -0.3,9.9 z"
   id="path31"
   style="fill-opacity:1;fill-rule:nonzero;stroke:none;fill:currentColor"
   clip-path="url(#clipPath1027)"
   transform="translate(-65.3)" /><line
   class="st1"
   x1="94.699989"
   y1="25"
   x2="94.699989"
   y2="32.900002"
   id="line33"
   style="fill-opacity:1;fill-rule:nonzero;stroke:none;fill:currentColor"
   clip-path="url(#clipPath1023)"
   transform="translate(-65.3)" /><path
   class="st4"
   d="m 117,21 c -4.1,-0.3 -7.7,-5 -4.5,-8.2 -1.3,3 1.6,2.4 1,0.7 -1,-3.1 -1.3,-6.1 2.1,-9.4 -1.4,5.5 6.2,-1 1,-4.1 1.5,0.2 5.2,2.4 4,6.1 -1.5,4.6 1.2,3.1 0,1.1 5,6.2 2.1,13 -3.3,17.1 6.6,-6.7 -3.6,-8.9 0,-13.2 -2.5,0.4 -3.3,5.6 -0.3,9.9 z"
   id="path42"
   style="fill-opacity:1;fill-rule:nonzero;stroke:none;fill:currentColor"
   clip-path="url(#clipPath1019)"
   transform="translate(-65.3)" /><line
   class="st1"
   x1="117.19999"
   y1="25"
   x2="117.19999"
   y2="32.900002"
   id="line44"
   style="fill-opacity:1;fill-rule:nonzero;stroke:none;fill:currentColor"
   clip-path="url(#clipPath1015)"
   transform="translate(-65.3)" /><path
   class="st5"
   d="m 66.2,313.2 h 13.9 c 0.1,-0.4 0.2,-0.8 0.4,-1.2 0.5,0.4 0.9,0.8 1.4,1.2 h 22.9 c -6.4,-4 -12.2,-8 -16.7,-12.5 4.7,-4.7 10.9,-8.8 17.6,-13.1 6.7,4.2 12.9,8.3 17.6,13.1 -4.5,4.5 -10.3,8.5 -16.7,12.5 h 22.8 c 0.5,-0.4 0.9,-0.8 1.4,-1.2 0.2,0.4 0.3,0.8 0.4,1.2 h 13.9 c -0.9,-4.6 -2.6,-8.8 -4.9,-12.5 3.6,-5.9 5.7,-12.7 5.7,-21 v 0 c 0,-8.3 -2.2,-15.1 -5.7,-21 3.6,-5.9 5.7,-12.7 5.7,-21 0,-8.3 -2.2,-15.1 -5.7,-21 3.6,-5.9 5.7,-12.7 5.7,-21 0,-8.3 -2.2,-15.1 -5.7,-21 3.6,-5.9 5.7,-12.7 5.7,-21 v 0 c 0,-8.3 -2.2,-15.1 -5.7,-21 3.6,-5.9 5.7,-12.7 5.7,-21 0,-8.3 -2.2,-15.1 -5.7,-21 3.6,-5.9 5.7,-12.7 5.7,-21 0,-8.3 -2.2,-15.1 -5.7,-21 3.6,-5.9 5.7,-12.7 5.7,-21 h -13.4 c 0,3.6 -0.6,6.8 -1.7,9.7 -3.9,-3.6 -8.2,-6.8 -12.7,-9.7 h -25 c -4.5,3 -8.8,6.1 -12.7,9.7 -1.1,-2.9 -1.7,-6.1 -1.7,-9.7 H 65.3 c 0,8.3 2.2,15.1 5.7,21 -3.5,5.9 -5.7,12.7 -5.7,21 0,8.3 2.2,15.1 5.7,21 -3.5,5.9 -5.7,12.7 -5.7,21 0,8.3 2.2,15.1 5.7,21 -3.5,5.9 -5.7,12.7 -5.7,21 v 0 c 0,8.3 2.2,15.1 5.7,21 -3.5,5.9 -5.7,12.7 -5.7,21 0,8.3 2.2,15.1 5.7,21 -3.5,5.9 -5.7,12.7 -5.7,21 0,8.3 2.2,15.1 5.7,21 -3.5,5.9 -5.7,12.7 -5.7,21 v 0 c 0,8.3 2.2,15.1 5.7,21 -2.1,3.7 -3.8,7.8 -4.8,12.5 z m 21.9,-54.5 c 4.7,-4.7 10.9,-8.8 17.6,-13.1 6.7,4.2 12.9,8.3 17.6,13.1 -4.7,4.7 -10.9,8.8 -17.6,13.1 -6.7,-4.3 -12.8,-8.4 -17.6,-13.1 z m 35.3,-126 c -4.7,4.7 -10.9,8.8 -17.6,13.1 -6.7,-4.2 -12.9,-8.3 -17.6,-13.1 4.7,-4.7 10.9,-8.8 17.6,-13.1 6.7,4.3 12.8,8.4 17.6,13.1 z m -35.2,-42 c 4.7,-4.7 10.9,-8.8 17.6,-13.1 6.7,4.2 12.9,8.3 17.6,13.1 -4.7,4.7 -10.9,8.8 -17.6,13.1 C 99,99.6 92.9,95.5 88.2,90.7 Z m 35.2,84 c -4.7,4.7 -10.9,8.8 -17.6,13.1 -6.7,-4.2 -12.9,-8.3 -17.6,-13.1 4.7,-4.7 10.9,-8.8 17.6,-13.1 6.7,4.3 12.8,8.4 17.6,13.1 z m 0,42 c -4.7,4.7 -10.9,8.8 -17.6,13.1 -6.7,-4.2 -12.9,-8.3 -17.6,-13.1 4.7,-4.7 10.9,-8.8 17.6,-13.1 6.7,4.3 12.8,8.4 17.6,13.1 z m 9.2,63 c 0,3.6 -0.6,6.8 -1.7,9.7 -3.9,-3.6 -8.2,-6.8 -12.7,-9.7 v 0 c 4.4,-3 8.8,-6.1 12.7,-9.7 1.1,2.9 1.7,6.1 1.7,9.7 z m -1.7,-32.3 c -3.9,-3.6 -8.2,-6.8 -12.7,-9.7 4.4,-3 8.8,-6.1 12.7,-9.7 1.1,2.9 1.7,6.2 1.7,9.7 0,3.6 -0.6,6.8 -1.7,9.7 z m 0,-41.9 c -3.9,-3.6 -8.2,-6.8 -12.7,-9.7 4.4,-3 8.8,-6.1 12.7,-9.7 1.1,2.9 1.7,6.2 1.7,9.7 0,3.5 -0.6,6.7 -1.7,9.7 z m 1.7,-51.8 c 0,3.6 -0.6,6.8 -1.7,9.7 -3.9,-3.6 -8.2,-6.8 -12.7,-9.7 v 0 c 4.4,-3 8.8,-6.1 12.7,-9.7 1.2,2.9 1.8,6.2 1.7,9.7 z m -1.7,-32.2 c -3.9,-3.6 -8.2,-6.8 -12.7,-9.7 4.4,-3 8.8,-6.1 12.7,-9.7 1.1,2.9 1.7,6.2 1.7,9.7 0.1,3.5 -0.5,6.7 -1.7,9.7 z m 1.8,-51.7 c 0,3.6 -0.6,6.8 -1.7,9.7 -3.9,-3.6 -8.2,-6.8 -12.7,-9.7 4.4,-3 8.8,-6.1 12.7,-9.7 1.1,2.9 1.7,6.1 1.7,9.7 z M 105.8,35.7 c 6.7,4.2 12.9,8.3 17.6,13.1 -4.7,4.7 -10.9,8.8 -17.6,13.1 C 99.1,57.7 92.9,53.6 88.2,48.8 92.9,44 99,39.9 105.8,35.7 Z M 80.6,60 c 3.9,3.6 8.2,6.8 12.7,9.7 -4.5,3 -8.8,6.1 -12.7,9.7 -1.1,-2.9 -1.7,-6.1 -1.7,-9.7 0,-3.5 0.6,-6.7 1.7,-9.7 z m 0,42 c 3.9,3.6 8.2,6.8 12.7,9.7 -4.5,3 -8.8,6.1 -12.7,9.7 -1.1,-2.9 -1.7,-6.1 -1.7,-9.7 0,-3.5 0.6,-6.7 1.7,-9.7 z m -1.7,51.7 c 0,-3.6 0.6,-6.8 1.7,-9.7 3.9,3.6 8.2,6.8 12.7,9.7 v 0 c -4.5,3 -8.8,6.1 -12.7,9.7 -1.1,-2.9 -1.8,-6.1 -1.7,-9.7 z m 1.7,32.3 c 3.9,3.6 8.2,6.8 12.7,9.7 -4.5,3 -8.8,6.1 -12.7,9.7 -1.1,-2.9 -1.7,-6.1 -1.7,-9.7 -0.1,-3.6 0.6,-6.8 1.7,-9.7 z m 0,42 c 3.9,3.6 8.2,6.8 12.7,9.7 -4.5,3 -8.8,6.1 -12.7,9.7 -1.1,-2.9 -1.7,-6.1 -1.7,-9.7 -0.1,-3.6 0.6,-6.8 1.7,-9.7 z m -1.8,51.7 c 0,-3.6 0.6,-6.8 1.7,-9.7 3.9,3.6 8.2,6.8 12.7,9.7 v 0 c -4.5,3 -8.8,6.1 -12.7,9.7 -1.1,-2.9 -1.7,-6.1 -1.7,-9.7 z"
   id="path53"
   style="fill-opacity:1;fill-rule:nonzero;stroke:none;fill:currentColor"
   clip-path="url(#clipPath1011)"
   transform="translate(-65.3)" />
</svg>
