<?xml version="1.0" encoding="UTF-8" standalone="no"?>
<svg
   xmlns:dc="http://purl.org/dc/elements/1.1/"
   xmlns:cc="http://creativecommons.org/ns#"
   xmlns:rdf="http://www.w3.org/1999/02/22-rdf-syntax-ns#"
   xmlns:svg="http://www.w3.org/2000/svg"
   xmlns="http://www.w3.org/2000/svg"
   xmlns:sodipodi="http://sodipodi.sourceforge.net/DTD/sodipodi-0.dtd"
   xmlns:inkscape="http://www.inkscape.org/namespaces/inkscape"
   width="110.16446mm"
   height="26.757517mm"
   viewBox="0 0 110.16446 26.757517"
   version="1.1"
   id="svg8"
   inkscape:version="1.0.2-2 (e86c870879, 2021-01-15)"
   sodipodi:docname="logo-colorless.svg">
  <defs
     id="defs2" />
  <sodipodi:namedview
     id="base"
     pagecolor="#ffffff"
     bordercolor="#666666"
     borderopacity="1.0"
     inkscape:pageopacity="0.0"
     inkscape:pageshadow="2"
     inkscape:zoom="3.959798"
     inkscape:cx="187.5226"
     inkscape:cy="98.006647"
     inkscape:document-units="mm"
     inkscape:current-layer="layer1"
     inkscape:document-rotation="0"
     showgrid="false"
     fit-margin-top="0"
     fit-margin-left="0"
     fit-margin-right="0"
     fit-margin-bottom="0"
     inkscape:window-width="2467"
     inkscape:window-height="1406"
     inkscape:window-x="-11"
     inkscape:window-y="-11"
     inkscape:window-maximized="1" />
  <metadata
     id="metadata5">
    <rdf:RDF>
      <cc:Work
         rdf:about="">
        <dc:format>image/svg+xml</dc:format>
        <dc:type
           rdf:resource="http://purl.org/dc/dcmitype/StillImage" />
        <dc:title></dc:title>
      </cc:Work>
    </rdf:RDF>
  </metadata>
  <g
     inkscape:label="Layer 1"
     inkscape:groupmode="layer"
     id="layer1"
     transform="translate(-6.4613808,-3.3656594)">
    <g
       id="g870">
      <path
         d="m 116.62584,7.4026416 c 0,0.3781196 -0.0556,0.7339967 -0.16681,1.0676316 -0.51158,-0.3336349 -1.1566,-0.5004523 -1.93509,-0.5004523 h -4.2038 c -0.53381,0 -1.17884,-0.1779387 -1.93508,-0.5338158 l -0.53381,-3.6699839 1.10099,-0.1668174 c 0.089,1.0898739 0.88969,1.634811 2.40217,1.634811 h 3.40308 c 0.53381,0 0.97866,0.2335444 1.33454,0.7006332 0.35588,0.4670889 0.53381,0.95642 0.53381,1.4679936 z m -0.367,2.2353538 -0.6339,2.7691696 c -0.35588,-0.422604 -0.76736,-0.633906 -1.23445,-0.633906 h -1.20109 c -0.0445,0.934177 -0.0667,1.467993 -0.0667,1.601447 0,2.179748 0.77848,4.237163 2.33544,6.172245 -0.17794,0.934178 -0.38924,1.701538 -0.63391,2.302081 -0.55605,-0.95642 -1.34566,-2.435535 -2.3688,-4.437344 -0.51158,-1.156601 -0.77848,-1.890597 -0.80073,-2.20199 0.0222,-0.711755 -0.0334,-1.779387 -0.16681,-3.202895 l -0.13346,-0.233544 c -1.35678,0 -2.19087,-0.255787 -2.50226,-0.767361 l -0.33363,-2.3688073 c 0.53381,0.2669079 1.13435,0.4003619 1.80162,0.4003619 h 4.2038 c 0.66727,0 1.24557,0.2001809 1.7349,0.6005428 z m -1.83499,13.2119416 c -0.35587,0.756238 -0.74511,1.479115 -1.16772,2.168627 l -0.66727,-0.03336 c -0.62278,-1.512479 -0.93418,-3.558772 -0.93418,-6.138882 v -2.669079 c 0.60055,2.379929 1.5236,4.604161 2.76917,6.672698 z"
         style="font-style:normal;font-variant:normal;font-weight:normal;font-stretch:normal;font-size:25.4px;line-height:1.25;font-family:'Guttman Mantova-Decor';-inkscape-font-specification:'Guttman Mantova-Decor';stroke-width:0.347536"
         id="path837"
         sodipodi:nodetypes="scsscccssssccscsccccccccssccccscc" />
      <path
         d="m 106.80771,10.672264 c -1.24558,-2.0240521 -3.33635,-3.036078 -6.27234,-3.036078 -0.978664,0 -2.480021,0.2669079 -4.504072,0.8007237 0.244665,-1.1343586 0.366998,-1.9684458 0.366998,-2.5022617 1.890598,-0.5338158 3.525409,-0.8007237 4.904434,-0.8007237 3.66998,0 5.50498,1.8461131 5.50498,5.5383397 z M 94.496578,8.5703637 C 94.007246,8.1700018 93.551278,7.9698209 93.128675,7.9698209 h -3.136168 c -0.289152,0 -0.767361,-0.055605 -1.434631,-0.1668175 L 88.124151,4.2664736 89.024965,3.9328387 c 0.177938,0.8674507 0.556058,1.3011761 1.134359,1.3011761 h 1.768265 c 1.712658,0 2.568989,1.1121163 2.568989,3.3363489 z m 12.511312,6.0387913 c 0,2.913745 -0.089,4.615283 -0.26691,5.104614 -0.734,0.400362 -1.6793,0.600543 -2.8359,0.600543 h -5.638428 c -0.711755,0 -1.42351,0.08896 -2.135263,0.266907 0.355876,-0.845208 0.633906,-1.412388 0.834087,-1.701538 0.422604,-0.622784 0.934177,-0.934177 1.53472,-0.934177 h 4.370614 c 1.11212,0 1.99069,-0.177939 2.63572,-0.533816 v -0.133454 c 0,-4.048102 -1.80163,-6.072155 -5.40489,-6.072155 -4.181554,0 -6.272332,2.313202 -6.272332,6.939606 0,1.089873 0.189059,2.046294 0.567179,2.86926 -0.155697,0.822965 -1.078753,2.246475 -2.76917,4.270526 l -0.934177,-0.03336 c -0.02224,-0.845209 -0.03336,-1.301176 -0.03336,-1.367903 0,-1.134359 0.355877,-2.86926 1.067632,-5.204704 0.711754,-2.335445 1.067632,-4.025861 1.067632,-5.071251 0,-0.889692 -0.189061,-1.43463 -0.56718,-1.634811 -0.200181,-0.133453 -0.789603,-0.20018 -1.768265,-0.20018 -0.956421,0 -1.479115,-0.311393 -1.568084,-0.934178 L 88.657967,8.8706351 c 0.444846,0.1112121 0.889693,0.1668175 1.33454,0.1668175 h 3.136168 c 0.467088,0 0.911934,0.1890597 1.334539,0.5671793 l -0.03336,2.9026231 c 0.622784,-0.66727 1.100995,-1.645932 1.43463,-2.9359866 2.046293,-0.5783005 3.603256,-0.8674507 4.670886,-0.8674507 3.0472,0 5.18246,1.2678124 6.40579,3.8034373 0.0445,1.267813 0.0667,1.968446 0.0667,2.1019 z m -0.40037,6.238972 -0.33363,2.468899 c -1.02315,0.778481 -2.20199,1.167722 -3.53653,1.167722 h -5.004524 c -0.800724,0 -1.456873,0.322513 -1.968446,0.967541 l -0.867451,-0.400362 1.000905,-3.369712 c 0.756239,-0.200181 1.545841,-0.300272 2.368808,-0.300272 h 5.638428 c 0.95642,0 1.85724,-0.177939 2.70244,-0.533816 z"
         style="font-style:normal;font-variant:normal;font-weight:normal;font-stretch:normal;font-size:25.4px;line-height:1.25;font-family:'Guttman Mantova-Decor';-inkscape-font-specification:'Guttman Mantova-Decor';stroke-width:0.347536"
         id="path839"
         sodipodi:nodetypes="csccsccsscccsscscssccsscssscccssscsccsscccscsccsscccssc" />
      <path
         d="M 86.546778,8.2367288 C 86.124173,8.0587902 85.601479,7.9698209 84.978694,7.9698209 h -3.970255 c -0.689513,0 -1.301176,-0.066727 -1.834992,-0.2001809 L 78.839812,4.1663831 79.77399,3.8327482 c 0.111216,0.9341777 0.667269,1.4012666 1.668174,1.4012666 h 2.468898 c 1.757144,0 2.635716,0.8785719 2.635716,2.6357156 z m 0.567179,10.0424102 -0.366998,1.834992 c -0.66727,0.133454 -1.178844,0.200181 -1.534721,0.200181 h -4.871069 c -0.733997,0 -1.445752,0.133453 -2.135263,0.400361 0.311391,-1.023146 0.511572,-1.634811 0.600542,-1.834992 0.355877,-0.622784 0.867451,-0.934177 1.534721,-0.934177 h 3.870165 c 0.311391,-1.312298 0.467088,-2.435535 0.467088,-3.369713 0,-1.868355 -0.533815,-2.802532 -1.601447,-2.802532 h -1.701538 c -1.156602,0 -1.81275,-0.322514 -1.968446,-0.967542 L 79.240174,8.8372716 c 0.66727,0.133454 1.256691,0.200181 1.768265,0.200181 h 3.970255 c 0.66727,0 1.178842,0.088969 1.53472,0.2669079 L 86.313233,13.50816 c -0.08896,1.045389 -0.133453,1.623689 -0.133453,1.734901 0,1.534721 0.311391,2.546747 0.934177,3.036078 z m -0.500452,2.935987 -0.433725,2.535625 c -0.934178,0.489331 -2.257597,0.733997 -3.970256,0.733997 h -2.402171 c -0.733997,0 -1.356783,0.322513 -1.868355,0.967541 l -0.700634,-0.300272 0.767361,-3.302985 c 0.86745,-0.311393 1.645931,-0.467089 2.335444,-0.467089 h 4.871069 c 0.155696,0 0.622785,-0.0556 1.401267,-0.166817 z"
         style="font-style:normal;font-variant:normal;font-weight:normal;font-stretch:normal;font-size:25.4px;line-height:1.25;font-family:'Guttman Mantova-Decor';-inkscape-font-specification:'Guttman Mantova-Decor';stroke-width:0.347536"
         id="path841"
         sodipodi:nodetypes="csscccssscccssccscsssccssccscccsscccssc" />
      <path
         d="M 77.186422,8.4035463 C 76.69709,8.1143961 76.052064,7.9698209 75.25134,7.9698209 h -3.63662 c -0.689513,0 -1.301176,-0.1112121 -1.834992,-0.3336349 L 69.245912,3.9328387 70.146726,3.7326578 c 0.311392,1.0009046 0.856329,1.501357 1.634811,1.501357 h 2.502262 c 0.934178,0 1.601447,0.2001809 2.001809,0.6005428 0.489331,0.4670888 0.789602,1.3234183 0.900814,2.5689887 z m 0.06673,2.3354447 c 0,1.134358 -0.166817,2.424412 -0.500452,3.870164 -0.37812,1.556962 -0.834087,2.746928 -1.367903,3.569893 L 73.71662,17.278234 c 0.889692,-1.423508 1.334539,-2.835897 1.334539,-4.237163 0,-0.845209 -0.544937,-1.267812 -1.634811,-1.267812 h -1.267812 c -0.845209,0 -1.512479,-0.311393 -2.00181,-0.934178 L 69.879818,8.7038177 c 0.533816,0.2224232 1.156601,0.3336349 1.868356,0.3336349 h 3.436439 c 0.95642,0 1.634811,0.1556962 2.035173,0.4670888 0.02224,0.7117546 0.03336,1.1232376 0.03336,1.2344496 z"
         style="font-style:normal;font-variant:normal;font-weight:normal;font-stretch:normal;font-size:25.4px;line-height:1.25;font-family:'Guttman Mantova-Decor';-inkscape-font-specification:'Guttman Mantova-Decor';stroke-width:0.347536"
         id="path843"
         sodipodi:nodetypes="csscccssccscccsssccsscs" />
    </g>
    <g
       id="g876">
      <path
         d="M 57.864333,8.4035463 C 57.375003,8.1143961 56.729975,7.9698209 55.929251,7.9698209 h -3.63662 c -0.689512,0 -1.301177,-0.1112121 -1.834992,-0.3336349 L 49.923823,3.9328387 50.824637,3.7326578 c 0.311393,1.0009046 0.85633,1.501357 1.634811,1.501357 h 2.502262 c 0.934177,0 1.601447,0.2001809 2.001809,0.6005428 0.489332,0.4670888 0.789604,1.3234183 0.900814,2.5689887 z m 0.06673,2.3354447 c 0,1.134358 -0.166817,2.424412 -0.500452,3.870164 -0.378119,1.556962 -0.834087,2.746928 -1.367903,3.569893 L 54.39453,17.278234 c 0.889694,-1.423508 1.33454,-2.835897 1.33454,-4.237163 0,-0.845209 -0.544936,-1.267812 -1.634811,-1.267812 h -1.267813 c -0.845207,0 -1.512477,-0.311393 -2.001809,-0.934178 L 50.557729,8.7038177 c 0.533816,0.2224232 1.156602,0.3336349 1.868356,0.3336349 h 3.436439 c 0.956421,0 1.634811,0.1556962 2.035173,0.4670888 0.02224,0.7117546 0.03336,1.1232376 0.03336,1.2344496 z"
         style="font-style:normal;font-variant:normal;font-weight:normal;font-stretch:normal;font-size:25.4px;line-height:1.25;font-family:'Guttman Mantova-Decor';-inkscape-font-specification:'Guttman Mantova-Decor';stroke-width:0.347536"
         id="path845"
         sodipodi:nodetypes="csscccssccscccsssccsscs" />
      <path
         d="m 48.313078,7.3692781 c 0,0.4670888 -0.03336,0.8118449 -0.10009,1.0342682 -0.467089,-0.2891502 -1.167722,-0.4337254 -2.1019,-0.4337254 h -2.902624 c -0.956419,0 -1.701538,-0.1445752 -2.235353,-0.4337254 L 40.439295,3.7660212 41.340109,3.5992038 c 0.422605,1.0898739 1.067632,1.634811 1.935082,1.634811 h 3.069441 c 1.312298,0 1.968446,0.7117545 1.968446,2.1352633 z m 0.867451,12.1776729 c 0,0.733997 -0.189059,1.556963 -0.567179,2.468898 -1.067632,-1.645932 -1.979567,-3.380834 -2.735806,-5.204704 0,-0.28915 0.02224,-0.733997 0.06673,-1.334539 0.04449,-0.600543 0.06673,-1.04539 0.06673,-1.33454 0,-1.067632 -0.04449,-1.72378 -0.133453,-1.968446 -0.08897,-0.266908 -0.333635,-0.400361 -0.733997,-0.400361 h -1.901719 c -0.934178,0 -1.568084,-0.322514 -1.901719,-0.967542 L 41.073201,8.6037272 c 0.578301,0.2891502 1.212207,0.4337254 1.901719,0.4337254 h 3.002714 c 0.867451,0 1.568084,0.1334539 2.1019,0.4003618 -0.08897,0.4226042 -0.200181,1.0676316 -0.333635,1.9350826 -0.177938,1.467993 -0.266908,2.468898 -0.266908,3.002713 0,1.935083 0.567179,3.658863 1.701538,5.171341 z m -1.034268,3.369713 c -0.378119,0.645028 -0.900814,1.290054 -1.568084,1.935082 l -0.56718,0.03336 c -0.289149,-1.290055 -0.433725,-2.580111 -0.433725,-3.870165 0,-0.911936 0.07785,-2.012931 0.233545,-3.302986 0.511573,1.601448 1.290055,3.336349 2.335444,5.204705 z"
         style="font-style:normal;font-variant:normal;font-weight:normal;font-stretch:normal;font-size:25.4px;line-height:1.25;font-family:'Guttman Mantova-Decor';-inkscape-font-specification:'Guttman Mantova-Decor';stroke-width:0.347536"
         id="path847"
         sodipodi:nodetypes="scsscccssscccsscssccssccsccccscc" />
      <path
         d="M 39.00005,9.0040891 C 38.154841,8.314577 37.209543,7.9698209 36.164154,7.9698209 h -9.375141 c -1.223327,0 -2.435534,-0.2224232 -3.63662,-0.6672698 0.266908,-1.1788433 0.400362,-2.179748 0.400362,-3.002714 0,-0.133454 -0.02224,-0.3113926 -0.06673,-0.5338159 l 1.000904,-0.4003618 c 0.17794,0.7784814 0.589422,1.3011761 1.23445,1.568084 0.467088,0.2001809 1.167722,0.3002714 2.101899,0.3002714 h 7.139787 c 1.445752,0 2.48002,0.2780291 3.102805,0.8340872 0.622784,0.5560581 0.934177,1.5347205 0.934177,2.9359871 z m -0.03336,1.3679029 -1.701538,8.541053 c -1.868356,1.156601 -3.92577,1.734901 -6.172246,1.734901 -2.046294,0 -3.959133,-0.38924 -5.73852,-1.167722 L 24.82057,14.442337 c -0.04449,-0.467088 -0.10009,-0.945299 -0.166817,-1.43463 -0.06673,-0.511574 -0.222423,-0.95642 -0.467089,-1.334539 -0.422604,-0.66727 -0.989783,-1.045389 -1.701538,-1.134358 l 0.533816,-2.2019907 c 1.290054,0.4670888 2.546747,0.7006333 3.770074,0.7006333 h 9.375141 c 0.845209,0 1.779386,0.4448465 2.802533,1.3345394 z m -1.834992,9.708775 c -0.733997,3.15841 -3.024956,4.737616 -6.872879,4.737616 -2.958229,0 -4.548556,-1.178844 -4.770979,-3.53653 l -0.06673,-0.700634 c 1.690417,0.756239 3.581015,1.134359 5.671793,1.134359 2.068537,0 4.081468,-0.544937 6.038792,-1.634811 z m -0.100091,-6.005428 c 0,-0.645028 -0.177939,-1.189964 -0.533815,-1.634811 -0.355877,-0.444846 -0.85633,-0.667269 -1.501357,-0.667269 h -8.874689 c -0.08896,1.579205 -0.133454,2.446656 -0.133454,2.602351 0,1.579206 0.444847,2.702443 1.33454,3.369713 0.778482,0.556058 1.990688,0.834087 3.63662,0.834087 1.356782,0 2.413293,-0.144575 3.169532,-0.433725 1.000905,-0.37812 1.779386,-1.089874 2.335444,-2.135264 0.37812,-0.689511 0.567179,-1.334539 0.567179,-1.935082 z"
         style="font-style:normal;font-variant:normal;font-weight:normal;font-stretch:normal;font-size:25.4px;line-height:1.25;font-family:'Guttman Mantova-Decor';-inkscape-font-specification:'Guttman Mantova-Decor';stroke-width:0.347536"
         id="path849"
         sodipodi:nodetypes="csscscccssscccsccccccssccsccscssscscsccs" />
      <path
         d="m 21.174679,7.3692781 -0.100091,0.6005428 h -9.608683 q -1.167723,0 -1.8016292,-0.2001809 L 8.0628283,7.1023702 Q 8.7634616,5.2673783 8.7634616,3.5992038 L 9.8310932,3.4991133 q 0,0.8340873 0.8340868,1.3345396 0.700634,0.4003619 1.601448,0.4003619 h 6.672697 q 2.235354,0 2.235354,2.1352633 z m 0.533816,17.1488329 q -0.233545,1.201086 -0.467089,2.068537 -1.601448,-2.268718 -2.268717,-5.371522 -0.500453,-2.201991 -0.500453,-2.302081 0.133454,-3.503166 0.133454,-3.836801 0,-1.634811 -0.300271,-2.468898 -0.300272,-0.834087 -1.367902,-0.834087 H 9.2972774 v 0.233544 q 0,1.034268 1.1677226,1.267812 3.469803,0.56718 3.469803,1.034268 v 0.600543 l -0.100091,0.967541 Q 12.767081,15.409879 10.831998,15.243061 8.5966441,15.04288 7.7959204,14.809336 q 0.133454,-0.433726 0.133454,-0.934178 0,-3.136167 -1.0676317,-4.1037087 0.6005428,-0.8007237 0.9675412,-1.7015379 1.3345396,0.6005428 1.8016284,0.7339967 0.7006337,0.2335445 1.8349927,0.2335445 h 9.508593 l -0.400362,3.3697124 q -0.433725,3.63662 -0.433725,5.137977 0,5.404885 1.568084,6.972969 z m -0.834088,3.069441 q -0.567179,1.401267 -1.501357,2.535625 h -0.934177 q 0,-0.834087 -0.100091,-2.502261 -0.06673,-1.634811 -0.06673,-2.468899 0,-1.267812 0.133454,-4.937796 0.266908,2.368808 0.733997,3.870165 0.533816,1.668174 1.734901,3.503166 z m -7.206512,-10.70968 q -0.166817,0.567179 -1.100995,1.968446 -1.33454,-0.567179 -2.168627,-0.567179 -1.1343591,0 -2.835897,0.567179 L 6.4613808,17.478415 q 0.8674507,-1.000905 1.1009952,-1.634811 0.6005428,0.166817 1.7349014,0.300271 l 2.9693506,0.366999 q 0.467089,0.06673 1.401267,0.366998 z"
         style="font-style:normal;font-variant:normal;font-weight:normal;font-stretch:normal;font-size:25.4px;line-height:1.25;font-family:'Guttman Mantova-Decor';-inkscape-font-specification:'Guttman Mantova-Decor';stroke-width:0.347536"
         id="path851" />
    </g>
    <g
       aria-label="Rabbi Ovadia Yosef Calendar"
       id="text856"
       style="font-size:3.3987px;line-height:1.25;font-family:Javar;-inkscape-font-specification:Javar;text-align:center;text-anchor:middle;stroke-width:0.283225"
       transform="translate(0,0.1998554)">
      <path
         d="m 31.013764,28.908929 q 0.03059,-0.0034 0.06797,-0.01699 0.04078,-0.0136 0.07477,-0.02719 0.03399,-0.01359 0.05778,-0.02039 0.02719,-0.0068 0.03059,0.0034 0.01359,0.02719 -0.04758,0.09516 -0.06118,0.06797 -0.169935,0.139347 -0.108759,0.07137 -0.258301,0.129151 -0.149543,0.05438 -0.312681,0.05438 -0.132549,0 -0.333072,-0.07137 -0.197125,-0.07137 -0.428237,-0.176732 -0.227713,-0.10536 -0.46902,-0.227713 -0.241308,-0.125752 -0.455426,-0.231112 -0.214118,-0.105359 -0.384053,-0.173333 -0.166536,-0.07137 -0.254903,-0.07137 -0.03399,0.0034 -0.06797,0.0068 -0.03399,0 -0.06797,0.0034 h -0.01699 q 0.0068,0.149543 0.0034,0.275295 -0.0034,0.122353 -0.03739,0.197124 -0.02719,0.06118 -0.09177,0.125752 -0.06118,0.06458 -0.132549,0.122353 -0.06797,0.05438 -0.135948,0.09856 -0.06797,0.04418 -0.10536,0.06458 -0.06118,0.03399 -0.09856,0.04758 -0.03739,0.0102 -0.06118,0.0102 -0.03059,0 -0.03399,-0.01699 -0.0034,-0.01699 0.0068,-0.02379 0.06118,-0.05778 0.09856,-0.12915 0.03739,-0.07137 0.05438,-0.186929 0.01699,-0.115555 0.01699,-0.28549 0.0034,-0.173334 -0.0034,-0.431635 0,-0.05098 -0.0034,-0.135948 -0.0034,-0.08497 -0.0034,-0.18353 0.0034,-0.09856 0.0102,-0.203922 0.0102,-0.10536 0.02379,-0.197125 0.01699,-0.09176 0.04418,-0.159739 0.03059,-0.06797 0.07137,-0.09177 0.152942,-0.08837 0.254903,-0.146144 0.101961,-0.06118 0.15634,-0.08497 -0.135948,0 -0.251504,0.0034 -0.112157,0.0034 -0.197125,0.0102 -0.09856,0.0034 -0.176732,0.0102 -0.0068,0 -0.01359,0 -0.01359,0 -0.01359,-0.0068 -0.0068,-0.01359 0.0034,-0.01699 0.01359,-0.0034 0.02039,-0.0102 0.07817,-0.02719 0.163138,-0.07477 0.08837,-0.04758 0.15634,-0.09516 0.08497,-0.05778 0.163138,-0.118955 0.08837,-0.0068 0.248105,-0.0136 0.163137,-0.0102 0.377256,-0.0102 0.271896,0 0.584576,0.02039 0.316079,0.01699 0.608367,0.06458 0.166537,0.02719 0.343269,0.06797 0.176732,0.03739 0.343269,0.08497 0.169935,0.04758 0.316079,0.108759 0.149543,0.05778 0.254902,0.125752 0.10536,0.06797 0.15634,0.146144 0.05438,0.07817 0.03399,0.166536 -0.02379,0.08837 -0.152941,0.180131 -0.125752,0.09176 -0.292288,0.186929 -0.254903,0.149542 -0.625361,0.237909 -0.370458,0.08837 -0.866669,0.149542 0.101961,0.05778 0.248106,0.135948 0.146144,0.07817 0.31268,0.163138 0.166536,0.08157 0.343269,0.159739 0.180131,0.07817 0.346667,0.139347 0.166536,0.05778 0.31268,0.08837 0.149543,0.03059 0.254903,0.01699 z M 27.96513,28.103437 q 0.275295,0 0.570982,-0.02379 0.295687,-0.02379 0.581177,-0.06118 0.28889,-0.03739 0.55059,-0.08157 0.2617,-0.04758 0.465622,-0.08837 0.20732,-0.04418 0.336471,-0.08157 0.132549,-0.03739 0.159739,-0.05438 0.01359,-0.03399 -0.0034,-0.08157 -0.01699,-0.05098 -0.04758,-0.08497 -0.07817,-0.08157 -0.248105,-0.163138 -0.166536,-0.08497 -0.39085,-0.15634 -0.220916,-0.07137 -0.486014,-0.125752 -0.265099,-0.05778 -0.536995,-0.08497 -0.214118,-0.01699 -0.431635,-0.02379 -0.214118,-0.0068 -0.407844,-0.0068 -0.01359,0.03399 -0.03399,0.08497 -0.02039,0.05098 -0.03739,0.15634 -0.01699,0.10536 -0.03059,0.278693 -0.0102,0.173334 -0.0102,0.452027 z"
         style="font-size:3.3987px;text-align:center;text-anchor:middle;stroke-width:0.283225"
         id="path878" />
      <path
         d="m 34.779517,28.976903 q 0.04078,-0.01699 0.05778,-0.04078 0.02039,-0.02719 0.03739,-0.0102 0.02039,0.02039 -0.02039,0.07817 -0.03738,0.05438 -0.115555,0.112157 -0.07817,0.05778 -0.186929,0.101961 -0.10536,0.04418 -0.220915,0.04418 -0.139347,0 -0.282093,-0.07817 -0.139346,-0.08157 -0.275294,-0.214118 -0.135948,-0.132549 -0.265099,-0.299086 -0.125752,-0.169935 -0.237909,-0.343268 -0.108758,-0.173334 -0.203922,-0.33987 -0.09177,-0.166537 -0.15634,-0.295687 -0.122353,0.186928 -0.268497,0.377255 -0.146144,0.186929 -0.302485,0.356864 -0.152941,0.166536 -0.305883,0.305883 -0.149542,0.139347 -0.278693,0.231112 0.203922,-0.07817 0.414641,-0.09856 0.21072,-0.02379 0.428237,-0.02379 0.139346,0 0.268497,0.0102 0.12915,0.0102 0.214118,0.03399 0.06118,0.01699 0.101961,0.04078 0.04078,0.02379 0.06797,0.04418 0.02719,0.02719 0.04418,0.05098 -0.03739,0.04758 -0.10536,0.09176 -0.06457,0.04078 -0.132549,0.07477 -0.07817,0.04078 -0.166536,0.07817 -0.02719,-0.04418 -0.09177,-0.07477 -0.06118,-0.03399 -0.149543,-0.05438 -0.08837,-0.02379 -0.197125,-0.03399 -0.105359,-0.01359 -0.220915,-0.01359 -0.10536,0 -0.224314,0.0068 -0.115556,0.0034 -0.227713,0.01699 -0.108759,0.0102 -0.203922,0.03399 -0.09516,0.02379 -0.15634,0.06118 -0.03059,0.01699 -0.07477,0.04418 -0.04418,0.02379 -0.08157,0.04418 -0.04758,0.02379 -0.09516,0.04758 -0.03399,0.0136 -0.04758,0 -0.0102,-0.01699 -0.0068,-0.03059 0.0068,-0.0102 0.02039,-0.01699 0.04418,-0.02719 0.08497,-0.05098 0.04078,-0.02379 0.08157,-0.04758 0.18353,-0.132549 0.387452,-0.329674 0.207321,-0.197125 0.404445,-0.431635 0.200524,-0.237909 0.377256,-0.499609 0.180131,-0.265098 0.309282,-0.5234 0.08157,-0.04078 0.15634,-0.08497 0.06797,-0.03739 0.135948,-0.07817 0.06797,-0.04078 0.115556,-0.07817 0.05098,0.09176 0.125752,0.231111 0.07817,0.139347 0.169935,0.299086 0.09516,0.159739 0.197124,0.329674 0.10536,0.166536 0.21072,0.319478 0.108758,0.149542 0.214118,0.271896 0.105359,0.122353 0.200523,0.190327 0.149543,0.108758 0.248105,0.142745 0.101961,0.03059 0.159739,0.03059 0.04758,0 0.06797,-0.0102 z"
         style="font-size:3.3987px;text-align:center;text-anchor:middle;stroke-width:0.283225"
         id="path880" />
      <path
         d="m 36.886703,28.117032 q 0.227712,0.01699 0.455425,0.06118 0.227713,0.04078 0.407844,0.10536 0.18353,0.06118 0.295687,0.142745 0.115556,0.07817 0.118955,0.169935 0.0034,0.125752 -0.108759,0.227713 -0.108758,0.09856 -0.305883,0.173334 -0.197124,0.07137 -0.462223,0.122353 -0.2617,0.05098 -0.564184,0.08497 -0.302484,0.03059 -0.62876,0.04418 -0.322876,0.01359 -0.638955,0.01359 -0.10536,0 -0.180131,0 -0.07137,0 -0.115556,-0.0034 l -0.03399,0.01699 q -0.05098,0.02719 -0.08497,0.03739 -0.03059,0.01359 -0.04758,0.01359 -0.02719,0 -0.03059,-0.01359 0,-0.0136 0.0068,-0.02039 0.05098,-0.04758 0.08157,-0.112157 0.03059,-0.06457 0.04418,-0.166536 0.01699,-0.101961 0.01699,-0.248105 0.0034,-0.149543 -0.0034,-0.360262 -0.0034,-0.06458 -0.0068,-0.190327 0,-0.129151 0.0068,-0.2617 0.0102,-0.13255 0.03739,-0.241308 0.02719,-0.112157 0.08157,-0.139347 0.118954,-0.05778 0.193726,-0.101961 0.07817,-0.04418 0.125752,-0.07137 -0.139347,0.0102 -0.268498,0.03059 -0.12915,0.01699 -0.248105,0.03739 -0.03059,0.0034 -0.03739,-0.0102 -0.0034,-0.01359 0.03739,-0.04078 0.02379,-0.01359 0.07817,-0.04418 0.05778,-0.03399 0.118955,-0.07137 0.07137,-0.04078 0.152941,-0.08837 0.122354,-0.02379 0.28889,-0.04418 0.142745,-0.01699 0.350066,-0.02379 0.210719,-0.0102 0.482615,-0.0034 0.2617,0.0068 0.482616,0.03059 0.220915,0.02039 0.380654,0.06457 0.159739,0.04078 0.244707,0.108758 0.08497,0.06458 0.07817,0.163138 -0.0034,0.06118 -0.07477,0.135948 -0.07137,0.07477 -0.200523,0.152941 -0.125752,0.07817 -0.309282,0.159739 -0.180131,0.07817 -0.404445,0.149543 0.04758,0.0034 0.09177,0.0068 0.04758,0 0.09516,0.0034 z m -1.277912,-0.720524 q -0.01359,0.02379 -0.03059,0.06118 -0.0136,0.03739 -0.02719,0.122354 -0.0102,0.08497 -0.02039,0.23451 -0.0068,0.149543 -0.0034,0.397648 v 0.02039 l 0.159738,-0.112157 q 0.152942,-0.0068 0.356864,-0.03059 0.207321,-0.02379 0.424837,-0.06458 0.220916,-0.04078 0.431635,-0.101961 0.21072,-0.06118 0.36706,-0.142745 0.06118,-0.05098 0.04418,-0.112157 -0.01699,-0.06457 -0.08497,-0.10536 -0.163138,-0.10536 -0.513204,-0.139347 -0.346668,-0.03399 -0.910852,-0.03739 -0.101961,0 -0.193726,0.0102 z m 2.195561,1.400264 q 0.0102,-0.05098 -0.101961,-0.115556 -0.108759,-0.06457 -0.295687,-0.125751 -0.186929,-0.06458 -0.435034,-0.115556 -0.244706,-0.05098 -0.509805,-0.06797 -0.07817,-0.0068 -0.193726,-0.0068 -0.115556,-0.0034 -0.244706,-0.0034 -0.129151,0 -0.258301,0.0034 -0.129151,0.0034 -0.234511,0.0102 0.0034,0.08497 0.0068,0.169935 0.0034,0.08497 0,0.159739 0,0.07477 -0.0068,0.135948 -0.0068,0.06118 -0.02379,0.09856 -0.0068,0.0102 -0.01359,0.02379 -0.0034,0.0102 -0.0102,0.01699 0.227713,0.02719 0.458825,0.04078 0.23451,0.01359 0.458824,0.01359 0.282093,0 0.533596,-0.01699 0.251504,-0.02039 0.441831,-0.05098 0.190328,-0.03399 0.305883,-0.07477 0.115556,-0.04418 0.122354,-0.09516 z"
         style="font-size:3.3987px;text-align:center;text-anchor:middle;stroke-width:0.283225"
         id="path882" />
      <path
         d="m 40.241218,28.117032 q 0.227713,0.01699 0.455426,0.06118 0.227713,0.04078 0.407844,0.10536 0.18353,0.06118 0.295687,0.142745 0.115556,0.07817 0.118954,0.169935 0.0034,0.125752 -0.108758,0.227713 -0.108758,0.09856 -0.305883,0.173334 -0.197125,0.07137 -0.462223,0.122353 -0.2617,0.05098 -0.564184,0.08497 -0.302485,0.03059 -0.62876,0.04418 -0.322876,0.01359 -0.638956,0.01359 -0.105359,0 -0.180131,0 -0.07137,0 -0.115555,-0.0034 l -0.03399,0.01699 q -0.05098,0.02719 -0.08497,0.03739 -0.03059,0.01359 -0.04758,0.01359 -0.02719,0 -0.03059,-0.01359 0,-0.0136 0.0068,-0.02039 0.05098,-0.04758 0.08157,-0.112157 0.03059,-0.06457 0.04418,-0.166536 0.01699,-0.101961 0.01699,-0.248105 0.0034,-0.149543 -0.0034,-0.360262 -0.0034,-0.06458 -0.0068,-0.190327 0,-0.129151 0.0068,-0.2617 0.0102,-0.13255 0.03739,-0.241308 0.02719,-0.112157 0.08157,-0.139347 0.118954,-0.05778 0.193725,-0.101961 0.07817,-0.04418 0.125752,-0.07137 -0.139346,0.0102 -0.268497,0.03059 -0.129151,0.01699 -0.248105,0.03739 -0.03059,0.0034 -0.03739,-0.0102 -0.0034,-0.01359 0.03739,-0.04078 0.02379,-0.01359 0.07817,-0.04418 0.05778,-0.03399 0.118955,-0.07137 0.07137,-0.04078 0.152941,-0.08837 0.122353,-0.02379 0.28889,-0.04418 0.142745,-0.01699 0.350066,-0.02379 0.210719,-0.0102 0.482615,-0.0034 0.2617,0.0068 0.482615,0.03059 0.220916,0.02039 0.380655,0.06457 0.159739,0.04078 0.244706,0.108758 0.08497,0.06458 0.07817,0.163138 -0.0034,0.06118 -0.07477,0.135948 -0.07137,0.07477 -0.200523,0.152941 -0.125752,0.07817 -0.309282,0.159739 -0.180131,0.07817 -0.404445,0.149543 0.04758,0.0034 0.09176,0.0068 0.04758,0 0.09516,0.0034 z m -1.277911,-0.720524 q -0.0136,0.02379 -0.03059,0.06118 -0.0136,0.03739 -0.02719,0.122354 -0.0102,0.08497 -0.02039,0.23451 -0.0068,0.149543 -0.0034,0.397648 v 0.02039 l 0.159739,-0.112157 q 0.152942,-0.0068 0.356864,-0.03059 0.20732,-0.02379 0.424837,-0.06458 0.220916,-0.04078 0.431635,-0.101961 0.210719,-0.06118 0.36706,-0.142745 0.06118,-0.05098 0.04418,-0.112157 -0.01699,-0.06457 -0.08497,-0.10536 -0.163137,-0.10536 -0.513204,-0.139347 -0.346667,-0.03399 -0.910851,-0.03739 -0.101961,0 -0.193726,0.0102 z m 2.19556,1.400264 q 0.0102,-0.05098 -0.101961,-0.115556 -0.108758,-0.06457 -0.295687,-0.125751 -0.186928,-0.06458 -0.435033,-0.115556 -0.244707,-0.05098 -0.509805,-0.06797 -0.07817,-0.0068 -0.193726,-0.0068 -0.115556,-0.0034 -0.244707,-0.0034 -0.12915,0 -0.258301,0.0034 -0.12915,0.0034 -0.23451,0.0102 0.0034,0.08497 0.0068,0.169935 0.0034,0.08497 0,0.159739 0,0.07477 -0.0068,0.135948 -0.0068,0.06118 -0.02379,0.09856 -0.0068,0.0102 -0.01359,0.02379 -0.0034,0.0102 -0.0102,0.01699 0.227713,0.02719 0.458825,0.04078 0.23451,0.01359 0.458824,0.01359 0.282092,0 0.533596,-0.01699 0.251504,-0.02039 0.441831,-0.05098 0.190327,-0.03399 0.305883,-0.07477 0.115556,-0.04418 0.122353,-0.09516 z"
         style="font-size:3.3987px;text-align:center;text-anchor:middle;stroke-width:0.283225"
         id="path884" />
      <path
         d="m 42.297428,27.206181 q 0.01699,-0.0136 0.03739,-0.02379 0.02379,-0.0136 0.03739,-0.0136 0.01359,0 0.0102,0.02039 -0.0034,0.01699 -0.03739,0.06457 -0.07477,0.108759 -0.08497,0.33987 -0.0102,0.231112 -0.0102,0.587976 0,0.275294 0.0068,0.462223 0.0068,0.186928 -0.03059,0.285491 -0.02719,0.08837 -0.108758,0.159738 -0.07817,0.07137 -0.251504,0.139347 -0.03739,0.01359 -0.07137,0.02379 -0.03399,0.0102 -0.05098,0.0102 -0.04078,0 0.0136,-0.05438 0.04078,-0.04078 0.05438,-0.169935 0.01699,-0.132549 0.01699,-0.28889 0.0034,-0.159738 -0.0034,-0.309281 -0.0068,-0.149543 -0.0068,-0.227713 -0.0034,-0.07817 -0.0068,-0.203922 0,-0.129151 0.0136,-0.258301 0.01359,-0.129151 0.04418,-0.234511 0.03059,-0.105359 0.09516,-0.139346 0.125752,-0.06797 0.197125,-0.09856 0.07137,-0.03399 0.135948,-0.07137 z"
         style="font-size:3.3987px;text-align:center;text-anchor:middle;stroke-width:0.283225"
         id="path886" />
      <path
         d="m 46.695334,26.682781 q 0.33987,0 0.65255,0.09856 0.312681,0.09856 0.547191,0.268497 0.237909,0.166537 0.370458,0.387452 0.135948,0.217517 0.115556,0.458825 -0.01699,0.241307 -0.217517,0.489413 -0.197124,0.248105 -0.625361,0.46902 -0.142745,0.08497 -0.319477,0.166536 -0.173334,0.07817 -0.377256,0.142746 -0.200523,0.06118 -0.421439,0.09856 -0.220915,0.03739 -0.455426,0.03739 -0.18353,0 -0.373857,-0.02719 -0.186928,-0.02719 -0.377255,-0.08837 -0.224315,-0.07477 -0.414642,-0.203922 -0.190327,-0.132549 -0.316079,-0.299086 -0.125752,-0.169935 -0.173334,-0.360262 -0.04758,-0.193726 0.01699,-0.39085 0.06458,-0.197125 0.251504,-0.384053 0.186928,-0.190328 0.530197,-0.346668 0.159739,-0.101961 0.316079,-0.193726 0.15634,-0.09516 0.33987,-0.166536 0.186928,-0.07137 0.411243,-0.112157 0.227713,-0.04418 0.520001,-0.04418 z m 0.849675,2.080004 q 0.18353,-0.149543 0.265098,-0.322876 0.08497,-0.173334 0.08157,-0.346668 -0.0034,-0.176732 -0.09516,-0.343268 -0.08837,-0.169935 -0.254903,-0.312681 -0.163138,-0.142745 -0.401047,-0.248105 -0.23451,-0.108758 -0.533595,-0.159739 -0.10536,-0.01699 -0.207321,-0.02379 -0.09856,-0.0102 -0.193726,-0.0102 -0.200523,0 -0.373857,0.03059 -0.173334,0.02719 -0.316079,0.06797 -0.139347,0.04078 -0.241308,0.08497 -0.09856,0.04418 -0.15634,0.07477 -0.115556,0.08497 -0.193726,0.207321 -0.07817,0.118955 -0.112157,0.258301 -0.03059,0.139347 -0.0136,0.292289 0.02039,0.149542 0.101961,0.295686 0.08157,0.142746 0.227713,0.271896 0.149543,0.129151 0.373857,0.227713 0.217517,0.09516 0.441831,0.135948 0.227713,0.04078 0.452027,0.04078 0.333073,0 0.632158,-0.06797 0.299086,-0.07137 0.516603,-0.152942 z"
         style="font-size:3.3987px;text-align:center;text-anchor:middle;stroke-width:0.283225"
         id="path888" />
      <path
         d="m 51.660833,27.175592 q 0.09176,0.05098 0.112157,0.166537 0.0102,0.04758 0.0034,0.115555 -0.0068,0.06797 -0.03739,0.156341 -0.02719,0.08837 -0.08497,0.203922 -0.05778,0.112157 -0.15634,0.254902 -0.200523,0.295687 -0.394249,0.520001 -0.193726,0.220916 -0.370459,0.370459 -0.176732,0.149542 -0.333072,0.227712 -0.15634,0.07477 -0.278694,0.07477 -0.105359,0 -0.210719,-0.07477 -0.10536,-0.07477 -0.207321,-0.197124 -0.101961,-0.125752 -0.203922,-0.282092 -0.09856,-0.15634 -0.197124,-0.319478 -0.09516,-0.166536 -0.190327,-0.322877 -0.09516,-0.159738 -0.190328,-0.282092 -0.09177,-0.125752 -0.183529,-0.203922 -0.08837,-0.07817 -0.176733,-0.08157 -0.02379,-0.0034 -0.04078,0.0068 -0.01699,0.0102 -0.03059,0 -0.0068,-0.0068 0,-0.0136 0.0102,-0.0102 0.01359,-0.01359 0.03399,-0.03059 0.08497,-0.08157 0.05098,-0.05098 0.105359,-0.09856 0.05778,-0.04758 0.108759,-0.07817 0.05438,-0.03399 0.08837,-0.02719 0.152942,0.02379 0.28889,0.163137 0.135948,0.139347 0.261699,0.336471 0.129151,0.193726 0.251504,0.418041 0.125752,0.220915 0.251504,0.407844 0.129151,0.186928 0.265099,0.31268 0.139346,0.122353 0.292288,0.122353 0.09176,0 0.18353,-0.04758 0.105359,-0.07817 0.20732,-0.186928 0.101961,-0.108759 0.186929,-0.23451 0.08837,-0.129151 0.152941,-0.271896 0.06797,-0.142746 0.09856,-0.285491 0.03399,-0.142746 0.02719,-0.278694 -0.0068,-0.139346 -0.06457,-0.2617 z"
         style="font-size:3.3987px;text-align:center;text-anchor:middle;stroke-width:0.283225"
         id="path890" />
      <path
         d="m 54.886188,28.976903 q 0.04078,-0.01699 0.05778,-0.04078 0.02039,-0.02719 0.03739,-0.0102 0.02039,0.02039 -0.02039,0.07817 -0.03739,0.05438 -0.115555,0.112157 -0.07817,0.05778 -0.186929,0.101961 -0.10536,0.04418 -0.220915,0.04418 -0.139347,0 -0.282092,-0.07817 -0.139347,-0.08157 -0.275295,-0.214118 -0.135948,-0.132549 -0.265099,-0.299086 -0.125752,-0.169935 -0.237909,-0.343268 -0.108758,-0.173334 -0.203922,-0.33987 -0.09177,-0.166537 -0.15634,-0.295687 -0.122353,0.186928 -0.268497,0.377255 -0.146144,0.186929 -0.302485,0.356864 -0.152941,0.166536 -0.305883,0.305883 -0.149542,0.139347 -0.278693,0.231112 0.203922,-0.07817 0.414641,-0.09856 0.21072,-0.02379 0.428237,-0.02379 0.139346,0 0.268497,0.0102 0.129151,0.0102 0.214118,0.03399 0.06118,0.01699 0.101961,0.04078 0.04078,0.02379 0.06797,0.04418 0.02719,0.02719 0.04418,0.05098 -0.03739,0.04758 -0.10536,0.09176 -0.06458,0.04078 -0.132549,0.07477 -0.07817,0.04078 -0.166536,0.07817 -0.02719,-0.04418 -0.09176,-0.07477 -0.06118,-0.03399 -0.149543,-0.05438 -0.08837,-0.02379 -0.197124,-0.03399 -0.10536,-0.01359 -0.220916,-0.01359 -0.10536,0 -0.224314,0.0068 -0.115556,0.0034 -0.227713,0.01699 -0.108758,0.0102 -0.203922,0.03399 -0.09516,0.02379 -0.15634,0.06118 -0.03059,0.01699 -0.07477,0.04418 -0.04418,0.02379 -0.08157,0.04418 -0.04758,0.02379 -0.09516,0.04758 -0.03399,0.0136 -0.04758,0 -0.0102,-0.01699 -0.0068,-0.03059 0.0068,-0.0102 0.02039,-0.01699 0.04418,-0.02719 0.08497,-0.05098 0.04078,-0.02379 0.08157,-0.04758 0.18353,-0.132549 0.387452,-0.329674 0.207321,-0.197125 0.404445,-0.431635 0.200524,-0.237909 0.377256,-0.499609 0.180131,-0.265098 0.309282,-0.5234 0.08157,-0.04078 0.15634,-0.08497 0.06797,-0.03739 0.135948,-0.07817 0.06797,-0.04078 0.115556,-0.07817 0.05098,0.09176 0.125752,0.231111 0.07817,0.139347 0.169935,0.299086 0.09516,0.159739 0.197124,0.329674 0.10536,0.166536 0.21072,0.319478 0.108758,0.149542 0.214118,0.271896 0.105359,0.122353 0.200523,0.190327 0.149543,0.108758 0.248105,0.142745 0.101961,0.03059 0.159739,0.03059 0.04758,0 0.06797,-0.0102 z"
         style="font-size:3.3987px;text-align:center;text-anchor:middle;stroke-width:0.283225"
         id="path892" />
      <path
         d="m 55.42997,27.148403 q 0.09516,0 0.278694,0.0102 0.18353,0.0102 0.414641,0.03399 0.23451,0.02039 0.499609,0.05438 0.265099,0.03399 0.526799,0.08497 0.261699,0.05098 0.503007,0.118954 0.241308,0.06797 0.424838,0.15634 0.186928,0.08497 0.295687,0.193726 0.112157,0.108759 0.112157,0.237909 0,0.09176 -0.06118,0.214118 -0.06118,0.118955 -0.207321,0.248105 -0.142745,0.129151 -0.380654,0.254903 -0.237909,0.125752 -0.594773,0.231111 -0.356863,0.101961 -0.842877,0.173334 -0.486014,0.07137 -1.12497,0.09176 -0.0068,0.0034 -0.0102,0.0068 -0.0034,0 -0.0102,0.0034 -0.09516,0.04758 -0.129151,0.04758 -0.02719,0 -0.03059,-0.01359 0,-0.01359 0.0102,-0.02039 0.05098,-0.04758 0.07817,-0.108758 0.03059,-0.06458 0.04418,-0.163138 0.0136,-0.101961 0.0136,-0.248105 0.0034,-0.146144 -0.0034,-0.360262 0,-0.06118 -0.0034,-0.173334 0,-0.112157 0.0102,-0.227713 0.0102,-0.115556 0.03399,-0.210719 0.02719,-0.09516 0.08157,-0.125752 0.125752,-0.07477 0.20732,-0.122353 0.08497,-0.05098 0.129151,-0.07477 -0.193726,-0.01699 -0.370458,-0.02379 -0.176733,-0.0102 -0.322877,-0.0102 0.0102,-0.02379 0.07137,-0.06797 0.06457,-0.04758 0.139347,-0.09176 0.07817,-0.04758 0.142745,-0.08157 0.06457,-0.03739 0.07477,-0.03739 z m 1.967848,1.610984 q 0.173333,-0.03739 0.322876,-0.09856 0.152942,-0.06118 0.265099,-0.132549 0.112157,-0.07477 0.176732,-0.149543 0.06797,-0.07817 0.06797,-0.142745 0,-0.101961 -0.108758,-0.190327 -0.108759,-0.08837 -0.295687,-0.166537 -0.186929,-0.07817 -0.435034,-0.142745 -0.244706,-0.06457 -0.5234,-0.115556 -0.275294,-0.05438 -0.564184,-0.09176 -0.288889,-0.04078 -0.560785,-0.06458 -0.0136,0.02379 -0.03059,0.06118 -0.01359,0.03399 -0.02719,0.108759 -0.0136,0.07477 -0.02379,0.210719 -0.0068,0.13255 -0.0068,0.356864 0,0.09516 0.0034,0.203922 0.0068,0.105359 0.0068,0.203922 0.0034,0.09856 -0.0034,0.186928 -0.0068,0.08497 -0.03399,0.142746 -0.0034,0.0068 -0.0034,0.0068 0.05778,-0.0034 0.166537,-0.0068 0.108758,-0.0034 0.251503,-0.01359 0.146144,-0.0102 0.316079,-0.02379 0.169935,-0.0136 0.346668,-0.03399 0.180131,-0.02039 0.356863,-0.04758 0.180131,-0.02719 0.336472,-0.06118 z"
         style="font-size:3.3987px;text-align:center;text-anchor:middle;stroke-width:0.283225"
         id="path894" />
      <path
         d="m 59.277288,27.206181 q 0.01699,-0.0136 0.03739,-0.02379 0.02379,-0.0136 0.03739,-0.0136 0.01359,0 0.0102,0.02039 -0.0034,0.01699 -0.03739,0.06457 -0.07477,0.108759 -0.08497,0.33987 -0.0102,0.231112 -0.0102,0.587976 0,0.275294 0.0068,0.462223 0.0068,0.186928 -0.03059,0.285491 -0.02719,0.08837 -0.108759,0.159738 -0.07817,0.07137 -0.251504,0.139347 -0.03739,0.01359 -0.07137,0.02379 -0.03399,0.0102 -0.05098,0.0102 -0.04078,0 0.01359,-0.05438 0.04078,-0.04078 0.05438,-0.169935 0.01699,-0.132549 0.01699,-0.28889 0.0034,-0.159738 -0.0034,-0.309281 -0.0068,-0.149543 -0.0068,-0.227713 -0.0034,-0.07817 -0.0068,-0.203922 0,-0.129151 0.01359,-0.258301 0.0136,-0.129151 0.04418,-0.234511 0.03059,-0.105359 0.09516,-0.139346 0.125752,-0.06797 0.197124,-0.09856 0.07137,-0.03399 0.135948,-0.07137 z"
         style="font-size:3.3987px;text-align:center;text-anchor:middle;stroke-width:0.283225"
         id="path896" />
      <path
         d="m 62.910493,28.976903 q 0.04078,-0.01699 0.05778,-0.04078 0.02039,-0.02719 0.03739,-0.0102 0.02039,0.02039 -0.02039,0.07817 -0.03739,0.05438 -0.115556,0.112157 -0.07817,0.05778 -0.186929,0.101961 -0.105359,0.04418 -0.220915,0.04418 -0.139347,0 -0.282092,-0.07817 -0.139347,-0.08157 -0.275295,-0.214118 -0.135948,-0.132549 -0.265098,-0.299086 -0.125752,-0.169935 -0.237909,-0.343268 -0.108759,-0.173334 -0.203922,-0.33987 -0.09177,-0.166537 -0.156341,-0.295687 -0.122353,0.186928 -0.268497,0.377255 -0.146144,0.186929 -0.302484,0.356864 -0.152942,0.166536 -0.305883,0.305883 -0.149543,0.139347 -0.278694,0.231112 0.203922,-0.07817 0.414642,-0.09856 0.210719,-0.02379 0.428236,-0.02379 0.139347,0 0.268497,0.0102 0.129151,0.0102 0.214118,0.03399 0.06118,0.01699 0.101961,0.04078 0.04078,0.02379 0.06797,0.04418 0.02719,0.02719 0.04418,0.05098 -0.03739,0.04758 -0.105359,0.09176 -0.06458,0.04078 -0.13255,0.07477 -0.07817,0.04078 -0.166536,0.07817 -0.02719,-0.04418 -0.09177,-0.07477 -0.06118,-0.03399 -0.149543,-0.05438 -0.08837,-0.02379 -0.197124,-0.03399 -0.10536,-0.01359 -0.220916,-0.01359 -0.105359,0 -0.224314,0.0068 -0.115556,0.0034 -0.227713,0.01699 -0.108758,0.0102 -0.203922,0.03399 -0.09516,0.02379 -0.15634,0.06118 -0.03059,0.01699 -0.07477,0.04418 -0.04418,0.02379 -0.08157,0.04418 -0.04758,0.02379 -0.09516,0.04758 -0.03399,0.0136 -0.04758,0 -0.0102,-0.01699 -0.0068,-0.03059 0.0068,-0.0102 0.02039,-0.01699 0.04418,-0.02719 0.08497,-0.05098 0.04078,-0.02379 0.08157,-0.04758 0.183529,-0.132549 0.387451,-0.329674 0.207321,-0.197125 0.404446,-0.431635 0.200523,-0.237909 0.377255,-0.499609 0.180131,-0.265098 0.309282,-0.5234 0.08157,-0.04078 0.15634,-0.08497 0.06797,-0.03739 0.135948,-0.07817 0.06797,-0.04078 0.115556,-0.07817 0.05098,0.09176 0.125752,0.231111 0.07817,0.139347 0.169935,0.299086 0.09516,0.159739 0.197125,0.329674 0.105359,0.166536 0.210719,0.319478 0.108758,0.149542 0.214118,0.271896 0.10536,0.122353 0.200523,0.190327 0.149543,0.108758 0.248105,0.142745 0.101961,0.03059 0.159739,0.03059 0.04758,0 0.06797,-0.0102 z"
         style="font-size:3.3987px;text-align:center;text-anchor:middle;stroke-width:0.283225"
         id="path898" />
      <path
         d="m 68.345004,26.716768 q 0.03059,0.03399 0.04418,0.08497 0.0102,0.04078 0.0068,0.101961 0,0.06118 -0.03739,0.142746 -0.05098,0.115556 -0.18353,0.288889 -0.129151,0.173334 -0.312681,0.353465 -0.183529,0.180131 -0.401046,0.33987 -0.214118,0.159739 -0.435034,0.248105 0.0034,0.09176 0.0034,0.18353 0.0034,0.09176 0,0.173334 -0.0034,0.07817 -0.01359,0.146144 -0.0068,0.06457 -0.02379,0.105359 -0.03059,0.07137 -0.09516,0.129151 -0.06118,0.05438 -0.13255,0.09856 -0.06797,0.04078 -0.132549,0.07137 -0.06458,0.02719 -0.101961,0.04758 -0.06457,0.03739 -0.101961,0.04758 -0.03739,0.01359 -0.06118,0.01359 -0.03059,0 -0.03399,-0.01699 0,-0.01699 0.0068,-0.02379 0.05778,-0.05438 0.09176,-0.118954 0.03739,-0.06797 0.05438,-0.169935 0.02039,-0.10536 0.02379,-0.254903 0.0068,-0.149543 0,-0.373857 -0.169935,-0.04078 -0.329674,-0.149543 -0.15634,-0.112157 -0.305883,-0.254902 -0.146144,-0.146144 -0.278694,-0.302485 -0.132549,-0.15634 -0.248105,-0.288889 -0.115555,-0.132549 -0.214118,-0.217517 -0.09516,-0.08837 -0.169935,-0.09177 -0.04758,-0.0034 -0.04758,-0.01699 0,-0.01359 0.02379,-0.02379 0.04078,-0.02039 0.112157,-0.06458 0.07477,-0.04758 0.149543,-0.09176 0.07817,-0.04418 0.139347,-0.07817 0.06458,-0.03739 0.08837,-0.03739 0.08497,-0.0068 0.197125,0.09177 0.115556,0.09856 0.244706,0.248105 0.132549,0.149543 0.278694,0.326275 0.149542,0.173334 0.305883,0.326275 0.15634,0.149543 0.31268,0.251504 0.159739,0.101961 0.316079,0.101961 0.07477,0 0.135948,-0.02379 0.03399,-0.0136 0.10536,-0.07137 0.07137,-0.05778 0.15634,-0.146144 0.08497,-0.08837 0.169935,-0.193726 0.08497,-0.108758 0.142745,-0.220915 0.06118,-0.112157 0.08157,-0.217517 0.02039,-0.108758 -0.02379,-0.190327 z"
         style="font-size:3.3987px;text-align:center;text-anchor:middle;stroke-width:0.283225"
         id="path900" />
      <path
         d="m 70.105521,27.141605 q 0.278694,0 0.536995,0.08157 0.258301,0.08157 0.452027,0.220916 0.193726,0.135948 0.302484,0.319477 0.112158,0.180132 0.09516,0.380655 -0.01699,0.197124 -0.180131,0.401046 -0.159739,0.200524 -0.513204,0.384054 -0.115556,0.06797 -0.2617,0.135948 -0.142745,0.06457 -0.309281,0.115555 -0.163138,0.05098 -0.346668,0.08157 -0.180131,0.03059 -0.370458,0.03059 -0.152942,0 -0.309282,-0.02379 -0.152941,-0.02379 -0.31268,-0.07477 -0.18353,-0.05778 -0.343269,-0.166536 -0.15634,-0.108759 -0.2617,-0.244707 -0.101961,-0.139346 -0.139346,-0.295686 -0.03739,-0.159739 0.01359,-0.319478 0.05098,-0.163138 0.203922,-0.316079 0.156341,-0.156341 0.438433,-0.285491 0.12915,-0.08497 0.258301,-0.159739 0.132549,-0.07817 0.282092,-0.135948 0.152941,-0.06118 0.336471,-0.09516 0.186929,-0.03399 0.428236,-0.03399 z m 0.696734,1.709546 q 0.149543,-0.122353 0.217517,-0.265098 0.07137,-0.142746 0.06797,-0.285491 -0.0034,-0.146144 -0.07817,-0.282092 -0.07137,-0.139347 -0.207321,-0.254903 -0.135948,-0.118954 -0.329674,-0.20732 -0.193726,-0.08837 -0.438432,-0.129151 -0.08837,-0.01699 -0.169935,-0.02039 -0.08157,-0.0068 -0.159739,-0.0068 -0.163138,0 -0.305883,0.02379 -0.142746,0.02379 -0.258301,0.05778 -0.115556,0.03399 -0.200524,0.07137 -0.08157,0.03399 -0.12915,0.06118 -0.142746,0.105359 -0.217517,0.271896 -0.07137,0.166536 -0.04758,0.350066 0.02719,0.180131 0.163138,0.356863 0.135948,0.173334 0.414641,0.295687 0.180131,0.07817 0.36706,0.112157 0.186928,0.03059 0.370458,0.03059 0.275295,0 0.520001,-0.05438 0.244707,-0.05778 0.421439,-0.125752 z"
         style="font-size:3.3987px;text-align:center;text-anchor:middle;stroke-width:0.283225"
         id="path902" />
      <path
         d="m 72.82447,27.9403 q 0.152942,0.02379 0.350066,0.05438 0.200523,0.03059 0.407844,0.07137 0.21072,0.03739 0.411243,0.08837 0.203922,0.04758 0.360262,0.112157 0.159739,0.06118 0.254903,0.139347 0.09856,0.07817 0.09856,0.173333 0,0.08837 -0.10536,0.214119 -0.101961,0.122353 -0.299085,0.23451 -0.197125,0.112157 -0.482616,0.193726 -0.285491,0.07817 -0.645753,0.07817 -0.285491,0 -0.536994,-0.03059 -0.251504,-0.02719 -0.44523,-0.07477 -0.190327,-0.05098 -0.316079,-0.115556 -0.125752,-0.06457 -0.163138,-0.132549 l 0.384053,-0.268497 q 0.02719,0.04418 0.112157,0.105359 0.08837,0.06118 0.231112,0.115556 0.142745,0.05438 0.33987,0.09176 0.197125,0.03739 0.441831,0.03739 0.163138,0 0.326275,-0.01359 0.163138,-0.01699 0.302484,-0.04078 0.142746,-0.02379 0.251504,-0.04758 0.108759,-0.02719 0.163138,-0.04758 0.01699,-0.03399 0.01699,-0.06797 0,-0.03059 -0.01359,-0.06457 -0.01359,-0.03739 -0.06118,-0.07137 -0.03739,-0.02719 -0.129151,-0.05438 -0.09177,-0.03059 -0.214118,-0.05778 -0.122353,-0.03059 -0.265098,-0.05778 -0.139347,-0.03059 -0.275295,-0.05438 -0.132549,-0.02379 -0.251504,-0.04078 -0.115556,-0.02039 -0.186928,-0.03399 -0.07137,-0.01359 -0.186929,-0.03059 -0.115556,-0.02039 -0.244706,-0.04758 -0.125752,-0.03059 -0.254903,-0.06797 -0.12915,-0.03739 -0.23451,-0.08837 -0.10536,-0.05098 -0.169935,-0.112157 -0.06457,-0.06458 -0.06457,-0.139347 0,-0.101961 0.115555,-0.231111 0.118955,-0.129151 0.326276,-0.244707 0.210719,-0.115555 0.492811,-0.193726 0.285491,-0.07817 0.615165,-0.07817 1.14876,0 1.298303,0.41804 0.0068,0.02039 -0.05098,0.06797 -0.05778,0.04418 -0.135948,0.09177 -0.07477,0.04758 -0.149543,0.08497 -0.07477,0.03739 -0.101961,0.03739 -0.0136,0 -0.0136,-0.0102 0.0068,-0.01699 0.0068,-0.03399 0.0068,-0.03739 -0.01359,-0.07137 -0.02039,-0.03399 -0.08157,-0.08497 -0.06118,-0.05438 -0.166536,-0.101961 -0.101961,-0.04758 -0.258302,-0.08157 -0.152941,-0.03739 -0.36366,-0.03739 -0.203922,0 -0.387452,0.01699 -0.180131,0.0136 -0.326275,0.04078 -0.146145,0.02379 -0.248106,0.05778 -0.09856,0.03399 -0.139346,0.07477 -0.06458,0.207321 0.676341,0.329674 z"
         style="font-size:3.3987px;text-align:center;text-anchor:middle;stroke-width:0.283225"
         id="path904" />
      <path
         d="m 77.637027,28.980302 q 0.08837,-0.0068 0.152941,-0.02379 0.06458,-0.02039 0.10536,-0.03399 0.04078,-0.01699 0.06457,-0.02379 0.02379,-0.0068 0.03059,0.0068 0.0102,0.01699 -0.04078,0.07477 -0.05098,0.05438 -0.159739,0.118955 -0.105359,0.06118 -0.268497,0.112157 -0.159739,0.04758 -0.370458,0.05098 -0.139347,0 -0.346668,0 -0.20732,-0.0034 -0.438432,-0.0034 -0.227713,-0.0034 -0.462223,-0.0068 -0.231112,-0.0034 -0.421439,-0.0034 -0.176732,0 -0.302484,0.0034 -0.122354,0.0034 -0.159739,0.0102 -0.03739,0.0068 -0.05778,0.0102 -0.02039,0.0034 -0.03399,0 -0.02379,0.0068 -0.03059,-0.0102 l -0.0034,-0.0034 q 0,-0.01359 0.0068,-0.02039 0.05098,-0.04758 0.07477,-0.112157 0.02719,-0.06797 0.03399,-0.169935 0.0102,-0.101961 0.0068,-0.248105 -0.0034,-0.146144 -0.0102,-0.356863 -0.0034,-0.06458 -0.0068,-0.180132 -0.0034,-0.115555 0,-0.23451 0.0068,-0.122353 0.03059,-0.220915 0.02379,-0.09856 0.07817,-0.125752 0.10536,-0.04758 0.176732,-0.08837 0.07477,-0.04418 0.122354,-0.07137 -0.163138,0 -0.268498,0.0034 -0.101961,0 -0.122353,0.0068 -0.05438,0.01359 -0.09176,0.03739 -0.03739,0.02039 -0.06458,0.0102 -0.01699,-0.0102 0.04758,-0.05778 0.06458,-0.04758 0.159739,-0.09856 0.09516,-0.05438 0.186928,-0.09856 0.09516,-0.04758 0.132549,-0.05438 0.04758,-0.0068 0.200524,-0.0068 0.15634,0 0.363661,0 0.20732,0 0.441831,0.0034 0.237909,0 0.452027,0.0034 0.214118,0 0.377255,0 0.166537,-0.0034 0.231112,-0.0068 0.06797,-0.0068 0.122353,-0.02719 0.05778,-0.02379 0.06797,-0.0102 0.0102,0.01359 -0.04078,0.06458 -0.05098,0.04758 -0.149543,0.10536 -0.09516,0.05438 -0.231112,0.101961 -0.132549,0.04418 -0.292288,0.04758 -0.10536,0 -0.278693,0 -0.169935,-0.0034 -0.370459,-0.0068 -0.197124,-0.0034 -0.404445,-0.0068 -0.207321,-0.0034 -0.384053,-0.0034 -0.0102,0.02039 -0.02379,0.06118 -0.0102,0.04078 -0.02039,0.122353 -0.0102,0.07817 -0.01699,0.207321 -0.0068,0.12915 -0.0068,0.329674 0,0.03738 0,0.08157 0,0.04078 0.0034,0.08157 0.04078,-0.03399 0.09177,-0.07817 0.05098,-0.04418 0.105359,-0.08157 0.05778,-0.04078 0.115556,-0.07137 0.05778,-0.03059 0.112157,-0.04078 0.09856,-0.01359 0.237909,-0.01359 0.142746,-0.0034 0.282092,-0.0034 0.139347,0 0.251504,0.0034 0.112157,0.0034 0.149543,0 0.06118,-0.0068 0.09856,-0.02039 0.03739,-0.01699 0.03739,0 0,0.02039 -0.04078,0.07137 -0.03739,0.04758 -0.10536,0.09856 -0.06797,0.04758 -0.159739,0.08837 -0.09176,0.03739 -0.193726,0.03739 -0.09176,0 -0.217517,-0.0034 -0.122353,-0.0034 -0.248105,0 -0.122353,0 -0.227713,0.0102 -0.105359,0.0068 -0.159739,0.02719 -0.04418,0.01699 -0.07477,0.03059 -0.03059,0.01359 -0.05438,0.02379 0.0068,0.152942 0.0068,0.285491 0,0.129151 -0.02719,0.200523 -0.01699,0.03059 -0.03739,0.06118 -0.01699,0.02719 -0.03739,0.05438 0.02719,-0.0102 0.05438,-0.01359 0.02719,-0.0068 0.05098,-0.0102 0.06118,-0.0102 0.227713,-0.0102 0.166536,0 0.387452,0.0034 0.220915,0 0.46902,0.0068 0.251504,0.0034 0.475818,0.0068 0.224314,0.0034 0.394249,0.0034 0.173334,0 0.244707,-0.0068 z"
         style="font-size:3.3987px;text-align:center;text-anchor:middle;stroke-width:0.283225"
         id="path906" />
      <path
         d="m 80.709448,27.168795 q 0.06797,-0.0034 0.118954,-0.02719 0.05438,-0.02379 0.06797,-0.0102 0.0102,0.01359 -0.04078,0.06458 -0.05098,0.05098 -0.146144,0.108758 -0.09516,0.05438 -0.231112,0.101961 -0.132549,0.04418 -0.292288,0.04758 -0.101961,0 -0.271896,0 -0.166536,-0.0034 -0.363661,-0.0068 -0.197124,-0.0034 -0.404445,-0.0068 -0.203922,-0.0068 -0.380655,-0.0102 -0.0102,0.02039 -0.02719,0.05778 -0.01359,0.03399 -0.02719,0.115556 -0.0102,0.08157 -0.02039,0.224314 -0.0102,0.139346 -0.0102,0.373857 v 0.118954 q 0.04418,-0.03399 0.09516,-0.07817 0.05098,-0.04418 0.105359,-0.08157 0.05438,-0.04078 0.112157,-0.07137 0.05778,-0.03059 0.112157,-0.04078 0.06797,-0.0102 0.169935,-0.01359 0.101961,-0.0034 0.220916,-0.0034 0.118954,0 0.241308,0 0.125752,0 0.227713,0.0034 0.105359,0 0.180131,0 0.07817,0 0.101961,0 0.06118,-0.0068 0.09856,-0.02039 0.03739,-0.01699 0.03739,0 0,0.02039 -0.04078,0.07137 -0.03739,0.04758 -0.105359,0.09856 -0.06797,0.04758 -0.159739,0.08837 -0.09177,0.03739 -0.193726,0.03739 -0.09177,0 -0.251504,-0.0034 -0.15634,-0.0034 -0.322877,0 -0.163137,0 -0.302484,0.0102 -0.139347,0.0068 -0.193726,0.02719 -0.04418,0.01699 -0.07477,0.03059 -0.03059,0.01359 -0.05438,0.02379 0.0068,0.152942 0.0068,0.28889 0.0034,0.132549 -0.02719,0.203922 -0.02379,0.05778 -0.07477,0.112157 -0.04758,0.05098 -0.101961,0.09516 -0.05438,0.04078 -0.108758,0.07137 -0.05098,0.03059 -0.08157,0.04758 -0.05098,0.02719 -0.08157,0.03739 -0.02719,0.0068 -0.04418,0.0068 -0.02039,0 -0.02039,-0.0102 0,-0.0102 0.0068,-0.01699 0.04758,-0.05098 0.07137,-0.108759 0.02379,-0.05778 0.03059,-0.149543 0.0102,-0.09176 0.0102,-0.227713 0,-0.139346 -0.0068,-0.353464 0,-0.06118 -0.0068,-0.180131 -0.0034,-0.122354 0.0034,-0.244707 0.0068,-0.125752 0.03059,-0.227713 0.02379,-0.101961 0.07477,-0.12915 0.125752,-0.06797 0.210719,-0.112157 0.08497,-0.04418 0.13255,-0.07137 -0.173334,-0.0034 -0.292289,0 -0.118954,0 -0.146144,0.0068 -0.05098,0.0136 -0.08837,0.03739 -0.03739,0.02379 -0.06457,0.0102 -0.0102,-0.0068 0.01699,-0.03059 0.02719,-0.02379 0.07477,-0.05438 0.05098,-0.03399 0.115555,-0.07137 0.06458,-0.03739 0.125752,-0.06797 0.06458,-0.03399 0.115556,-0.05438 0.05438,-0.02379 0.07817,-0.02719 0.04758,-0.0068 0.200524,-0.0068 0.15634,-0.0034 0.36366,-0.0034 0.207321,0 0.441831,0.0034 0.237909,0 0.452028,0 0.214118,0 0.377255,0 0.166537,0 0.231112,-0.0034 z"
         style="font-size:3.3987px;text-align:center;text-anchor:middle;stroke-width:0.283225"
         id="path908" />
      <path
         d="m 86.551803,28.609844 q 0.09176,-0.05778 0.169935,-0.112157 0.08157,-0.05438 0.139347,-0.09176 0.06118,-0.04078 0.09856,-0.05778 0.03739,-0.02039 0.04758,-0.0034 0.0102,0.01359 -0.05438,0.09176 -0.06118,0.07817 -0.193726,0.186929 -0.13255,0.105359 -0.329674,0.227712 -0.197125,0.118955 -0.458825,0.220916 -0.2617,0.101961 -0.587975,0.169935 -0.326275,0.06458 -0.710328,0.06458 -0.530197,0 -0.910852,-0.09856 -0.377255,-0.09856 -0.604968,-0.2617 -0.227713,-0.166536 -0.309282,-0.384053 -0.07817,-0.220916 -0.0102,-0.465622 0.04418,-0.163138 0.169935,-0.329674 0.12915,-0.169935 0.322876,-0.326275 0.193726,-0.159739 0.441831,-0.299086 0.248105,-0.139346 0.533596,-0.241307 0.285491,-0.10536 0.598171,-0.163138 0.312681,-0.06118 0.632159,-0.06118 0.458824,0 0.751112,0.08837 0.295687,0.08837 0.424838,0.220915 0.132549,0.132549 0.09856,0.28889 -0.03059,0.152941 -0.224314,0.28549 -0.03399,0.02379 -0.09856,0.06118 -0.06118,0.03399 -0.129151,0.06797 -0.06797,0.03399 -0.129151,0.05778 -0.06118,0.02379 -0.09856,0.02379 -0.03059,0 -0.03399,-0.0136 -0.0068,-0.02039 0.03059,-0.04078 0.04078,-0.02039 0.07477,-0.04758 0.101961,-0.08157 0.09177,-0.193726 -0.0102,-0.115556 -0.142746,-0.220916 -0.132549,-0.108758 -0.39085,-0.183529 -0.254903,-0.07817 -0.642354,-0.08157 -0.346668,-0.0034 -0.621963,0.05778 -0.271896,0.05778 -0.479216,0.15634 -0.207321,0.09856 -0.353465,0.227713 -0.142745,0.125752 -0.227713,0.2617 -0.08157,0.132549 -0.108758,0.2617 -0.02719,0.125752 -0.0034,0.227713 0.04078,0.163137 0.180131,0.309281 0.139347,0.146144 0.370458,0.258301 0.231112,0.108759 0.55059,0.173334 0.319478,0.06458 0.727322,0.06458 0.411242,-0.0034 0.768106,-0.108758 0.360262,-0.10536 0.632158,-0.268497 z"
         style="font-size:3.3987px;text-align:center;text-anchor:middle;stroke-width:0.283225"
         id="path910" />
      <path
         d="m 90.40592,28.976903 q 0.04078,-0.01699 0.05778,-0.04078 0.02039,-0.02719 0.03739,-0.0102 0.02039,0.02039 -0.02039,0.07817 -0.03739,0.05438 -0.115556,0.112157 -0.07817,0.05778 -0.186928,0.101961 -0.10536,0.04418 -0.220916,0.04418 -0.139347,0 -0.282092,-0.07817 -0.139347,-0.08157 -0.275295,-0.214118 -0.135948,-0.132549 -0.265098,-0.299086 -0.125752,-0.169935 -0.237909,-0.343268 -0.108759,-0.173334 -0.203922,-0.33987 -0.09177,-0.166537 -0.15634,-0.295687 -0.122354,0.186928 -0.268498,0.377255 -0.146144,0.186929 -0.302484,0.356864 -0.152942,0.166536 -0.305883,0.305883 -0.149543,0.139347 -0.278693,0.231112 0.203922,-0.07817 0.414641,-0.09856 0.210719,-0.02379 0.428236,-0.02379 0.139347,0 0.268497,0.0102 0.129151,0.0102 0.214119,0.03399 0.06118,0.01699 0.101961,0.04078 0.04078,0.02379 0.06797,0.04418 0.02719,0.02719 0.04418,0.05098 -0.03739,0.04758 -0.10536,0.09176 -0.06457,0.04078 -0.132549,0.07477 -0.07817,0.04078 -0.166537,0.07817 -0.02719,-0.04418 -0.09177,-0.07477 -0.06118,-0.03399 -0.149542,-0.05438 -0.08837,-0.02379 -0.197125,-0.03399 -0.10536,-0.01359 -0.220915,-0.01359 -0.10536,0 -0.224315,0.0068 -0.115555,0.0034 -0.227713,0.01699 -0.108758,0.0102 -0.203922,0.03399 -0.09516,0.02379 -0.15634,0.06118 -0.03059,0.01699 -0.07477,0.04418 -0.04418,0.02379 -0.08157,0.04418 -0.04758,0.02379 -0.09516,0.04758 -0.03399,0.0136 -0.04758,0 -0.0102,-0.01699 -0.0068,-0.03059 0.0068,-0.0102 0.02039,-0.01699 0.04418,-0.02719 0.08497,-0.05098 0.04078,-0.02379 0.08157,-0.04758 0.18353,-0.132549 0.387452,-0.329674 0.20732,-0.197125 0.404445,-0.431635 0.200523,-0.237909 0.377256,-0.499609 0.180131,-0.265098 0.309281,-0.5234 0.08157,-0.04078 0.15634,-0.08497 0.06797,-0.03739 0.135948,-0.07817 0.06797,-0.04078 0.115556,-0.07817 0.05098,0.09176 0.125752,0.231111 0.07817,0.139347 0.169935,0.299086 0.09516,0.159739 0.197125,0.329674 0.105359,0.166536 0.210719,0.319478 0.108759,0.149542 0.214118,0.271896 0.10536,0.122353 0.200524,0.190327 0.149542,0.108758 0.248105,0.142745 0.101961,0.03059 0.159739,0.03059 0.04758,0 0.06797,-0.0102 z"
         style="font-size:3.3987px;text-align:center;text-anchor:middle;stroke-width:0.283225"
         id="path912" />
      <path
         d="m 93.719643,28.905531 q 0.0102,0.01699 -0.04078,0.07477 -0.05098,0.05438 -0.159739,0.118955 -0.105359,0.06118 -0.268497,0.112157 -0.159739,0.04758 -0.370458,0.05098 -0.139347,0 -0.346668,0 -0.20732,-0.0034 -0.438432,-0.0034 -0.227713,-0.0034 -0.462223,-0.0068 -0.231112,-0.0034 -0.421439,-0.0034 -0.176732,0 -0.302484,0.0034 -0.125752,0.0034 -0.163138,0.0102 -0.05778,0.0068 -0.07477,0.0102 -0.01699,0.0034 -0.03399,-0.0068 h -0.0102 q -0.0068,-0.0068 0,-0.01699 0.0034,-0.0068 0.0102,-0.01359 0.0068,-0.0102 0.01359,-0.02039 0.02379,-0.03059 0.03739,-0.101961 0.0136,-0.07137 0.01699,-0.163137 0.0068,-0.09516 0.0068,-0.200524 0,-0.108758 -0.0034,-0.210719 0,-0.101961 -0.0034,-0.186928 -0.0034,-0.08837 -0.0034,-0.139347 0,-0.07817 0,-0.203922 0,-0.129151 0.0102,-0.258301 0.01359,-0.129151 0.04418,-0.234511 0.03399,-0.105359 0.09856,-0.139346 0.122354,-0.06797 0.193726,-0.09856 0.07477,-0.03399 0.135948,-0.07137 0.01699,-0.0136 0.03739,-0.02379 0.02379,-0.0136 0.03739,-0.0136 0.01359,0 0.0102,0.02039 -0.0034,0.01699 -0.03739,0.06457 -0.07477,0.108759 -0.08497,0.33987 -0.0102,0.231112 -0.0102,0.587976 0,0.275294 0.0034,0.462223 0.0068,0.186928 -0.02379,0.285491 -0.0102,0.03399 -0.02719,0.06118 0.01699,-0.0068 0.03739,-0.0102 0.02379,-0.0034 0.04078,-0.0034 0.06118,-0.0102 0.227713,-0.0102 0.166536,0 0.387452,0.0034 0.220915,0 0.46902,0.0068 0.251504,0.0034 0.475818,0.0068 0.224314,0.0034 0.394249,0.0034 0.173334,0 0.244707,-0.0068 0.08837,-0.0068 0.152941,-0.02379 0.06458,-0.02039 0.10536,-0.03399 0.04078,-0.01699 0.06458,-0.02379 0.02379,-0.0068 0.03059,0.0068 z"
         style="font-size:3.3987px;text-align:center;text-anchor:middle;stroke-width:0.283225"
         id="path914" />
      <path
         d="m 96.62213,28.980302 q 0.08837,-0.0068 0.152942,-0.02379 0.06458,-0.02039 0.10536,-0.03399 0.04078,-0.01699 0.06458,-0.02379 0.02379,-0.0068 0.03059,0.0068 0.0102,0.01699 -0.04078,0.07477 -0.05098,0.05438 -0.159739,0.118955 -0.10536,0.06118 -0.268497,0.112157 -0.159739,0.04758 -0.370459,0.05098 -0.139346,0 -0.346667,0 -0.207321,-0.0034 -0.438432,-0.0034 -0.227713,-0.0034 -0.462224,-0.0068 -0.231111,-0.0034 -0.421438,-0.0034 -0.176733,0 -0.302485,0.0034 -0.122353,0.0034 -0.159739,0.0102 -0.03739,0.0068 -0.05778,0.0102 -0.02039,0.0034 -0.03399,0 -0.02379,0.0068 -0.03059,-0.0102 l -0.0034,-0.0034 q 0,-0.01359 0.0068,-0.02039 0.05098,-0.04758 0.07477,-0.112157 0.02719,-0.06797 0.03399,-0.169935 0.0102,-0.101961 0.0068,-0.248105 -0.0034,-0.146144 -0.0102,-0.356863 -0.0034,-0.06458 -0.0068,-0.180132 -0.0034,-0.115555 0,-0.23451 0.0068,-0.122353 0.03059,-0.220915 0.02379,-0.09856 0.07817,-0.125752 0.105359,-0.04758 0.176732,-0.08837 0.07477,-0.04418 0.122353,-0.07137 -0.163137,0 -0.268497,0.0034 -0.101961,0 -0.122353,0.0068 -0.05438,0.01359 -0.09176,0.03739 -0.03739,0.02039 -0.06458,0.0102 -0.01699,-0.0102 0.04758,-0.05778 0.06458,-0.04758 0.159739,-0.09856 0.09516,-0.05438 0.186929,-0.09856 0.09516,-0.04758 0.132549,-0.05438 0.04758,-0.0068 0.200523,-0.0068 0.15634,0 0.363661,0 0.207321,0 0.441831,0.0034 0.237909,0 0.452027,0.0034 0.214118,0 0.377256,0 0.166536,-0.0034 0.231112,-0.0068 0.06797,-0.0068 0.122353,-0.02719 0.05778,-0.02379 0.06797,-0.0102 0.0102,0.01359 -0.04078,0.06458 -0.05098,0.04758 -0.149542,0.10536 -0.09516,0.05438 -0.231112,0.101961 -0.132549,0.04418 -0.292288,0.04758 -0.10536,0 -0.278694,0 -0.169935,-0.0034 -0.370458,-0.0068 -0.197125,-0.0034 -0.404445,-0.0068 -0.207321,-0.0034 -0.384053,-0.0034 -0.0102,0.02039 -0.02379,0.06118 -0.0102,0.04078 -0.02039,0.122353 -0.0102,0.07817 -0.01699,0.207321 -0.0068,0.12915 -0.0068,0.329674 0,0.03738 0,0.08157 0,0.04078 0.0034,0.08157 0.04078,-0.03399 0.09176,-0.07817 0.05098,-0.04418 0.10536,-0.08157 0.05778,-0.04078 0.115556,-0.07137 0.05778,-0.03059 0.112157,-0.04078 0.09856,-0.01359 0.237909,-0.01359 0.142745,-0.0034 0.282092,-0.0034 0.139347,0 0.251504,0.0034 0.112157,0.0034 0.149543,0 0.06118,-0.0068 0.09856,-0.02039 0.03739,-0.01699 0.03739,0 0,0.02039 -0.04078,0.07137 -0.03739,0.04758 -0.10536,0.09856 -0.06797,0.04758 -0.159738,0.08837 -0.09176,0.03739 -0.193726,0.03739 -0.09177,0 -0.217517,-0.0034 -0.122353,-0.0034 -0.248105,0 -0.122353,0 -0.227713,0.0102 -0.10536,0.0068 -0.159739,0.02719 -0.04418,0.01699 -0.07477,0.03059 -0.03059,0.01359 -0.05438,0.02379 0.0068,0.152942 0.0068,0.285491 0,0.129151 -0.02719,0.200523 -0.01699,0.03059 -0.03739,0.06118 -0.01699,0.02719 -0.03739,0.05438 0.02719,-0.0102 0.05438,-0.01359 0.02719,-0.0068 0.05098,-0.0102 0.06118,-0.0102 0.227713,-0.0102 0.166537,0 0.387452,0.0034 0.220916,0 0.469021,0.0068 0.251504,0.0034 0.475818,0.0068 0.224314,0.0034 0.394249,0.0034 0.173334,0 0.244706,-0.0068 z"
         style="font-size:3.3987px;text-align:center;text-anchor:middle;stroke-width:0.283225"
         id="path916" />
      <path
         d="m 100.05481,27.175592 q 0.0476,0.0102 0.0816,0.129151 0.0374,0.118954 0.0374,0.31268 0,0.193726 -0.0476,0.441831 -0.0442,0.248105 -0.166536,0.516603 -0.04078,0.08837 -0.112157,0.20732 -0.06797,0.118955 -0.159739,0.227713 -0.09176,0.10536 -0.200523,0.180131 -0.10536,0.07477 -0.224314,0.07477 -0.217517,0 -0.452027,-0.125752 -0.231112,-0.125752 -0.455426,-0.319478 -0.220916,-0.193726 -0.421439,-0.424837 -0.197124,-0.234511 -0.346667,-0.452027 -0.0034,0.05778 -0.0034,0.118954 0,0.05778 0,0.122353 0,0.275295 0.0034,0.462223 0.0034,0.186929 -0.03059,0.285491 -0.02719,0.08837 -0.09516,0.163138 -0.06797,0.07137 -0.200523,0.135948 -0.02719,0.0136 -0.05778,0.02719 -0.02719,0.0136 -0.04758,0.0136 -0.01699,0.0034 -0.02039,-0.0068 0,-0.01359 0.02379,-0.04758 0.02039,-0.03059 0.03399,-0.09856 0.01699,-0.07137 0.02379,-0.163138 0.0102,-0.09516 0.01359,-0.200523 0.0034,-0.108759 0.0034,-0.21072 0.0034,-0.101961 0,-0.186928 0,-0.08837 0,-0.139347 0,-0.07817 0,-0.20732 0,-0.13255 0.0102,-0.2617 0.0102,-0.13255 0.03739,-0.237909 0.02719,-0.10536 0.08157,-0.13255 0.06118,-0.03059 0.101961,-0.05438 0.04418,-0.02379 0.07477,-0.04418 0.03059,-0.02039 0.05778,-0.03739 0.02719,-0.01699 0.05778,-0.03399 0.01699,-0.01359 0.03739,-0.02379 0.02379,-0.0102 0.03739,-0.0102 0.0102,0 0.0102,0.01699 0,0.0136 -0.02719,0.05098 -0.01359,0.07817 0.06797,0.241308 0.08157,0.159739 0.224314,0.356864 0.146144,0.197124 0.336471,0.404445 0.193726,0.203922 0.397648,0.373857 0.203922,0.169935 0.401047,0.278693 0.200523,0.108759 0.360262,0.108759 0.06797,-0.101961 0.12915,-0.227713 0.05098,-0.108759 0.09856,-0.248105 0.05098,-0.142746 0.07477,-0.305883 0.02379,-0.152942 0.01699,-0.292289 -0.0034,-0.142745 -0.02719,-0.258301 -0.02039,-0.118954 -0.05438,-0.20732 -0.03399,-0.09176 -0.06797,-0.135948 0.07817,-0.02719 0.152941,-0.05438 0.06118,-0.02379 0.125752,-0.04758 0.06459,-0.02719 0.105365,-0.05438 z"
         style="font-size:3.3987px;text-align:center;text-anchor:middle;stroke-width:0.283225"
         id="path918" />
      <path
         d="m 100.68696,27.148403 q 0.0952,0 0.2787,0.0102 0.18353,0.0102 0.41464,0.03399 0.23451,0.02039 0.49961,0.05438 0.2651,0.03399 0.52679,0.08497 0.2617,0.05098 0.50301,0.118954 0.24131,0.06797 0.42484,0.15634 0.18693,0.08497 0.29569,0.193726 0.11215,0.108759 0.11215,0.237909 0,0.09176 -0.0612,0.214118 -0.0612,0.118955 -0.20732,0.248105 -0.14275,0.129151 -0.38066,0.254903 -0.23791,0.125752 -0.59477,0.231111 -0.35686,0.101961 -0.84288,0.173334 -0.48601,0.07137 -1.12497,0.09176 -0.007,0.0034 -0.0102,0.0068 -0.003,0 -0.0102,0.0034 -0.0952,0.04758 -0.12915,0.04758 -0.0272,0 -0.0306,-0.01359 0,-0.01359 0.0102,-0.02039 0.051,-0.04758 0.0782,-0.108758 0.0306,-0.06458 0.0442,-0.163138 0.0136,-0.101961 0.0136,-0.248105 0.003,-0.146144 -0.003,-0.360262 0,-0.06118 -0.003,-0.173334 0,-0.112157 0.0102,-0.227713 0.0102,-0.115556 0.034,-0.210719 0.0272,-0.09516 0.0816,-0.125752 0.12575,-0.07477 0.20732,-0.122353 0.085,-0.05098 0.12915,-0.07477 -0.19372,-0.01699 -0.37046,-0.02379 -0.17673,-0.0102 -0.32287,-0.0102 0.0102,-0.02379 0.0714,-0.06797 0.0646,-0.04758 0.13935,-0.09176 0.0782,-0.04758 0.14274,-0.08157 0.0646,-0.03739 0.0748,-0.03739 z m 1.96785,1.610984 q 0.17333,-0.03739 0.32288,-0.09856 0.15294,-0.06118 0.2651,-0.132549 0.11215,-0.07477 0.17673,-0.149543 0.068,-0.07817 0.068,-0.142745 0,-0.101961 -0.10876,-0.190327 -0.10876,-0.08837 -0.29568,-0.166537 -0.18693,-0.07817 -0.43504,-0.142745 -0.2447,-0.06457 -0.5234,-0.115556 -0.27529,-0.05438 -0.56418,-0.09176 -0.28889,-0.04078 -0.56079,-0.06458 -0.0136,0.02379 -0.0306,0.06118 -0.0136,0.03399 -0.0272,0.108759 -0.0136,0.07477 -0.0238,0.210719 -0.007,0.13255 -0.007,0.356864 0,0.09516 0.003,0.203922 0.007,0.105359 0.007,0.203922 0.003,0.09856 -0.003,0.186928 -0.007,0.08497 -0.034,0.142746 -0.003,0.0068 -0.003,0.0068 0.0578,-0.0034 0.16653,-0.0068 0.10876,-0.0034 0.25151,-0.01359 0.14614,-0.0102 0.31608,-0.02379 0.16993,-0.0136 0.34667,-0.03399 0.18013,-0.02039 0.35686,-0.04758 0.18013,-0.02719 0.33647,-0.06118 z"
         style="font-size:3.3987px;text-align:center;text-anchor:middle;stroke-width:0.283225"
         id="path920" />
      <path
         d="m 107.0833,28.976903 q 0.0408,-0.01699 0.0578,-0.04078 0.0204,-0.02719 0.0374,-0.0102 0.0204,0.02039 -0.0204,0.07817 -0.0374,0.05438 -0.11555,0.112157 -0.0782,0.05778 -0.18693,0.101961 -0.10536,0.04418 -0.22092,0.04418 -0.13934,0 -0.28209,-0.07817 -0.13934,-0.08157 -0.27529,-0.214118 -0.13595,-0.132549 -0.2651,-0.299086 -0.12575,-0.169935 -0.23791,-0.343268 -0.10876,-0.173334 -0.20392,-0.33987 -0.0918,-0.166537 -0.15634,-0.295687 -0.12236,0.186928 -0.2685,0.377255 -0.14614,0.186929 -0.30248,0.356864 -0.15295,0.166536 -0.30589,0.305883 -0.14954,0.139347 -0.27869,0.231112 0.20392,-0.07817 0.41464,-0.09856 0.21072,-0.02379 0.42824,-0.02379 0.13934,0 0.26849,0.0102 0.12916,0.0102 0.21412,0.03399 0.0612,0.01699 0.10196,0.04078 0.0408,0.02379 0.068,0.04418 0.0272,0.02719 0.0442,0.05098 -0.0374,0.04758 -0.10536,0.09176 -0.0646,0.04078 -0.13255,0.07477 -0.0782,0.04078 -0.16653,0.07817 -0.0272,-0.04418 -0.0918,-0.07477 -0.0612,-0.03399 -0.14954,-0.05438 -0.0884,-0.02379 -0.19713,-0.03399 -0.10536,-0.01359 -0.22091,-0.01359 -0.10536,0 -0.22432,0.0068 -0.11555,0.0034 -0.22771,0.01699 -0.10876,0.0102 -0.20392,0.03399 -0.0952,0.02379 -0.15634,0.06118 -0.0306,0.01699 -0.0748,0.04418 -0.0442,0.02379 -0.0816,0.04418 -0.0476,0.02379 -0.0952,0.04758 -0.034,0.0136 -0.0476,0 -0.0102,-0.01699 -0.007,-0.03059 0.007,-0.0102 0.0204,-0.01699 0.0442,-0.02719 0.085,-0.05098 0.0408,-0.02379 0.0816,-0.04758 0.18353,-0.132549 0.38746,-0.329674 0.20732,-0.197125 0.40444,-0.431635 0.20052,-0.237909 0.37726,-0.499609 0.18013,-0.265098 0.30928,-0.5234 0.0816,-0.04078 0.15634,-0.08497 0.068,-0.03739 0.13595,-0.07817 0.068,-0.04078 0.11555,-0.07817 0.051,0.09176 0.12575,0.231111 0.0782,0.139347 0.16994,0.299086 0.0952,0.159739 0.19712,0.329674 0.10536,0.166536 0.21072,0.319478 0.10876,0.149542 0.21412,0.271896 0.10536,0.122353 0.20052,0.190327 0.14955,0.108758 0.24811,0.142745 0.10196,0.03059 0.15974,0.03059 0.0476,0 0.068,-0.0102 z"
         style="font-size:3.3987px;text-align:center;text-anchor:middle;stroke-width:0.283225"
         id="path922" />
      <path
         d="m 110.33586,28.973505 q 0.0272,-0.0034 0.0578,-0.01359 0.0306,-0.0136 0.0578,-0.02379 0.0306,-0.0102 0.051,-0.01699 0.0204,-0.0068 0.0238,0.0034 0.0102,0.02039 -0.0408,0.07817 -0.0476,0.05778 -0.13595,0.115556 -0.0884,0.05778 -0.21072,0.10536 -0.12235,0.04418 -0.2617,0.04418 -0.10876,0 -0.2719,-0.05778 -0.16313,-0.05778 -0.35346,-0.142745 -0.18693,-0.08837 -0.38745,-0.190328 -0.19713,-0.101961 -0.37386,-0.186928 -0.17333,-0.08837 -0.31268,-0.146144 -0.13935,-0.05778 -0.21072,-0.05778 -0.0272,0 -0.0578,0.0034 -0.0272,0 -0.0578,0.0034 h -0.0102 q 0.003,0.122353 0,0.227713 -0.003,0.101961 -0.0306,0.159739 -0.017,0.04078 -0.0816,0.108758 -0.0612,0.06458 -0.14274,0.125752 -0.0782,0.06118 -0.15974,0.108759 -0.0782,0.04418 -0.12915,0.04418 -0.0272,0 -0.0306,-0.01359 0,-0.01359 0.007,-0.02039 0.051,-0.04758 0.0816,-0.10536 0.0306,-0.06118 0.0442,-0.15634 0.017,-0.09516 0.017,-0.23451 0.003,-0.142746 -0.003,-0.356864 0,-0.04078 -0.003,-0.108758 0,-0.07137 0,-0.152942 0.003,-0.08157 0.007,-0.166536 0.007,-0.08837 0.0204,-0.159739 0.0136,-0.07477 0.0374,-0.129151 0.0238,-0.05778 0.0578,-0.07817 0.12575,-0.07137 0.20732,-0.118954 0.085,-0.05098 0.13255,-0.07477 -0.11216,0.0034 -0.20732,0.0068 -0.0952,0.0034 -0.16314,0.0068 -0.0816,0.0068 -0.14614,0.0102 -0.007,0 -0.0102,0 -0.0136,0 -0.0136,-0.0068 -0.003,-0.0136 0.003,-0.01699 0.0102,-0.0034 0.017,-0.0034 0.068,-0.02379 0.13594,-0.06118 0.0714,-0.04078 0.12916,-0.07817 0.068,-0.04418 0.13254,-0.09516 0.0714,-0.0102 0.21072,-0.01699 0.14275,-0.0068 0.32628,-0.0068 0.22091,0 0.47242,0.01699 0.2515,0.01359 0.48261,0.05438 0.20393,0.03399 0.42484,0.08837 0.22092,0.05098 0.39765,0.125752 0.18013,0.07137 0.28889,0.163138 0.10876,0.08837 0.0816,0.197125 -0.017,0.07477 -0.12236,0.149542 -0.10536,0.07137 -0.2447,0.149543 -0.21412,0.122353 -0.5166,0.197125 -0.29909,0.07477 -0.70693,0.125752 0.085,0.04418 0.20392,0.108758 0.11895,0.06457 0.2549,0.132549 0.13595,0.06797 0.28209,0.13255 0.14615,0.06457 0.28209,0.115555 0.13935,0.04758 0.2617,0.07477 0.12236,0.02379 0.20733,0.01359 z m -2.50485,-0.737518 q 0.22432,0 0.46902,-0.0136 0.24471,-0.01359 0.47922,-0.03399 0.23791,-0.02379 0.45203,-0.05098 0.21412,-0.03059 0.38065,-0.05778 0.16994,-0.02719 0.2787,-0.05098 0.10875,-0.02379 0.12915,-0.03739 0.0102,-0.03059 -0.003,-0.07137 -0.0136,-0.04078 -0.0408,-0.06797 -0.0646,-0.06797 -0.20392,-0.135948 -0.13595,-0.06797 -0.31948,-0.125752 -0.18353,-0.06118 -0.40104,-0.10536 -0.21412,-0.04418 -0.43844,-0.06797 -0.17673,-0.01699 -0.35686,-0.02379 -0.17673,-0.0068 -0.33647,-0.0034 -0.0102,0.02719 -0.0272,0.07137 -0.0136,0.04079 -0.0272,0.129151 -0.0136,0.08497 -0.0238,0.227713 -0.0102,0.142745 -0.0102,0.373857 z"
         style="font-size:3.3987px;text-align:center;text-anchor:middle;stroke-width:0.283225"
         id="path924" />
    </g>
  </g>
</svg>
