<?xml version="1.0" encoding="UTF-8" standalone="no"?>
<svg
   xmlns:dc="http://purl.org/dc/elements/1.1/"
   xmlns:cc="http://creativecommons.org/ns#"
   xmlns:rdf="http://www.w3.org/1999/02/22-rdf-syntax-ns#"
   xmlns:svg="http://www.w3.org/2000/svg"
   xmlns="http://www.w3.org/2000/svg"
   xmlns:sodipodi="http://sodipodi.sourceforge.net/DTD/sodipodi-0.dtd"
   xmlns:inkscape="http://www.inkscape.org/namespaces/inkscape"
   version="1.1"
   width="600.01801"
   height="600.01801"
   viewBox="0 0 600.01801 600.01801"
   id="svg3195"
   sodipodi:docname="play-store.svg"
   inkscape:version="1.0.2-2 (e86c870879, 2021-01-15)">
  <metadata
     id="metadata3201">
    <rdf:RDF>
      <cc:Work
         rdf:about="">
        <dc:format>image/svg+xml</dc:format>
        <dc:type
           rdf:resource="http://purl.org/dc/dcmitype/StillImage" />
        <dc:title />
      </cc:Work>
    </rdf:RDF>
  </metadata>
  <defs
     id="defs3199" />
  <sodipodi:namedview
     pagecolor="#ffffff"
     bordercolor="#666666"
     borderopacity="1"
     objecttolerance="10"
     gridtolerance="10"
     guidetolerance="10"
     inkscape:pageopacity="0"
     inkscape:pageshadow="2"
     inkscape:window-width="2467"
     inkscape:window-height="1406"
     id="namedview3197"
     showgrid="false"
     fit-margin-top="50"
     fit-margin-left="50"
     fit-margin-right="50"
     fit-margin-bottom="50"
     inkscape:zoom="2.016"
     inkscape:cx="300"
     inkscape:cy="311.24339"
     inkscape:window-x="-11"
     inkscape:window-y="-11"
     inkscape:window-maximized="1"
     inkscape:current-layer="svg3195"
     inkscape:document-rotation="0" />
  <rect
     x="50"
     y="50"
     width="500"
     height="500"
     fill="#ffffff"
     id="rect3187" />
  <g
     transform="matrix(13.514,0,0,13.514,50,50)"
     id="g3193">
    <g
       id="g3191">
      <path
         fill-rule="evenodd"
         d="M 9,0 V 2 H 8 V 8 H 9 V 2 h 1 v 1 h 2 v 1 h -1 v 1 h 1 V 4 h 1 V 6 H 12 V 7 H 11 V 6 h -1 v 1 h 1 v 1 h 1 V 9 H 7 V 8 H 2 v 2 h 1 v 2 h 2 v 1 H 2 v 2 h 5 v 1 H 6 v 1 H 2 V 16 H 1 V 14 H 0 v 3 h 1 v 1 H 0 v 2 h 2 v 1 H 1 v 1 h 1 v 1 H 1 v 1 h 1 v 4 h 1 v 1 H 4 V 28 H 3 V 27 H 9 V 26 H 8 V 25 H 9 V 24 H 8 v -1 h 1 v -1 h 1 v 2 h 1 v 2 h 2 v 2 h 1 v 1 H 11 V 28 H 6 v 1 h 2 v 1 h 2 v 1 h 1 v 1 h 2 v 2 h 1 v 1 h -1 v 1 h -1 v 1 h 1 v -1 h 1 v -1 h 1 v -1 h 2 v 1 h -1 v 2 h 1 v -2 h 1 v 1 h 5 v -1 h 1 v -1 h 1 v 1 h 2 v 1 h -1 v 1 h 1 v -1 h 1 v 1 h 1 v -2 h -2 v -1 h 3 v 2 h 1 v 1 h 1 v -1 h 2 v 1 h 3 v -1 h -1 v -1 h 1 v -3 h -2 v 2 h -2 v -1 h 1 v -2 h 2 v -1 h 1 v -1 h -1 v 1 h -2 v 1 h -1 v -3 h -1 v -1 h 1 v -1 h 1 v 2 h 1 v -1 h 2 v -3 h -1 v -1 h 1 v -1 h -1 v -1 h 1 v -2 h -1 v 1 h -1 v 2 h -1 v 1 h 1 v 2 h 1 v 1 h -2 v -2 h -3 v -1 h 2 v -2 h 1 v -1 h -2 v -1 h 3 v -1 h -2 v -1 h 1 v -1 h -1 v 1 h -1 v -1 h -1 v -2 h 1 v 1 h 1 v -3 h 2 v 2 h -1 v 1 h 1 v 1 h 1 v 1 h 1 v -1 h -1 v -3 h 1 V 12 H 35 V 10 H 33 V 9 h 2 V 8 h -5 v 1 h 1 v 1 h -1 v 1 h 1 v -1 h 1 v 1 h 1 v 1 h -2 v 2 H 30 V 12 H 29 V 9 H 28 V 8 h 1 V 6 H 28 V 5 h 1 V 2 H 28 V 0 H 26 V 1 H 24 V 0 h -1 v 1 h 1 V 2 H 23 V 3 H 22 V 4 H 21 V 5 H 20 V 7 H 19 V 6 H 18 V 5 h 1 V 3 H 18 V 4 H 17 V 6 H 16 V 7 H 15 V 4 h 1 V 3 h 1 V 2 h 1 V 1 h 1 V 0 H 18 V 1 H 17 V 0 H 16 V 1 H 14 V 0 H 13 V 1 H 11 V 0 Z m 12,0 v 1 h 1 V 0 Z m -5,1 v 1 h 1 V 1 Z m -4,1 v 1 h 1 v 1 h 2 V 3 H 13 V 2 Z m 12,0 v 1 h -1 v 2 h 3 V 4 H 25 V 2 Z m 2,0 v 1 h 2 V 2 Z m 1,2 v 1 h 1 V 4 Z M 13,6 v 1 h 1 v 1 h 1 V 7 H 14 V 6 Z m 4,0 v 1 h -1 v 1 h 1 v 1 h -1 v 1 h 2 v 1 h -2 v 1 h 3 v 1 h -3 v 1 h -1 v 1 h -1 v -1 h -1 v -1 h -1 v -1 h 2 v 1 h 1 v -1 h -1 v -1 h 1 V 10 H 14 V 9 h -2 v 1 h 2 v 1 H 8 V 10 H 7 V 9 H 6 v 1 h 1 v 1 H 5 v 1 h 3 v 1 H 6 v 1 h 1 v 1 h 2 v 1 h 1 v 1 h 2 v -2 h 2 v 1 h 2 v 1 h 1 v 1 h -6 v 1 H 9 V 18 H 8 V 17 H 6 v 1 H 5 v 1 H 4 V 18 H 3 v 1 H 2 v 1 h 1 v 3 H 2 v 1 h 1 v 1 h 1 v 1 H 5 V 25 H 4 V 24 H 7 V 23 H 6 v -1 h 2 v -1 h 2 v 1 h 1 v -1 h 1 v -1 h -1 v -1 h 2 v 2 h 1 v 1 h 1 v -1 h 1 v 2 h -3 v -1 h -1 v 1 h -1 v 1 h 1 v 1 h 1 v -1 h 1 v 1 h 1 v -1 h 1 v -1 h 1 v -2 h -1 v -2 h 1 v -1 h 2 v 1 h 3 v -1 h -1 v -1 h -1 v -1 h -1 v -1 h 3 v 2 h 3 v 1 h -2 v 1 h 1 v 1 h -1 v 1 h -1 v 1 h -2 v 2 h -3 v 1 h -1 v 1 h 2 v 1 h -2 v 2 h 1 v 3 h -1 v -1 h -1 v -2 h -1 v 2 h -1 v 1 h 1 v 2 h 1 v -2 h 1 v 1 h 1 v 1 h 1 v 1 h 1 v -2 h 2 v -1 h -2 v -1 h 3 v 1 h 1 v 2 h 1 v -1 h 1 v 1 h 2 v -3 h -1 v 1 h -3 v -1 h -1 v -1 h -2 v -2 h -2 v -1 h 3 v 2 h 1 v -1 h 1 v 1 h 1 v 1 h 4 v -1 h -2 v -1 h 1 v -1 h -1 v 1 h -1 v -1 h -1 v 1 h -1 v -1 h -1 v -1 h 1 v -1 h 1 v 1 h 2 v -1 h 1 v 1 h 4 v 1 h -2 v 1 h 2 v -1 h 1 v -1 h -1 v -2 h -1 v -1 h -1 v 1 h -1 v -2 h 2 v -2 h 1 v 2 h 1 v -2 h -1 v -1 h 1 v -1 h -1 v 1 h -1 v 1 h -1 v 1 h -1 v 1 h -1 v 1 h -3 v -1 h -1 v -1 h 2 v 1 h 1 v -1 h -1 v -1 h 2 v -1 h 2 v -1 h -1 v -1 h -1 v -1 h 3 v -1 h -1 v -1 h -1 v -1 h 1 v -1 h -1 v -1 h -2 v 1 h 2 v 1 h -1 v 2 h -1 v 1 h -1 v -1 h -1 v 1 h -1 v -1 h -1 v -1 h -1 v -1 h 3 v 1 h 2 v -1 h -1 v -2 h -1 v -1 h 4 V 9 H 26 V 8 h 2 V 6 H 27 V 7 H 26 V 6 H 25 V 7 H 24 V 6 H 23 V 7 H 22 V 6 h -1 v 1 h 1 V 8 H 17 V 7 h 1 V 6 Z m 6,1 v 1 h 1 V 7 Z M 0,8 v 5 H 1 V 12 H 2 V 11 H 1 V 8 Z m 3,1 v 1 H 4 V 9 Z m 15,0 v 1 h 2 v 1 h -1 v 1 h 1 v 1 h 1 v -1 h 3 V 11 H 23 V 9 h -2 v 1 H 20 V 9 Z m 18,0 v 1 h 1 V 9 Z m -15,1 v 1 h 1 v -1 z m -11,2 v 1 H 9 v 2 h 1 v 1 h 1 v -1 h 1 v -1 h -1 v 1 h -1 v -2 h 1 v -1 z m 8,2 v 1 h 1 v -1 z m -2,1 v 1 h 1 v -1 z m 2,1 v 1 h 1 v -1 z m 8,1 v 1 h -1 v 1 h 2 V 17 Z M 6,18 v 1 h 2 v 1 H 6 v 1 H 5 V 20 H 4 v 1 h 1 v 1 H 4 v 1 H 3 v 1 H 4 V 23 H 5 V 22 H 6 V 21 H 8 V 20 H 9 V 19 H 8 v -1 z m 4,2 v 1 h 1 v -1 z m 4,0 v 1 h 1 v -1 z m 4,0 v 3 h 1 v -2 h 1 v -1 z m 4,2 v 1 h 1 v 1 h -2 v 1 h -1 v 1 h 2 v -1 h 1 v -1 h 1 v -1 h -1 v -1 z m 13,0 v 1 h 1 v -1 z m -8,2 v 1 h 1 V 24 Z M 0,25 v 4 h 1 v -4 z m 6,0 v 1 h 1 v -1 z m 12,0 v 1 h 1 v -1 z m -4,1 v 2 h 1 v -2 z m 10,2 v 1 h 1 v -1 z m -14,1 v 1 h 1 v 1 h 1 v -1 h -1 v -1 z m 8,0 v 2 h 1 v -2 z m 11,0 v 3 h 3 v -3 z m 1,1 v 1 h 1 V 30 Z M 8,31 v 4 h 1 v -2 h 1 V 32 H 9 v -1 z m 6,0 v 1 h 1 v -1 z m 4,1 v 1 h 1 v -1 z m -7,1 v 1 h -1 v 2 H 8 v 1 h 3 v -2 h 1 v -2 z m 19,0 v 1 h 1 v 1 h 2 v -1 h -2 v -1 z m -10,1 v 1 h 2 v -1 z m 15,0 v 1 h -1 v 1 h 1 v -1 h 1 V 34 Z M 0,0 H 7 V 7 H 0 Z M 1,1 V 6 H 6 V 1 Z M 2,2 H 5 V 5 H 2 Z M 30,0 h 7 v 7 h -7 z m 1,1 v 5 h 5 V 1 Z m 1,1 h 3 V 5 H 32 Z M 0,30 h 7 v 7 H 0 Z m 1,1 v 5 h 5 v -5 z m 1,1 h 3 v 3 H 2 Z"
         fill="#000000"
         id="path3189" />
    </g>
  </g>
  <g
     id="layer2"
     inkscape:label="Layer 2"
     transform="matrix(2.3330853,0,0,2.3330853,238.93427,226.037)">
    <rect
       style="fill:#ffffff;stroke-width:1.83287"
       id="rect845"
       width="64"
       height="64"
       x="0"
       y="0" />
  </g>
  <g
     id="layer1"
     inkscape:label="Layer 1"
     transform="matrix(2.5928497,0,0,2.5928497,228.56789,219.71445)">
    <g
       id="g900"
       transform="translate(2.0285,1.5603846)">
      <path
         d="m 52.089444,45.625175 -1.10815,2.822081 h -0.0333 l -1.15616,-2.822081 h -1.04535 l 1.7324,3.945004 -0.98995,2.194131 h 1.01581 l 2.67068,-6.139135 z M 44.25853,43.283291 h -0.96778 v 6.508517 h 0.96778 z m -3.64211,0 h -2.32711 v 6.508517 h 0.97517 v -2.46378 h 1.35563 a 2.0648474,2.0648474 0 0 0 2.13503,-2.020522 2.0685412,2.0685412 0 0 0 -2.13872,-2.024215 z m 0.0259,3.136056 h -1.3778 v -2.216294 h 1.38149 a 1.1081471,1.1081471 0 0 1 0,2.216294 z m 6.002464,-0.934537 a 1.8247489,1.8247489 0 0 0 -1.732404,0.997332 l 0.86435,0.369383 a 0.91606826,0.91606826 0 0 1 0.886524,-0.47281 0.93084355,0.93084355 0 0 1 1.01949,0.838498 v 0.06649 a 2.1165609,2.1165609 0 0 0 -1.00841,-0.254874 c -0.927154,0 -1.872774,0.509748 -1.872774,1.477529 0,0.871743 0.75724,1.433204 1.614204,1.433204 a 1.3519394,1.3519394 0 0 0 1.23374,-0.635338 h 0.0369 v 0.50236 h 0.94562 v -2.504412 c 0,-1.156167 -0.86436,-1.798892 -1.97989,-1.798892 z m -0.11451,3.568233 c -0.317674,0 -0.760934,-0.162528 -0.760934,-0.554073 0,-0.50236 0.550384,-0.694439 1.030584,-0.694439 a 1.7250156,1.7250156 0 0 1 0.88652,0.217936 1.1783297,1.1783297 0 0 1 -1.15617,1.030576 z M 11.50544,49.932173 A 3.4943571,3.4943571 0 0 1 8,46.493224 a 3.4943571,3.4943571 0 0 1 3.50544,-3.43895 3.2911968,3.2911968 0 0 1 2.36774,0.949312 l -0.66859,0.661195 a 2.4046792,2.4046792 0 0 0 -1.69915,-0.687051 2.5007186,2.5007186 0 0 0 0,5.001437 2.3086398,2.3086398 0 0 0 1.74348,-0.690745 1.9429512,1.9429512 0 0 0 0.51344,-1.182024 h -2.25692 v -0.912374 h 3.17668 a 3.0954242,3.0954242 0 0 1 0.048,0.587318 3.0917304,3.0917304 0 0 1 -0.81633,2.216294 3.1656068,3.1656068 0 0 1 -2.40837,0.934537 z m 8.13749,-2.216294 a 2.1941312,2.1941312 0 1 1 -4.38457,0 2.1941312,2.1941312 0 1 1 4.38457,0 z m -0.9604,0 a 1.2374309,1.2374309 0 1 0 -2.46378,0 1.2374309,1.2374309 0 1 0 2.46378,0 z m 5.87318,0 a 2.1904374,2.1904374 0 1 1 -4.38087,0 2.1904374,2.1904374 0 1 1 4.38087,0 z m -0.9567,0 a 1.2374309,1.2374309 0 1 0 -2.46378,0 1.2374309,1.2374309 0 1 0 2.46378,0 z m 5.75129,-2.079622 v 3.978248 c 0,1.63267 -0.97148,2.304946 -2.11656,2.304946 a 2.1239486,2.1239486 0 0 1 -1.97251,-1.292839 l 0.8385,-0.369382 a 1.2300433,1.2300433 0 0 0 1.10815,0.786784 c 0.73876,0 1.18941,-0.45434 1.18941,-1.300226 V 49.42612 h -0.0369 a 1.5218553,1.5218553 0 0 1 -1.15247,0.506053 2.2162942,2.2162942 0 0 1 0,-4.432588 1.5440183,1.5440183 0 0 1 1.16725,0.494972 h 0.0369 v -0.369382 h 0.93823 z m -0.86066,2.090704 a 1.2522062,1.2522062 0 0 0 -1.18572,-1.35194 1.2854506,1.2854506 0 0 0 -1.24113,1.35194 1.2743692,1.2743692 0 0 0 1.24113,1.33347 1.2374309,1.2374309 0 0 0 1.18572,-1.33347 z m 2.5709,-4.436282 v 6.504823 h -0.97517 v -6.504823 z m 3.84157,5.156577 0.76093,0.50236 a 2.2162942,2.2162942 0 0 1 -1.84691,0.982557 2.1461115,2.1461115 0 0 1 -2.17566,-2.216294 2.0389906,2.0389906 0 0 1 3.97086,-0.805253 l 0.0997,0.254874 -2.95506,1.222655 a 1.1340039,1.1340039 0 0 0 1.0786,0.672276 1.2706753,1.2706753 0 0 0 1.06751,-0.613175 z m -2.3308,-0.797866 1.98728,-0.820028 a 0.86435473,0.86435473 0 0 0 -0.82742,-0.469116 1.215268,1.215268 0 0 0 -1.15986,1.289144 z"
         style="fill:#5f6368;stroke-width:0.369382"
         id="path855" />
      <g
         id="g892"
         transform="translate(17.110535,8.0000071)">
        <path
           d="M 13.54,15.28 0.12,29.34 a 3.64,3.64 0 0 0 5.33,2.16 l 15.1,-8.6 z"
           style="fill:#ea4335"
           id="path857" />
        <path
           d="m 27.11,12.89 -6.53,-3.74 -7.35,6.45 7.38,7.28 6.48,-3.7 a 3.55,3.55 0 0 0 0,-6.29 z"
           style="fill:#fbbc04"
           id="path859" />
        <path
           d="M 0.12,2.66 A 3.46,3.46 0 0 0 0,3.58 v 24.84 a 3.66,3.66 0 0 0 0.12,0.92 L 14,15.64 Z"
           style="fill:#4285f4"
           id="path861" />
        <path
           d="M 13.64,16 20.58,9.15 5.5,0.51 A 3.72,3.72 0 0 0 3.63,0 3.64,3.64 0 0 0 0.12,2.65 Z"
           style="fill:#34a853"
           id="path863" />
      </g>
    </g>
  </g>
</svg>
