<svg class="w-full h-full" viewBox="0 0 81 79" fill="none" xmlns="http://www.w3.org/2000/svg"><g filter="url(#filter0_d_purple)"><g filter="url(#filter1_f_purple)"><path d="M64.5197 29.4409C59.167 15.4966 43.5236 8.53176 29.5793 13.8845C15.635 19.2372 8.67017 34.8805 14.0229 48.8248C19.3756 62.7691 35.0189 69.734 48.9632 64.3813C62.9076 59.0286 69.8724 43.3852 64.5197 29.4409Z" fill="#FA9E42"></path></g><g filter="url(#filter2_f_purple)"><path d="M70.8866 26.996C64.1832 9.53299 44.5924 0.810644 27.1295 7.51405C9.66651 14.2175 0.944165 33.8082 7.64757 51.2711C14.351 68.7341 33.9417 77.4564 51.4047 70.753C68.8676 64.0496 77.59 44.4589 70.8866 26.996Z" stroke="#FA9E42" stroke-width="2.09488" stroke-linecap="round" stroke-dasharray="0.21 50.28"></path></g><g filter="url(#filter3_f_purple)"><path d="M43.601 38.0659C49.9082 29.3825 51.016 19.4341 46.0754 15.8454C41.1347 12.2567 32.0165 16.3869 25.7093 25.0703C19.4021 33.7537 18.2942 43.7021 23.2349 47.2908C28.1755 50.8795 37.2937 46.7493 43.601 38.0659Z" fill="#F8E36F"></path></g></g><g filter="url(#filter4_f_purple)"><path d="M29.4834 66.1208C27.6828 65.5708 25.9428 64.8394 24.2902 63.9377C21.1003 62.1929 18.2876 59.8338 16.0141 56.9964C11.4381 51.2931 9.27066 44.028 9.97379 36.7498C10.3436 32.9637 11.4668 29.2897 13.2774 25.9441C16.7665 19.5186 22.6252 14.7083 29.6069 12.5365C33.2128 11.4208 37.0087 11.054 40.7616 11.4586C44.5144 11.8632 48.145 13.0307 51.4302 14.8894C48.679 14.6687 45.9102 14.9198 43.2435 15.6316C37.3515 17.1983 32.258 20.9112 28.9635 26.0413C25.669 31.1713 24.4115 37.3477 25.438 43.3575C26.4645 49.3673 29.7008 54.7761 34.5113 58.5218C39.3218 62.2675 45.3589 64.0793 51.437 63.6014C49.8259 64.5306 48.1266 65.2975 46.3639 65.8908C40.8996 67.7334 34.9947 67.814 29.4822 66.1213L29.4834 66.1208Z" fill="#713FFD"></path></g><defs><filter id="filter0_d_purple" x="2.36884" y="0.561099" width="77.9833" height="77.9828" filterUnits="userSpaceOnUse" color-interpolation-filters="sRGB"><feFlood flood-opacity="0" result="BackgroundImageFix"></feFlood><feColorMatrix in="SourceAlpha" type="matrix" values="0 0 0 0 0 0 0 0 0 0 0 0 0 0 0 0 0 0 127 0" result="hardAlpha"></feColorMatrix><feOffset dx="2.09488" dy="0.418976"></feOffset><feGaussianBlur stdDeviation="3.14232"></feGaussianBlur><feColorMatrix type="matrix" values="0 0 0 0 0 0 0 0 0 0 0 0 0 0 0 0 0 0 0.25 0"></feColorMatrix><feBlend mode="normal" in2="BackgroundImageFix" result="effect1_dropShadow_purple"></feBlend><feBlend mode="normal" in="SourceGraphic" in2="effect1_dropShadow_purple" result="shape"></feBlend></filter><filter id="filter1_f_purple" x="11.3808" y="11.2431" width="55.7814" height="55.7799" filterUnits="userSpaceOnUse" color-interpolation-filters="sRGB"><feFlood flood-opacity="0" result="BackgroundImageFix"></feFlood><feBlend mode="normal" in="SourceGraphic" in2="BackgroundImageFix" result="shape"></feBlend><feGaussianBlur stdDeviation="0.418976" result="effect1_foregroundBlur_purple"></feGaussianBlur></filter><filter id="filter2_f_purple" x="6.13962" y="6.00778" width="66.252" height="66.2515" filterUnits="userSpaceOnUse" color-interpolation-filters="sRGB"><feFlood flood-opacity="0" result="BackgroundImageFix"></feFlood><feBlend mode="normal" in="SourceGraphic" in2="BackgroundImageFix" result="shape"></feBlend><feGaussianBlur stdDeviation="0.209488" result="effect1_foregroundBlur_purple"></feGaussianBlur></filter><filter id="filter3_f_purple" x="15.9587" y="10.3615" width="37.3951" height="42.4132" filterUnits="userSpaceOnUse" color-interpolation-filters="sRGB"><feFlood flood-opacity="0" result="BackgroundImageFix"></feFlood><feBlend mode="normal" in="SourceGraphic" in2="BackgroundImageFix" result="shape"></feBlend><feGaussianBlur stdDeviation="2.09488" result="effect1_foregroundBlur_purple"></feGaussianBlur></filter><filter id="filter4_f_purple" x="9.0058" y="10.4609" width="43.2697" height="57.7115" filterUnits="userSpaceOnUse" color-interpolation-filters="sRGB"><feFlood flood-opacity="0" result="BackgroundImageFix"></feFlood><feBlend mode="normal" in="SourceGraphic" in2="BackgroundImageFix" result="shape"></feBlend><feGaussianBlur stdDeviation="0.418976" result="effect1_foregroundBlur_purple"></feGaussianBlur></filter></defs></svg>