<svg class="w-full h-full" viewBox="0 0 84 84" fill="none" xmlns="http://www.w3.org/2000/svg"><g filter="url(#filter0_df_moon)"><path d="M40.2176 75.4019C37.9737 75.4025 35.7355 75.1757 33.5373 74.7252C29.2947 73.8513 25.2667 72.1477 21.6846 69.7122C16.7218 66.3486 12.7568 61.7103 10.2061 56.2848C7.65552 50.8592 6.61351 44.8467 7.18962 38.8793C7.76573 32.9118 9.93869 27.2097 13.4801 22.3723C17.0216 17.5349 21.8007 13.7407 27.3153 11.3886C29.3199 10.537 31.4043 9.88671 33.5376 9.44748C37.009 8.73724 40.5714 8.58464 44.0908 8.99543C43.3414 10.6343 42.7679 12.3482 42.3802 14.1081C41.6097 17.627 41.5831 21.268 42.3021 24.7978C42.9729 28.0736 44.2823 31.1851 46.1554 33.955C47.9979 36.6819 50.3461 39.0304 53.0728 40.8732C54.4432 41.7989 55.9 42.5896 57.4229 43.2343C58.9721 43.8891 60.5823 44.389 62.23 44.7266C65.8804 45.4702 69.6484 45.4158 73.2758 44.567C72.6644 52.9145 68.9345 60.7263 62.8275 66.4497C56.7085 72.2083 48.6202 75.4108 40.2176 75.4019Z" fill="#713FFD"></path><g filter="url(#filter1_f_moon)"><path d="M34.3836 37.5041C41.8244 30.8044 44.1407 21.2466 39.5572 16.156C34.9737 11.0655 25.226 12.3701 17.7852 19.0698C10.3445 25.7695 8.02817 35.3274 12.6117 40.4179C17.1952 45.5084 26.9428 44.2039 34.3836 37.5041Z" fill="#A586FC"></path></g></g><g filter="url(#filter2_f_moon)"><path d="M24.1606 0.846191L25.2375 3.56381L28.1492 4.56896L25.2375 5.57411L24.1606 8.29173L23.0836 5.57411L20.1719 4.56896L23.0836 3.56381L24.1606 0.846191Z" fill="url(#paint0_linear_moon)"></path></g><g filter="url(#filter3_f_moon)"><path d="M73.617 64.665L74.5504 66.8987L77.0739 67.723L74.5504 68.5474L73.617 70.781L72.6837 68.5474L70.1602 67.723L72.6837 66.8987L73.617 64.665Z" fill="url(#paint1_linear_moon)"></path></g><defs><filter id="filter0_df_moon" x="1.71691" y="1.32497" width="82.1969" height="82.5861" filterUnits="userSpaceOnUse" color-interpolation-filters="sRGB"><feFlood flood-opacity="0" result="BackgroundImageFix"></feFlood><feColorMatrix in="SourceAlpha" type="matrix" values="0 0 0 0 0 0 0 0 0 0 0 0 0 0 0 0 0 0 127 0" result="hardAlpha"></feColorMatrix><feOffset dx="2.65912" dy="0.531824"></feOffset><feGaussianBlur stdDeviation="3.98868"></feGaussianBlur><feColorMatrix type="matrix" values="0 0 0 0 0 0 0 0 0 0 0 0 0 0 0 0 0 0 0.25 0"></feColorMatrix><feBlend mode="normal" in2="BackgroundImageFix" result="effect1_dropShadow_moon"></feBlend><feBlend mode="normal" in="SourceGraphic" in2="effect1_dropShadow_moon" result="shape"></feBlend><feGaussianBlur stdDeviation="0.531824" result="effect2_foregroundBlur_moon"></feGaussianBlur></filter><filter id="filter1_f_moon" x="4.93957" y="7.73254" width="42.2888" height="41.1087" filterUnits="userSpaceOnUse" color-interpolation-filters="sRGB"><feFlood flood-opacity="0" result="BackgroundImageFix"></feFlood><feBlend mode="normal" in="SourceGraphic" in2="BackgroundImageFix" result="shape"></feBlend><feGaussianBlur stdDeviation="2.65912" result="effect1_foregroundBlur_moon"></feGaussianBlur></filter><filter id="filter2_f_moon" x="19.6401" y="0.314367" width="9.04021" height="8.50896" filterUnits="userSpaceOnUse" color-interpolation-filters="sRGB"><feFlood flood-opacity="0" result="BackgroundImageFix"></feFlood><feBlend mode="normal" in="SourceGraphic" in2="BackgroundImageFix" result="shape"></feBlend><feGaussianBlur stdDeviation="0.265912" result="effect1_foregroundBlur_moon"></feGaussianBlur></filter><filter id="filter3_f_moon" x="69.6283" y="64.1332" width="7.97771" height="7.17986" filterUnits="userSpaceOnUse" color-interpolation-filters="sRGB"><feFlood flood-opacity="0" result="BackgroundImageFix"></feFlood><feBlend mode="normal" in="SourceGraphic" in2="BackgroundImageFix" result="shape"></feBlend><feGaussianBlur stdDeviation="0.265912" result="effect1_foregroundBlur_moon"></feGaussianBlur></filter><linearGradient id="paint0_linear_moon" x1="24.1606" y1="0.846191" x2="24.1606" y2="8.29173" gradientUnits="userSpaceOnUse"><stop stop-color="#6B38FC"></stop><stop offset="1" stop-color="#9F7EFD"></stop></linearGradient><linearGradient id="paint1_linear_moon" x1="73.617" y1="64.665" x2="73.617" y2="70.781" gradientUnits="userSpaceOnUse"><stop stop-color="#6B38FC"></stop><stop offset="1" stop-color="#9F7EFD"></stop></linearGradient></defs></svg>