<svg class="w-full h-full" viewBox="0 0 79 78" fill="none" xmlns="http://www.w3.org/2000/svg"><g filter="url(#filter0_f_sun)"><g filter="url(#filter1_df_sun)"><path d="M38.9479 68.0909C54.9354 68.0909 67.8958 55.1254 67.8958 39.1316C67.8958 23.1379 54.9354 10.1724 38.9479 10.1724C22.9604 10.1724 10 23.1379 10 39.1316C10 55.1254 22.9604 68.0909 38.9479 68.0909Z" fill="#FA9E42"></path></g><path d="M38.9478 75.3983C58.9696 75.3983 75.2004 59.1611 75.2004 39.1315C75.2004 19.1019 58.9696 2.86475 38.9478 2.86475C18.9261 2.86475 2.69531 19.1019 2.69531 39.1315C2.69531 59.1611 18.9261 75.3983 38.9478 75.3983Z" stroke="#FA9E42" stroke-width="2.70594" stroke-linecap="round" stroke-dasharray="0.27 17.86"></path><g filter="url(#filter2_f_sun)"><path d="M35.8551 33.3937C45.9816 28.0129 51.71 18.9785 48.6497 13.2147C45.5895 7.45084 34.8996 7.14027 24.7731 12.521C14.6466 17.9017 8.9183 26.9362 11.9785 32.7C15.0387 38.4638 25.7287 38.7744 35.8551 33.3937Z" fill="#F8E36F"></path></g></g><defs><filter id="filter0_f_sun" x="0.802561" y="0.97053" width="76.2933" height="76.3221" filterUnits="userSpaceOnUse" color-interpolation-filters="sRGB"><feFlood flood-opacity="0" result="BackgroundImageFix"></feFlood><feBlend mode="normal" in="SourceGraphic" in2="BackgroundImageFix" result="shape"></feBlend><feGaussianBlur stdDeviation="0.270594" result="effect1_foregroundBlur_sun"></feGaussianBlur></filter><filter id="filter1_df_sun" x="4.58811" y="2.59572" width="74.1302" height="74.1541" filterUnits="userSpaceOnUse" color-interpolation-filters="sRGB"><feFlood flood-opacity="0" result="BackgroundImageFix"></feFlood><feColorMatrix in="SourceAlpha" type="matrix" values="0 0 0 0 0 0 0 0 0 0 0 0 0 0 0 0 0 0 127 0" result="hardAlpha"></feColorMatrix><feOffset dx="2.70594" dy="0.541189"></feOffset><feGaussianBlur stdDeviation="4.05892"></feGaussianBlur><feColorMatrix type="matrix" values="0 0 0 0 0 0 0 0 0 0 0 0 0 0 0 0 0 0 0.25 0"></feColorMatrix><feBlend mode="normal" in2="BackgroundImageFix" result="effect1_dropShadow_sun"></feBlend><feBlend mode="normal" in="SourceGraphic" in2="effect1_dropShadow_sun" result="shape"></feBlend><feGaussianBlur stdDeviation="0.541189" result="effect2_foregroundBlur_sun"></feGaussianBlur></filter><filter id="filter2_f_sun" x="5.74436" y="3.26829" width="49.1402" height="39.378" filterUnits="userSpaceOnUse" color-interpolation-filters="sRGB"><feFlood flood-opacity="0" result="BackgroundImageFix"></feFlood><feBlend mode="normal" in="SourceGraphic" in2="BackgroundImageFix" result="shape"></feBlend><feGaussianBlur stdDeviation="2.70594" result="effect1_foregroundBlur_sun"></feGaussianBlur></filter></defs></svg>