<svg class="w-full h-full" viewBox="0 0 99 52" fill="none" xmlns="http://www.w3.org/2000/svg"><g filter="url(#filter0_f_sunrise)"><mask id="mask0_sunrise" maskUnits="userSpaceOnUse" x="1" y="0" width="97" height="50" style="mask-type: alpha;"><rect x="1.62109" y="0.316895" width="95.76" height="49.6298" fill="#C4C4C4"></rect></mask><g mask="url(#mask0_sunrise)"><path d="M49.3378 80.1156C68.1381 80.1156 83.3787 64.8749 83.3787 46.0746C83.3787 27.2743 68.1381 12.0337 49.3378 12.0337C30.5375 12.0337 15.2969 27.2743 15.2969 46.0746C15.2969 64.8749 30.5375 80.1156 49.3378 80.1156Z" fill="#FA9E42"></path><path d="M49.3338 88.7057C72.8781 88.7057 91.9645 69.6193 91.9645 46.075C91.9645 22.5308 72.8781 3.44434 49.3338 3.44434C25.7895 3.44434 6.70312 22.5308 6.70312 46.075C6.70312 69.6193 25.7895 88.7057 49.3338 88.7057Z" stroke="#FA9E42" stroke-width="3.1814" stroke-linecap="round" stroke-dasharray="0.32 21"></path><g filter="url(#filter1_f_sunrise)"><path d="M45.7027 39.3296C57.6108 33.0047 64.3469 22.3849 60.7483 15.6097C57.1497 8.83446 44.579 8.4694 32.6709 14.7943C20.7628 21.1192 14.0266 31.739 17.6253 38.5142C21.2239 45.2895 33.7946 45.6545 45.7027 39.3296Z" fill="#F8E36F"></path></g><path d="M59.5259 45.9492H40.4375V50.085H59.5259V45.9492Z" fill="#FA9F42"></path><path d="M3.6875 48.6535H41.0889L49.9536 42.7329L59.0438 48.6535H95.3117" stroke="#D0D0D0" stroke-width="3.1814" stroke-linecap="round"></path></g></g><defs><filter id="filter0_f_sunrise" x="0.825098" y="0.580958" width="97.3498" height="50.6384" filterUnits="userSpaceOnUse" color-interpolation-filters="sRGB"><feFlood flood-opacity="0" result="BackgroundImageFix"></feFlood><feBlend mode="normal" in="SourceGraphic" in2="BackgroundImageFix" result="shape"></feBlend><feGaussianBlur stdDeviation="0.636279" result="effect1_foregroundBlur_sunrise"></feGaussianBlur></filter><filter id="filter1_f_sunrise" x="10.2935" y="3.91651" width="57.7881" height="46.2905" filterUnits="userSpaceOnUse" color-interpolation-filters="sRGB"><feFlood flood-opacity="0" result="BackgroundImageFix"></feFlood><feBlend mode="normal" in="SourceGraphic" in2="BackgroundImageFix" result="shape"></feBlend><feGaussianBlur stdDeviation="3.1814" result="effect1_foregroundBlur_sunrise"></feGaussianBlur></filter></defs></svg>