<svg class="w-full h-full" viewBox="0 0 98 58" fill="none" xmlns="http://www.w3.org/2000/svg"><g filter="url(#filter0_f_sunset)"><path d="M58.3887 46.6997H41.5273L49.799 52.2671L58.3887 46.6997Z" fill="#FA9F42"></path><path d="M3.50781 48.0757H40.9093L49.7742 53.9963L58.8641 48.0757H95.132" stroke="#D0D0D0" stroke-width="3.1814" stroke-linecap="round"></path><mask id="mask0_sunset" maskUnits="userSpaceOnUse" x="1" y="0" width="96" height="47" style="mask-type: alpha;"><rect x="1.12109" y="0.251465" width="95.76" height="46.4484" fill="#C4C4C4"></rect></mask><g mask="url(#mask0_sunset)"><path d="M49.1542 78.6298C67.9545 78.6298 83.1951 64.0374 83.1951 46.0368C83.1951 28.0362 67.9545 13.4438 49.1542 13.4438C30.3539 13.4438 15.1133 28.0362 15.1133 46.0368C15.1133 64.0374 30.3539 78.6298 49.1542 78.6298Z" fill="#FF5A13"></path><path d="M49.1541 86.8545C72.6984 86.8545 91.7848 68.5799 91.7848 46.0371C91.7848 23.4943 72.6984 5.21973 49.1541 5.21973C25.6099 5.21973 6.52344 23.4943 6.52344 46.0371C6.52344 68.5799 25.6099 86.8545 49.1541 86.8545Z" stroke="#FF5A13" stroke-width="3.1814" stroke-linecap="round" stroke-dasharray="0.32 21"></path><g filter="url(#filter1_f_sunset)"><path d="M45.5191 39.5798C57.4272 33.5239 64.1633 23.3558 60.5647 16.8688C56.9661 10.3817 44.3954 10.0322 32.4873 16.0881C20.5792 22.144 13.843 32.312 17.4417 38.7991C21.0403 45.2861 33.611 45.6356 45.5191 39.5798Z" fill="#FF9A6F"></path></g></g></g><defs><filter id="filter0_f_sunset" x="0.645411" y="2.35635" width="97.3498" height="54.8181" filterUnits="userSpaceOnUse" color-interpolation-filters="sRGB"><feFlood flood-opacity="0" result="BackgroundImageFix"></feFlood><feBlend mode="normal" in="SourceGraphic" in2="BackgroundImageFix" result="shape"></feBlend><feGaussianBlur stdDeviation="0.636279" result="effect1_foregroundBlur_sunset"></feGaussianBlur></filter><filter id="filter1_f_sunset" x="9.63266" y="4.92514" width="58.7425" height="45.8172" filterUnits="userSpaceOnUse" color-interpolation-filters="sRGB"><feFlood flood-opacity="0" result="BackgroundImageFix"></feFlood><feBlend mode="normal" in="SourceGraphic" in2="BackgroundImageFix" result="shape"></feBlend><feGaussianBlur stdDeviation="3.42" result="effect1_foregroundBlur_sunset"></feGaussianBlur></filter></defs></svg>