<?xml version="1.0" encoding="UTF-8" standalone="no"?>
<!-- Created with Inkscape (http://www.inkscape.org/) -->

<svg
   width="37.295532mm"
   height="8.4878063mm"
   viewBox="0 0 37.295532 8.4878063"
   version="1.1"
   id="svg1"
   inkscape:version="1.3.2 (091e20e, 2023-11-25, custom)"
   sodipodi:docname="zemaneh-yosef-title.svg"
   xmlns:inkscape="http://www.inkscape.org/namespaces/inkscape"
   xmlns:sodipodi="http://sodipodi.sourceforge.net/DTD/sodipodi-0.dtd"
   xmlns="http://www.w3.org/2000/svg"
   xmlns:svg="http://www.w3.org/2000/svg">
  <sodipodi:namedview
     id="namedview1"
     pagecolor="#ffffff"
     bordercolor="#666666"
     borderopacity="1.0"
     inkscape:showpageshadow="2"
     inkscape:pageopacity="0.0"
     inkscape:pagecheckerboard="0"
     inkscape:deskcolor="#d1d1d1"
     inkscape:document-units="mm"
     inkscape:zoom="8.3455106"
     inkscape:cx="71.894942"
     inkscape:cy="7.4890564"
     inkscape:window-width="2462"
     inkscape:window-height="1406"
     inkscape:window-x="-11"
     inkscape:window-y="-11"
     inkscape:window-maximized="1"
     inkscape:current-layer="layer1" />
  <defs
     id="defs1" />
  <g
     inkscape:label="Layer 1"
     inkscape:groupmode="layer"
     id="layer1"
     transform="translate(-75.760199,-48.591974)">
    <path
       d="m 113.05572,49.872553 q 0,0.179916 -0.0529,0.338666 -0.24342,-0.15875 -0.61384,-0.15875 h -1.33349 q -0.254,0 -0.61383,-0.169333 l -0.16934,-1.164163 0.34925,-0.05292 q 0.0423,0.518582 0.762,0.518582 h 1.0795 q 0.254,0 0.42333,0.222249 0.16933,0.222249 0.16933,0.465665 z m -0.11641,0.709081 -0.20109,0.878414 q -0.16933,-0.201083 -0.39158,-0.201083 h -0.381 q -0.0212,0.444499 -0.0212,0.507999 0,1.037163 0.74083,1.95791 -0.0847,0.444499 -0.20109,0.730248 -0.26458,-0.455082 -0.75141,-1.407579 -0.24342,-0.550332 -0.254,-0.698498 0.0106,-0.338665 -0.0529,-1.015997 l -0.0423,-0.07408 q -0.64558,0 -0.79375,-0.243416 l -0.10583,-0.751414 q 0.254,0.127 0.5715,0.127 h 1.33349 q 0.3175,0 0.55034,0.190499 z m -0.58209,4.190987 q -0.16933,0.359832 -0.37041,0.687914 l -0.21167,-0.01058 q -0.29633,-0.719664 -0.29633,-1.947327 v -0.846664 q 0.28575,1.132413 0.87841,2.11666 z m -2.75165,-3.862905 q -0.59266,-0.96308 -1.98966,-0.96308 -0.46566,0 -1.42874,0.253999 0.11642,-0.539748 0.11642,-0.793747 0.89958,-0.253999 1.55574,-0.253999 1.74624,0 1.74624,1.756827 z m -3.90523,-0.666747 q -0.23284,-0.1905 -0.43392,-0.1905 h -0.99483 q -0.13758,0 -0.45508,-0.05292 l -0.13758,-1.12183 0.28575,-0.105833 q 0.0847,0.412749 0.35983,0.412749 h 0.56091 q 0.81492,0 0.81492,1.05833 z m 3.96873,1.915577 q 0,1.386412 -0.0847,1.619245 -0.34925,0.190499 -0.89958,0.190499 h -1.78858 q -0.33867,0 -0.67733,0.08467 0.16933,-0.402165 0.26458,-0.539748 0.20108,-0.296332 0.48683,-0.296332 h 1.38642 q 0.52916,0 0.83608,-0.169333 v -0.04233 q 0,-1.926161 -1.7145,-1.926161 -1.98966,0 -1.98966,2.201327 0,0.518581 0.17992,0.910163 -0.0741,0.391582 -0.87842,1.354663 l -0.29633,-0.01058 q -0.0106,-0.402165 -0.0106,-0.433915 0,-0.539748 0.33866,-1.650995 0.33867,-1.111246 0.33867,-1.608661 0,-0.423332 -0.17992,-0.518582 -0.0953,-0.0635 -0.56091,-0.0635 -0.45508,0 -0.49742,-0.296332 l -0.0741,-0.624415 q 0.21167,0.05292 0.42333,0.05292 h 0.99483 q 0.22225,0 0.42333,0.179916 l -0.0106,0.920747 q 0.29633,-0.317499 0.45508,-0.93133 0.97367,-0.275166 1.48166,-0.275166 1.44992,0 2.032,1.206496 0.0212,0.603248 0.0212,0.666748 z m -0.12699,1.979077 -0.10584,0.783164 q -0.48683,0.370416 -1.12183,0.370416 h -1.58749 q -0.381,0 -0.62442,0.306915 l -0.27516,-0.126999 0.3175,-1.068914 q 0.35983,-0.09525 0.75141,-0.09525 h 1.78858 q 0.45508,0 0.85725,-0.169333 z m -6.69923,-4.000487 q -0.20108,-0.08467 -0.49741,-0.08467 h -1.25942 q -0.32808,0 -0.58208,-0.0635 l -0.10583,-1.142996 0.29633,-0.105833 q 0.0529,0.444499 0.52917,0.444499 h 0.78316 q 0.83608,0 0.83608,0.83608 z m 0.17992,3.185573 -0.11642,0.582081 q -0.3175,0.0635 -0.48683,0.0635 h -1.54516 q -0.34925,0 -0.67733,0.127 0.14816,-0.486832 0.1905,-0.582082 0.16933,-0.296332 0.48683,-0.296332 h 1.22766 q 0.14817,-0.624415 0.14817,-1.068913 0,-0.888998 -0.508,-0.888998 h -0.53975 q -0.55033,0 -0.62441,-0.306915 l -0.0529,-0.624415 q 0.3175,0.0635 0.56091,0.0635 h 1.25942 q 0.3175,0 0.48683,0.08467 l -0.0635,1.333496 q -0.0423,0.497415 -0.0423,0.550332 0,0.730247 0.29633,0.96308 z m -0.15875,0.93133 -0.13758,0.804331 q -0.4445,0.232833 -1.25942,0.232833 h -0.762 q -0.34924,0 -0.59266,0.306915 l -0.222249,-0.09525 0.243419,-1.047747 q 0.41275,-0.148166 0.74083,-0.148166 h 1.54516 q 0.0741,0 0.4445,-0.05292 z M 99.2022,50.190052 q -0.232832,-0.137583 -0.613831,-0.137583 h -1.15358 q -0.328082,0 -0.582081,-0.105833 l -0.169333,-1.174746 0.285749,-0.0635 q 0.148166,0.476249 0.518582,0.476249 h 0.793747 q 0.444499,0 0.634998,0.190499 0.232833,0.222249 0.285749,0.814914 z m 0.02117,0.740831 q 0,0.539748 -0.158749,1.227663 -0.179917,0.740831 -0.433916,1.132413 L 98.101537,53.00521 q 0.423332,-0.677331 0.423332,-1.344079 0,-0.402166 -0.518581,-0.402166 h -0.402166 q -0.402165,0 -0.634998,-0.296332 l -0.08467,-0.677331 q 0.253999,0.105833 0.592665,0.105833 h 1.090079 q 0.455082,0 0.645582,0.148166 0.01058,0.338666 0.01058,0.391582 z m -6.318222,-0.740831 q -0.232832,-0.137583 -0.613831,-0.137583 h -1.15358 q -0.328082,0 -0.582081,-0.105833 l -0.169333,-1.174746 0.285749,-0.0635 q 0.148166,0.476249 0.518582,0.476249 h 0.793747 q 0.444499,0 0.634998,0.190499 0.232833,0.222249 0.285749,0.814914 z m 0.02117,0.740831 q 0,0.539748 -0.15875,1.227663 -0.179916,0.740831 -0.433915,1.132413 L 91.804482,53.00521 q 0.423332,-0.677331 0.423332,-1.344079 0,-0.402166 -0.518582,-0.402166 h -0.402165 q -0.402165,0 -0.634998,-0.296332 l -0.08467,-0.677331 q 0.253999,0.105833 0.592664,0.105833 h 1.09008 q 0.455082,0 0.645582,0.148166 0.01058,0.338666 0.01058,0.391582 z M 89.539655,49.86197 q 0,0.222249 -0.03175,0.328082 -0.22225,-0.137583 -0.666748,-0.137583 H 87.92041 q -0.455082,0 -0.709081,-0.137583 l -0.169333,-1.195913 0.285749,-0.05292 q 0.201083,0.518582 0.613831,0.518582 h 0.973664 q 0.624414,0 0.624414,0.677331 z m 0.275166,3.862904 q 0,0.349249 -0.179916,0.783164 -0.507998,-0.783164 -0.86783,-1.650994 0,-0.137583 0.02117,-0.423332 0.02117,-0.285749 0.02117,-0.423332 0,-0.507999 -0.04233,-0.624415 -0.04233,-0.127 -0.232833,-0.127 h -0.603248 q -0.444499,0 -0.603248,-0.306915 l -0.08467,-0.698498 q 0.275166,0.137583 0.603249,0.137583 h 0.952496 q 0.412749,0 0.666748,0.126999 -0.04233,0.201083 -0.105833,0.613832 -0.08467,0.698498 -0.08467,0.952497 0,0.920747 0.539748,1.640411 z m -0.328082,1.068913 q -0.179916,0.306916 -0.497415,0.613832 l -0.179916,0.01058 q -0.137583,-0.613831 -0.137583,-1.227663 0,-0.433915 0.07408,-1.047746 0.243416,0.761997 0.740831,1.650994 z m -3.069166,-4.413235 q -0.402166,-0.328083 -0.899581,-0.328083 h -2.973907 q -0.582081,0 -1.15358,-0.211666 0.127,-0.560915 0.127,-0.952497 0,-0.0635 -0.02117,-0.169333 l 0.317499,-0.126999 q 0.08467,0.370415 0.391583,0.497415 0.222249,0.09525 0.666747,0.09525 h 2.264827 q 0.687914,0 0.984246,0.264582 0.296333,0.264583 0.296333,0.931331 z m -0.01058,0.433915 -0.539748,2.709325 q -0.888997,0.550331 -1.95791,0.550331 -0.973664,0 -1.820328,-0.370415 L 81.91967,52.105629 Q 81.8985,51.88338 81.86675,51.650547 81.835,51.407132 81.718584,51.227215 81.517501,50.909716 81.178835,50.867383 l 0.169333,-0.698497 q 0.613832,0.222249 1.195913,0.222249 h 2.973907 q 0.402166,0 0.888997,0.423332 z m -0.582081,3.07974 q -0.349249,1.502829 -2.18016,1.502829 -1.407579,0 -1.513412,-1.12183 l -0.02117,-0.22225 q 0.804331,0.359833 1.799161,0.359833 0.984247,0 1.915577,-0.518582 z m -0.03175,-1.904994 q 0,-0.306916 -0.169333,-0.518582 -0.169332,-0.211666 -0.476248,-0.211666 h -2.815158 q -0.04233,0.751415 -0.04233,0.825498 0,0.751414 0.423332,1.068913 0.370415,0.264583 1.15358,0.264583 0.645581,0 1.005413,-0.137583 0.476249,-0.179916 0.740831,-0.677332 0.179916,-0.328082 0.179916,-0.613831 z m -5.365724,-2.127243 -0.03175,0.190499 h -3.04799 q -0.370415,0 -0.571498,-0.0635 l -0.507998,-0.211666 q 0.222249,-0.582081 0.222249,-1.111246 l 0.338666,-0.03175 q 0,0.264583 0.264582,0.423332 0.222249,0.127 0.507998,0.127 h 2.11666 q 0.709081,0 0.709081,0.677331 z m 0.169333,5.439816 q -0.07408,0.380999 -0.148166,0.656164 -0.507998,-0.719664 -0.719664,-1.703911 -0.15875,-0.698498 -0.15875,-0.730247 0.04233,-1.111247 0.04233,-1.21708 0,-0.518582 -0.09525,-0.783164 -0.09525,-0.264583 -0.433916,-0.264583 H 76.65978 v 0.07408 q 0,0.328083 0.370415,0.402166 1.100663,0.179916 1.100663,0.328082 v 0.1905 l -0.03175,0.306915 q -0.338665,-0.148166 -0.952496,-0.201082 -0.709082,-0.0635 -0.963081,-0.137583 0.04233,-0.137583 0.04233,-0.296333 0,-0.99483 -0.338665,-1.301746 0.190499,-0.253999 0.306916,-0.539748 0.423332,0.1905 0.571498,0.232833 0.222249,0.07408 0.582081,0.07408 h 3.016241 l -0.127,1.068913 q -0.137583,1.15358 -0.137583,1.629828 0,1.714495 0.497415,2.21191 z m -0.264582,0.973663 q -0.179916,0.444499 -0.476249,0.804331 h -0.296332 q 0,-0.264582 -0.03175,-0.793747 -0.02117,-0.518582 -0.02117,-0.783164 0,-0.402166 0.04233,-1.566329 0.08467,0.751414 0.232832,1.227663 0.169333,0.529165 0.550332,1.111246 z M 78.046192,52.87821 q -0.05292,0.179916 -0.349249,0.624415 -0.423332,-0.179916 -0.687914,-0.179916 -0.359833,0 -0.899581,0.179916 L 75.760199,53.06871 q 0.275166,-0.317499 0.349249,-0.518582 0.1905,0.05292 0.550332,0.09525 l 0.941913,0.116416 q 0.148167,0.02117 0.444499,0.116416 z"
       id="text1"
       style="font-size:10.5833px;line-height:1.25;font-family:'Guttman Mantova-Decor';-inkscape-font-specification:'Guttman Mantova-Decor';text-align:center;text-anchor:middle;stroke-width:0.264583"
       aria-label="זמני יוסף" />
  </g>
</svg>
