<?xml version="1.0" encoding="UTF-8" standalone="no"?>
<svg
   width="63.338001"
   height="63.338001"
   viewBox="0 0 63.338002 63.338001"
   version="1.1"
   id="svg9"
   sodipodi:docname="misheyakir.svg"
   xml:space="preserve"
   inkscape:version="1.3.2 (091e20e, 2023-11-25, custom)"
   xmlns:inkscape="http://www.inkscape.org/namespaces/inkscape"
   xmlns:sodipodi="http://sodipodi.sourceforge.net/DTD/sodipodi-0.dtd"
   xmlns="http://www.w3.org/2000/svg"
   xmlns:svg="http://www.w3.org/2000/svg"><defs
     id="defs9" /><sodipodi:namedview
     id="namedview9"
     pagecolor="#ffffff"
     bordercolor="#666666"
     borderopacity="1.0"
     inkscape:showpageshadow="2"
     inkscape:pageopacity="0.0"
     inkscape:pagecheckerboard="0"
     inkscape:deskcolor="#d1d1d1"
     inkscape:zoom="9.1484375"
     inkscape:cx="30.660974"
     inkscape:cy="43.559351"
     inkscape:window-width="2462"
     inkscape:window-height="1406"
     inkscape:window-x="-11"
     inkscape:window-y="-11"
     inkscape:window-maximized="1"
     inkscape:current-layer="svg9" /><line
     x1="14.285494"
     y1="35.340633"
     x2="3.0854936"
     y2="31.240633"
     stroke="#d7a548"
     stroke-width="2.5"
     stroke-linecap="round"
     id="line2" /><line
     x1="17.720533"
     y1="31.634554"
     x2="8.6205349"
     y2="23.834551"
     stroke="#d7a548"
     stroke-width="2.5"
     stroke-linecap="round"
     id="line3" /><line
     x1="23.073992"
     y1="28.984682"
     x2="17.073992"
     y2="18.684683"
     stroke="#d7a548"
     stroke-width="2.5"
     stroke-linecap="round"
     id="line4" /><line
     x1="28.907642"
     y1="26.931223"
     x2="26.80764"
     y2="15.131224"
     stroke="#d7a548"
     stroke-width="2.5"
     stroke-linecap="round"
     id="line5" /><line
     x1="34.485435"
     y1="27.204493"
     x2="36.585434"
     y2="15.404493"
     stroke="#d7a548"
     stroke-width="2.5"
     stroke-linecap="round"
     id="line6" /><line
     x1="40.428391"
     y1="29.039335"
     x2="46.428391"
     y2="18.739336"
     stroke="#d7a548"
     stroke-width="2.5"
     stroke-linecap="round"
     id="line7" /><line
     x1="45.07135"
     y1="32.454369"
     x2="54.171349"
     y2="24.654364"
     stroke="#d7a548"
     stroke-width="2.5"
     stroke-linecap="round"
     id="line8" /><line
     x1="48.598076"
     y1="35.337883"
     x2="59.79808"
     y2="31.237883"
     stroke="#d7a548"
     stroke-width="2.5"
     stroke-linecap="round"
     id="line9" /><g
     style="fill:#d7a548;fill-opacity:1"
     id="g9"
     transform="matrix(0.08609614,0,0,0.08609614,12.012881,18.842955)"><g
       id="g4"
       style="fill:#d7a548;fill-opacity:1">
	<g
   id="g1"
   style="fill:#d7a548;fill-opacity:1">
		<path
   d="m 221.02,341.304 c -49.708,0 -103.206,-19.44 -154.71,-56.22 C 27.808,257.59 4.044,230.351 3.051,229.203 c -4.068,-4.697 -4.068,-11.669 0,-16.367 0.993,-1.146 24.756,-28.387 63.259,-55.881 51.505,-36.777 105.003,-56.219 154.71,-56.219 49.708,0 103.207,19.441 154.71,56.219 38.502,27.494 62.266,54.734 63.259,55.881 4.068,4.697 4.068,11.669 0,16.367 -0.993,1.146 -24.756,28.387 -63.259,55.881 -51.503,36.779 -105.001,56.22 -154.71,56.22 z M 29.638,221.021 c 9.61,9.799 27.747,27.03 51.694,44.071 32.83,23.361 83.714,51.212 139.688,51.212 55.974,0 106.859,-27.851 139.688,-51.212 23.944,-17.038 42.082,-34.271 51.694,-44.071 -9.609,-9.799 -27.747,-27.03 -51.694,-44.071 -32.829,-23.362 -83.714,-51.212 -139.688,-51.212 -55.974,0 -106.858,27.85 -139.688,51.212 -23.944,17.038 -42.082,34.269 -51.694,44.071 z"
   id="path1"
   style="fill:#d7a548;fill-opacity:1" />
	</g>
	<g
   id="g2"
   style="fill:#d7a548;fill-opacity:1">
		<path
   d="m 221.02,298.521 c -42.734,0 -77.5,-34.767 -77.5,-77.5 0,-42.733 34.766,-77.5 77.5,-77.5 18.794,0 36.924,6.814 51.048,19.188 5.193,4.549 5.715,12.446 1.166,17.639 -4.549,5.193 -12.447,5.714 -17.639,1.166 -9.564,-8.379 -21.844,-12.993 -34.576,-12.993 -28.949,0 -52.5,23.552 -52.5,52.5 0,28.948 23.551,52.5 52.5,52.5 28.95,0 52.5,-23.552 52.5,-52.5 0,-6.903 5.597,-12.5 12.5,-12.5 6.903,0 12.5,5.597 12.5,12.5 0.002,42.733 -34.765,77.5 -77.499,77.5 z"
   id="path2"
   style="fill:#d7a548;fill-opacity:1" />
	</g>
	<g
   id="g3"
   style="fill:#d7a548;fill-opacity:1">
		<path
   d="m 221.02,246.021 c -13.785,0 -25,-11.215 -25,-25 0,-13.785 11.215,-25 25,-25 13.786,0 25,11.215 25,25 0,13.785 -11.214,25 -25,25 z"
   id="path3"
   style="fill:#d7a548;fill-opacity:1" />
	</g>
</g></g><line
     x1="1.25254"
     y1="48.204239"
     x2="62.085884"
     y2="48.204239"
     stroke="#0b2345"
     stroke-width="2.50508"
     stroke-linecap="round"
     id="line1" /></svg>
